G04 #@! TF.GenerationSoftware,KiCad,Pcbnew,5.1.4-3.fc30*
G04 #@! TF.CreationDate,2019-09-02T15:50:26-07:00*
G04 #@! TF.ProjectId,AR_20_JW_Rev2,41525f32-305f-44a5-975f-526576322e6b,rev?*
G04 #@! TF.SameCoordinates,Original*
G04 #@! TF.FileFunction,Copper,L2,Bot*
G04 #@! TF.FilePolarity,Positive*
%FSLAX46Y46*%
G04 Gerber Fmt 4.6, Leading zero omitted, Abs format (unit mm)*
G04 Created by KiCad (PCBNEW 5.1.4-3.fc30) date 2019-09-02 15:50:26*
%MOMM*%
%LPD*%
G04 APERTURE LIST*
%ADD10C,1.600000*%
%ADD11R,1.600000X1.600000*%
%ADD12O,1.600000X1.600000*%
%ADD13R,1.700000X1.700000*%
%ADD14O,1.700000X1.700000*%
%ADD15C,0.500000*%
%ADD16C,0.254000*%
G04 APERTURE END LIST*
D10*
X139065000Y-118745000D03*
X139065000Y-113745000D03*
X123825000Y-113745000D03*
X123825000Y-118745000D03*
D11*
X127635000Y-74930000D03*
D12*
X135255000Y-107950000D03*
X127635000Y-77470000D03*
X135255000Y-105410000D03*
X127635000Y-80010000D03*
X135255000Y-102870000D03*
X127635000Y-82550000D03*
X135255000Y-100330000D03*
X127635000Y-85090000D03*
X135255000Y-97790000D03*
X127635000Y-87630000D03*
X135255000Y-95250000D03*
X127635000Y-90170000D03*
X135255000Y-92710000D03*
X127635000Y-92710000D03*
X135255000Y-90170000D03*
X127635000Y-95250000D03*
X135255000Y-87630000D03*
X127635000Y-97790000D03*
X135255000Y-85090000D03*
X127635000Y-100330000D03*
X135255000Y-82550000D03*
X127635000Y-102870000D03*
X135255000Y-80010000D03*
X127635000Y-105410000D03*
X135255000Y-77470000D03*
X127635000Y-107950000D03*
X135255000Y-74930000D03*
D13*
X120015000Y-86360000D03*
D14*
X117475000Y-86360000D03*
X120015000Y-83820000D03*
X117475000Y-83820000D03*
X120015000Y-81280000D03*
X117475000Y-81280000D03*
D13*
X144145000Y-82550000D03*
D14*
X144145000Y-85090000D03*
X144145000Y-87630000D03*
X144145000Y-90170000D03*
X144145000Y-92710000D03*
X144145000Y-95250000D03*
X144145000Y-97790000D03*
D13*
X111125000Y-80010000D03*
D14*
X111125000Y-82550000D03*
X111125000Y-85090000D03*
X111125000Y-87630000D03*
X111125000Y-90170000D03*
X111125000Y-92710000D03*
X111125000Y-120650000D03*
X111125000Y-118110000D03*
X111125000Y-115570000D03*
X111125000Y-113030000D03*
X111125000Y-110490000D03*
D13*
X111125000Y-107950000D03*
D15*
X134694997Y-99079999D02*
X128885001Y-93270003D01*
X142855001Y-99079999D02*
X134694997Y-99079999D01*
X128434999Y-90969999D02*
X127635000Y-90170000D01*
X128885001Y-91420001D02*
X128434999Y-90969999D01*
X128885001Y-93270003D02*
X128885001Y-91420001D01*
X144145000Y-97790000D02*
X142855001Y-99079999D01*
X115570000Y-89535000D02*
X125075001Y-99040001D01*
X134455001Y-102070001D02*
X135255000Y-102870000D01*
X117475000Y-83820000D02*
X115570000Y-85725000D01*
X115570000Y-85725000D02*
X115570000Y-89535000D01*
X125075001Y-99040001D02*
X131425001Y-99040001D01*
X131425001Y-99040001D02*
X134455001Y-102070001D01*
X128625035Y-93999999D02*
X134955036Y-100330000D01*
X127074997Y-93999999D02*
X128625035Y-93999999D01*
X120015000Y-86940002D02*
X127074997Y-93999999D01*
X134955036Y-100330000D02*
X135255000Y-100330000D01*
X120015000Y-86360000D02*
X120015000Y-86940002D01*
X136386370Y-100330000D02*
X135255000Y-100330000D01*
X143529002Y-100330000D02*
X136386370Y-100330000D01*
X145445001Y-98414001D02*
X143529002Y-100330000D01*
X145445001Y-91470001D02*
X145445001Y-98414001D01*
X144145000Y-90170000D02*
X145445001Y-91470001D01*
X134004999Y-96539999D02*
X134455001Y-96990001D01*
X134004999Y-89554999D02*
X134004999Y-96539999D01*
X128270000Y-83820000D02*
X134004999Y-89554999D01*
X134455001Y-96990001D02*
X135255000Y-97790000D01*
X120015000Y-83820000D02*
X128270000Y-83820000D01*
X128235001Y-78759999D02*
X131445000Y-81969998D01*
X111125000Y-85090000D02*
X117455001Y-78759999D01*
X117455001Y-78759999D02*
X128235001Y-78759999D01*
X131445000Y-83820000D02*
X135255000Y-87630000D01*
X131445000Y-81969998D02*
X131445000Y-83820000D01*
X125095000Y-107950000D02*
X127635000Y-105410000D01*
X111125000Y-107950000D02*
X125095000Y-107950000D01*
X125095000Y-110490000D02*
X127635000Y-107950000D01*
X111125000Y-110490000D02*
X125095000Y-110490000D01*
D16*
G36*
X185205061Y-72989667D02*
G01*
X184980505Y-72945000D01*
X184589495Y-72945000D01*
X184205997Y-73021282D01*
X183844750Y-73170915D01*
X183519636Y-73388149D01*
X183243149Y-73664636D01*
X183025915Y-73989750D01*
X182876282Y-74350997D01*
X182800000Y-74734495D01*
X182800000Y-75125505D01*
X182876282Y-75509003D01*
X183025915Y-75870250D01*
X183243149Y-76195364D01*
X183519636Y-76471851D01*
X183844750Y-76689085D01*
X184205997Y-76838718D01*
X184589495Y-76915000D01*
X184980505Y-76915000D01*
X185364003Y-76838718D01*
X185725250Y-76689085D01*
X186050364Y-76471851D01*
X186326851Y-76195364D01*
X186544085Y-75870250D01*
X186693718Y-75509003D01*
X186770000Y-75125505D01*
X186770000Y-74734495D01*
X186725333Y-74509939D01*
X187198000Y-74982606D01*
X187198000Y-105357394D01*
X184732394Y-107823000D01*
X155575000Y-107823000D01*
X155550224Y-107825440D01*
X155526399Y-107832667D01*
X155504443Y-107844403D01*
X155485197Y-107860197D01*
X152945197Y-110400197D01*
X152929403Y-110419443D01*
X152917667Y-110441399D01*
X152910440Y-110465224D01*
X152908000Y-110490000D01*
X152908000Y-125677394D01*
X151800333Y-126785061D01*
X151845000Y-126560505D01*
X151845000Y-126169495D01*
X151768718Y-125785997D01*
X151619085Y-125424750D01*
X151401851Y-125099636D01*
X151125364Y-124823149D01*
X150800250Y-124605915D01*
X150439003Y-124456282D01*
X150055505Y-124380000D01*
X149664495Y-124380000D01*
X149280997Y-124456282D01*
X148919750Y-124605915D01*
X148594636Y-124823149D01*
X148318149Y-125099636D01*
X148100915Y-125424750D01*
X147951282Y-125785997D01*
X147875000Y-126169495D01*
X147875000Y-126560505D01*
X147951282Y-126944003D01*
X148100915Y-127305250D01*
X148318149Y-127630364D01*
X148594636Y-127906851D01*
X148919750Y-128124085D01*
X148965415Y-128143000D01*
X108209585Y-128143000D01*
X108255250Y-128124085D01*
X108580364Y-127906851D01*
X108856851Y-127630364D01*
X109074085Y-127305250D01*
X109223718Y-126944003D01*
X109300000Y-126560505D01*
X109300000Y-126169495D01*
X109223718Y-125785997D01*
X109074085Y-125424750D01*
X108856851Y-125099636D01*
X108580364Y-124823149D01*
X108255250Y-124605915D01*
X107894003Y-124456282D01*
X107510505Y-124380000D01*
X107119495Y-124380000D01*
X106735997Y-124456282D01*
X106374750Y-124605915D01*
X106049636Y-124823149D01*
X105773149Y-125099636D01*
X105563367Y-125413598D01*
X104902000Y-124421548D01*
X104902000Y-93066890D01*
X109683524Y-93066890D01*
X109728175Y-93214099D01*
X109853359Y-93476920D01*
X110027412Y-93710269D01*
X110243645Y-93905178D01*
X110493748Y-94054157D01*
X110768109Y-94151481D01*
X110998000Y-94030814D01*
X110998000Y-92837000D01*
X111252000Y-92837000D01*
X111252000Y-94030814D01*
X111481891Y-94151481D01*
X111756252Y-94054157D01*
X112006355Y-93905178D01*
X112222588Y-93710269D01*
X112396641Y-93476920D01*
X112521825Y-93214099D01*
X112566476Y-93066890D01*
X112445155Y-92837000D01*
X111252000Y-92837000D01*
X110998000Y-92837000D01*
X109804845Y-92837000D01*
X109683524Y-93066890D01*
X104902000Y-93066890D01*
X104902000Y-85090000D01*
X109632815Y-85090000D01*
X109661487Y-85381111D01*
X109746401Y-85661034D01*
X109884294Y-85919014D01*
X110069866Y-86145134D01*
X110295986Y-86330706D01*
X110350791Y-86360000D01*
X110295986Y-86389294D01*
X110069866Y-86574866D01*
X109884294Y-86800986D01*
X109746401Y-87058966D01*
X109661487Y-87338889D01*
X109632815Y-87630000D01*
X109661487Y-87921111D01*
X109746401Y-88201034D01*
X109884294Y-88459014D01*
X110069866Y-88685134D01*
X110295986Y-88870706D01*
X110350791Y-88900000D01*
X110295986Y-88929294D01*
X110069866Y-89114866D01*
X109884294Y-89340986D01*
X109746401Y-89598966D01*
X109661487Y-89878889D01*
X109632815Y-90170000D01*
X109661487Y-90461111D01*
X109746401Y-90741034D01*
X109884294Y-90999014D01*
X110069866Y-91225134D01*
X110295986Y-91410706D01*
X110360523Y-91445201D01*
X110243645Y-91514822D01*
X110027412Y-91709731D01*
X109853359Y-91943080D01*
X109728175Y-92205901D01*
X109683524Y-92353110D01*
X109804845Y-92583000D01*
X110998000Y-92583000D01*
X110998000Y-92563000D01*
X111252000Y-92563000D01*
X111252000Y-92583000D01*
X112445155Y-92583000D01*
X112566476Y-92353110D01*
X112521825Y-92205901D01*
X112396641Y-91943080D01*
X112222588Y-91709731D01*
X112006355Y-91514822D01*
X111889477Y-91445201D01*
X111954014Y-91410706D01*
X112180134Y-91225134D01*
X112365706Y-90999014D01*
X112503599Y-90741034D01*
X112588513Y-90461111D01*
X112617185Y-90170000D01*
X112588513Y-89878889D01*
X112503599Y-89598966D01*
X112365706Y-89340986D01*
X112180134Y-89114866D01*
X111954014Y-88929294D01*
X111899209Y-88900000D01*
X111954014Y-88870706D01*
X112180134Y-88685134D01*
X112365706Y-88459014D01*
X112503599Y-88201034D01*
X112588513Y-87921111D01*
X112617185Y-87630000D01*
X112588513Y-87338889D01*
X112503599Y-87058966D01*
X112365706Y-86800986D01*
X112180134Y-86574866D01*
X111954014Y-86389294D01*
X111899209Y-86360000D01*
X111954014Y-86330706D01*
X112180134Y-86145134D01*
X112365706Y-85919014D01*
X112503599Y-85661034D01*
X112588513Y-85381111D01*
X112617185Y-85090000D01*
X112595612Y-84870966D01*
X116059577Y-81407002D01*
X116154844Y-81407002D01*
X116033524Y-81636890D01*
X116078175Y-81784099D01*
X116203359Y-82046920D01*
X116377412Y-82280269D01*
X116593645Y-82475178D01*
X116710523Y-82544799D01*
X116645986Y-82579294D01*
X116419866Y-82764866D01*
X116234294Y-82990986D01*
X116096401Y-83248966D01*
X116011487Y-83528889D01*
X115982815Y-83820000D01*
X116004388Y-84039033D01*
X114974956Y-85068466D01*
X114941183Y-85096183D01*
X114830589Y-85230942D01*
X114748411Y-85384688D01*
X114697805Y-85551511D01*
X114685000Y-85681524D01*
X114685000Y-85681531D01*
X114680719Y-85725000D01*
X114685000Y-85768469D01*
X114685001Y-89491521D01*
X114680719Y-89535000D01*
X114697805Y-89708490D01*
X114748412Y-89875313D01*
X114830590Y-90029059D01*
X114913468Y-90130046D01*
X114913471Y-90130049D01*
X114941184Y-90163817D01*
X114974952Y-90191530D01*
X124418471Y-99635050D01*
X124446184Y-99668818D01*
X124479952Y-99696531D01*
X124479954Y-99696533D01*
X124494921Y-99708816D01*
X124580942Y-99779412D01*
X124734688Y-99861590D01*
X124901511Y-99912196D01*
X125031524Y-99925001D01*
X125031534Y-99925001D01*
X125075000Y-99929282D01*
X125118466Y-99925001D01*
X126258285Y-99925001D01*
X126220764Y-100048691D01*
X126193057Y-100330000D01*
X126220764Y-100611309D01*
X126302818Y-100881808D01*
X126436068Y-101131101D01*
X126615392Y-101349608D01*
X126833899Y-101528932D01*
X126966858Y-101600000D01*
X126833899Y-101671068D01*
X126615392Y-101850392D01*
X126436068Y-102068899D01*
X126302818Y-102318192D01*
X126220764Y-102588691D01*
X126193057Y-102870000D01*
X126220764Y-103151309D01*
X126302818Y-103421808D01*
X126436068Y-103671101D01*
X126615392Y-103889608D01*
X126833899Y-104068932D01*
X126966858Y-104140000D01*
X126833899Y-104211068D01*
X126615392Y-104390392D01*
X126436068Y-104608899D01*
X126302818Y-104858192D01*
X126220764Y-105128691D01*
X126193057Y-105410000D01*
X126210125Y-105583296D01*
X124728422Y-107065000D01*
X112609625Y-107065000D01*
X112600812Y-106975518D01*
X112564502Y-106855820D01*
X112505537Y-106745506D01*
X112426185Y-106648815D01*
X112329494Y-106569463D01*
X112219180Y-106510498D01*
X112099482Y-106474188D01*
X111975000Y-106461928D01*
X110275000Y-106461928D01*
X110150518Y-106474188D01*
X110030820Y-106510498D01*
X109920506Y-106569463D01*
X109823815Y-106648815D01*
X109744463Y-106745506D01*
X109685498Y-106855820D01*
X109649188Y-106975518D01*
X109636928Y-107100000D01*
X109636928Y-108800000D01*
X109649188Y-108924482D01*
X109685498Y-109044180D01*
X109744463Y-109154494D01*
X109823815Y-109251185D01*
X109920506Y-109330537D01*
X110030820Y-109389502D01*
X110099687Y-109410393D01*
X110069866Y-109434866D01*
X109884294Y-109660986D01*
X109746401Y-109918966D01*
X109661487Y-110198889D01*
X109632815Y-110490000D01*
X109661487Y-110781111D01*
X109746401Y-111061034D01*
X109884294Y-111319014D01*
X110069866Y-111545134D01*
X110295986Y-111730706D01*
X110350791Y-111760000D01*
X110295986Y-111789294D01*
X110069866Y-111974866D01*
X109884294Y-112200986D01*
X109746401Y-112458966D01*
X109661487Y-112738889D01*
X109632815Y-113030000D01*
X109661487Y-113321111D01*
X109746401Y-113601034D01*
X109884294Y-113859014D01*
X110069866Y-114085134D01*
X110295986Y-114270706D01*
X110350791Y-114300000D01*
X110295986Y-114329294D01*
X110069866Y-114514866D01*
X109884294Y-114740986D01*
X109746401Y-114998966D01*
X109661487Y-115278889D01*
X109632815Y-115570000D01*
X109661487Y-115861111D01*
X109746401Y-116141034D01*
X109884294Y-116399014D01*
X110069866Y-116625134D01*
X110295986Y-116810706D01*
X110350791Y-116840000D01*
X110295986Y-116869294D01*
X110069866Y-117054866D01*
X109884294Y-117280986D01*
X109746401Y-117538966D01*
X109661487Y-117818889D01*
X109632815Y-118110000D01*
X109661487Y-118401111D01*
X109746401Y-118681034D01*
X109884294Y-118939014D01*
X110069866Y-119165134D01*
X110295986Y-119350706D01*
X110350791Y-119380000D01*
X110295986Y-119409294D01*
X110069866Y-119594866D01*
X109884294Y-119820986D01*
X109746401Y-120078966D01*
X109661487Y-120358889D01*
X109632815Y-120650000D01*
X109661487Y-120941111D01*
X109746401Y-121221034D01*
X109884294Y-121479014D01*
X110069866Y-121705134D01*
X110295986Y-121890706D01*
X110553966Y-122028599D01*
X110833889Y-122113513D01*
X111052050Y-122135000D01*
X111197950Y-122135000D01*
X111416111Y-122113513D01*
X111696034Y-122028599D01*
X111954014Y-121890706D01*
X112180134Y-121705134D01*
X112365706Y-121479014D01*
X112503599Y-121221034D01*
X112588513Y-120941111D01*
X112617185Y-120650000D01*
X112588513Y-120358889D01*
X112503599Y-120078966D01*
X112365706Y-119820986D01*
X112180134Y-119594866D01*
X111954014Y-119409294D01*
X111899209Y-119380000D01*
X111954014Y-119350706D01*
X112180134Y-119165134D01*
X112365706Y-118939014D01*
X112503599Y-118681034D01*
X112527068Y-118603665D01*
X122390000Y-118603665D01*
X122390000Y-118886335D01*
X122445147Y-119163574D01*
X122553320Y-119424727D01*
X122710363Y-119659759D01*
X122910241Y-119859637D01*
X123145273Y-120016680D01*
X123406426Y-120124853D01*
X123683665Y-120180000D01*
X123966335Y-120180000D01*
X124243574Y-120124853D01*
X124504727Y-120016680D01*
X124739759Y-119859637D01*
X124939637Y-119659759D01*
X125096680Y-119424727D01*
X125204853Y-119163574D01*
X125260000Y-118886335D01*
X125260000Y-118603665D01*
X137630000Y-118603665D01*
X137630000Y-118886335D01*
X137685147Y-119163574D01*
X137793320Y-119424727D01*
X137950363Y-119659759D01*
X138150241Y-119859637D01*
X138385273Y-120016680D01*
X138646426Y-120124853D01*
X138923665Y-120180000D01*
X139206335Y-120180000D01*
X139483574Y-120124853D01*
X139744727Y-120016680D01*
X139979759Y-119859637D01*
X140179637Y-119659759D01*
X140336680Y-119424727D01*
X140444853Y-119163574D01*
X140500000Y-118886335D01*
X140500000Y-118603665D01*
X140444853Y-118326426D01*
X140336680Y-118065273D01*
X140179637Y-117830241D01*
X139979759Y-117630363D01*
X139744727Y-117473320D01*
X139483574Y-117365147D01*
X139206335Y-117310000D01*
X138923665Y-117310000D01*
X138646426Y-117365147D01*
X138385273Y-117473320D01*
X138150241Y-117630363D01*
X137950363Y-117830241D01*
X137793320Y-118065273D01*
X137685147Y-118326426D01*
X137630000Y-118603665D01*
X125260000Y-118603665D01*
X125204853Y-118326426D01*
X125096680Y-118065273D01*
X124939637Y-117830241D01*
X124739759Y-117630363D01*
X124504727Y-117473320D01*
X124243574Y-117365147D01*
X123966335Y-117310000D01*
X123683665Y-117310000D01*
X123406426Y-117365147D01*
X123145273Y-117473320D01*
X122910241Y-117630363D01*
X122710363Y-117830241D01*
X122553320Y-118065273D01*
X122445147Y-118326426D01*
X122390000Y-118603665D01*
X112527068Y-118603665D01*
X112588513Y-118401111D01*
X112617185Y-118110000D01*
X112588513Y-117818889D01*
X112503599Y-117538966D01*
X112365706Y-117280986D01*
X112180134Y-117054866D01*
X111954014Y-116869294D01*
X111899209Y-116840000D01*
X111954014Y-116810706D01*
X112180134Y-116625134D01*
X112365706Y-116399014D01*
X112503599Y-116141034D01*
X112588513Y-115861111D01*
X112617185Y-115570000D01*
X112588513Y-115278889D01*
X112503599Y-114998966D01*
X112365706Y-114740986D01*
X112363011Y-114737702D01*
X123011903Y-114737702D01*
X123083486Y-114981671D01*
X123338996Y-115102571D01*
X123613184Y-115171300D01*
X123895512Y-115185217D01*
X124175130Y-115143787D01*
X124441292Y-115048603D01*
X124566514Y-114981671D01*
X124638097Y-114737702D01*
X138251903Y-114737702D01*
X138323486Y-114981671D01*
X138578996Y-115102571D01*
X138853184Y-115171300D01*
X139135512Y-115185217D01*
X139415130Y-115143787D01*
X139681292Y-115048603D01*
X139806514Y-114981671D01*
X139878097Y-114737702D01*
X139065000Y-113924605D01*
X138251903Y-114737702D01*
X124638097Y-114737702D01*
X123825000Y-113924605D01*
X123011903Y-114737702D01*
X112363011Y-114737702D01*
X112180134Y-114514866D01*
X111954014Y-114329294D01*
X111899209Y-114300000D01*
X111954014Y-114270706D01*
X112180134Y-114085134D01*
X112365706Y-113859014D01*
X112388958Y-113815512D01*
X122384783Y-113815512D01*
X122426213Y-114095130D01*
X122521397Y-114361292D01*
X122588329Y-114486514D01*
X122832298Y-114558097D01*
X123645395Y-113745000D01*
X124004605Y-113745000D01*
X124817702Y-114558097D01*
X125061671Y-114486514D01*
X125182571Y-114231004D01*
X125251300Y-113956816D01*
X125258265Y-113815512D01*
X137624783Y-113815512D01*
X137666213Y-114095130D01*
X137761397Y-114361292D01*
X137828329Y-114486514D01*
X138072298Y-114558097D01*
X138885395Y-113745000D01*
X139244605Y-113745000D01*
X140057702Y-114558097D01*
X140301671Y-114486514D01*
X140422571Y-114231004D01*
X140491300Y-113956816D01*
X140505217Y-113674488D01*
X140463787Y-113394870D01*
X140368603Y-113128708D01*
X140301671Y-113003486D01*
X140057702Y-112931903D01*
X139244605Y-113745000D01*
X138885395Y-113745000D01*
X138072298Y-112931903D01*
X137828329Y-113003486D01*
X137707429Y-113258996D01*
X137638700Y-113533184D01*
X137624783Y-113815512D01*
X125258265Y-113815512D01*
X125265217Y-113674488D01*
X125223787Y-113394870D01*
X125128603Y-113128708D01*
X125061671Y-113003486D01*
X124817702Y-112931903D01*
X124004605Y-113745000D01*
X123645395Y-113745000D01*
X122832298Y-112931903D01*
X122588329Y-113003486D01*
X122467429Y-113258996D01*
X122398700Y-113533184D01*
X122384783Y-113815512D01*
X112388958Y-113815512D01*
X112503599Y-113601034D01*
X112588513Y-113321111D01*
X112617185Y-113030000D01*
X112589834Y-112752298D01*
X123011903Y-112752298D01*
X123825000Y-113565395D01*
X124638097Y-112752298D01*
X138251903Y-112752298D01*
X139065000Y-113565395D01*
X139878097Y-112752298D01*
X139806514Y-112508329D01*
X139551004Y-112387429D01*
X139276816Y-112318700D01*
X138994488Y-112304783D01*
X138714870Y-112346213D01*
X138448708Y-112441397D01*
X138323486Y-112508329D01*
X138251903Y-112752298D01*
X124638097Y-112752298D01*
X124566514Y-112508329D01*
X124311004Y-112387429D01*
X124036816Y-112318700D01*
X123754488Y-112304783D01*
X123474870Y-112346213D01*
X123208708Y-112441397D01*
X123083486Y-112508329D01*
X123011903Y-112752298D01*
X112589834Y-112752298D01*
X112588513Y-112738889D01*
X112503599Y-112458966D01*
X112365706Y-112200986D01*
X112180134Y-111974866D01*
X111954014Y-111789294D01*
X111899209Y-111760000D01*
X111954014Y-111730706D01*
X112180134Y-111545134D01*
X112319759Y-111375000D01*
X125051531Y-111375000D01*
X125095000Y-111379281D01*
X125138469Y-111375000D01*
X125138477Y-111375000D01*
X125268490Y-111362195D01*
X125435313Y-111311589D01*
X125589059Y-111229411D01*
X125723817Y-111118817D01*
X125751534Y-111085044D01*
X127461704Y-109374875D01*
X127564508Y-109385000D01*
X127705492Y-109385000D01*
X127916309Y-109364236D01*
X128186808Y-109282182D01*
X128436101Y-109148932D01*
X128654608Y-108969608D01*
X128833932Y-108751101D01*
X128967182Y-108501808D01*
X129049236Y-108231309D01*
X129076943Y-107950000D01*
X129049236Y-107668691D01*
X128967182Y-107398192D01*
X128833932Y-107148899D01*
X128654608Y-106930392D01*
X128436101Y-106751068D01*
X128303142Y-106680000D01*
X128436101Y-106608932D01*
X128654608Y-106429608D01*
X128833932Y-106211101D01*
X128967182Y-105961808D01*
X129049236Y-105691309D01*
X129076943Y-105410000D01*
X129049236Y-105128691D01*
X128967182Y-104858192D01*
X128833932Y-104608899D01*
X128654608Y-104390392D01*
X128436101Y-104211068D01*
X128303142Y-104140000D01*
X128436101Y-104068932D01*
X128654608Y-103889608D01*
X128833932Y-103671101D01*
X128967182Y-103421808D01*
X129049236Y-103151309D01*
X129076943Y-102870000D01*
X129049236Y-102588691D01*
X128967182Y-102318192D01*
X128833932Y-102068899D01*
X128654608Y-101850392D01*
X128436101Y-101671068D01*
X128303142Y-101600000D01*
X128436101Y-101528932D01*
X128654608Y-101349608D01*
X128833932Y-101131101D01*
X128967182Y-100881808D01*
X129049236Y-100611309D01*
X129076943Y-100330000D01*
X129049236Y-100048691D01*
X129011715Y-99925001D01*
X131058423Y-99925001D01*
X133830125Y-102696704D01*
X133813057Y-102870000D01*
X133840764Y-103151309D01*
X133922818Y-103421808D01*
X134056068Y-103671101D01*
X134235392Y-103889608D01*
X134453899Y-104068932D01*
X134586858Y-104140000D01*
X134453899Y-104211068D01*
X134235392Y-104390392D01*
X134056068Y-104608899D01*
X133922818Y-104858192D01*
X133840764Y-105128691D01*
X133813057Y-105410000D01*
X133840764Y-105691309D01*
X133922818Y-105961808D01*
X134056068Y-106211101D01*
X134235392Y-106429608D01*
X134453899Y-106608932D01*
X134586858Y-106680000D01*
X134453899Y-106751068D01*
X134235392Y-106930392D01*
X134056068Y-107148899D01*
X133922818Y-107398192D01*
X133840764Y-107668691D01*
X133813057Y-107950000D01*
X133840764Y-108231309D01*
X133922818Y-108501808D01*
X134056068Y-108751101D01*
X134235392Y-108969608D01*
X134453899Y-109148932D01*
X134703192Y-109282182D01*
X134973691Y-109364236D01*
X135184508Y-109385000D01*
X135325492Y-109385000D01*
X135536309Y-109364236D01*
X135806808Y-109282182D01*
X136056101Y-109148932D01*
X136274608Y-108969608D01*
X136453932Y-108751101D01*
X136587182Y-108501808D01*
X136669236Y-108231309D01*
X136696943Y-107950000D01*
X136669236Y-107668691D01*
X136587182Y-107398192D01*
X136453932Y-107148899D01*
X136274608Y-106930392D01*
X136056101Y-106751068D01*
X135923142Y-106680000D01*
X136056101Y-106608932D01*
X136274608Y-106429608D01*
X136453932Y-106211101D01*
X136587182Y-105961808D01*
X136669236Y-105691309D01*
X136696943Y-105410000D01*
X136669236Y-105128691D01*
X136587182Y-104858192D01*
X136453932Y-104608899D01*
X136274608Y-104390392D01*
X136056101Y-104211068D01*
X135923142Y-104140000D01*
X136056101Y-104068932D01*
X136274608Y-103889608D01*
X136453932Y-103671101D01*
X136587182Y-103421808D01*
X136669236Y-103151309D01*
X136696943Y-102870000D01*
X136669236Y-102588691D01*
X136587182Y-102318192D01*
X136453932Y-102068899D01*
X136274608Y-101850392D01*
X136056101Y-101671068D01*
X135923142Y-101600000D01*
X136056101Y-101528932D01*
X136274608Y-101349608D01*
X136385078Y-101215000D01*
X143485533Y-101215000D01*
X143529002Y-101219281D01*
X143572471Y-101215000D01*
X143572479Y-101215000D01*
X143702492Y-101202195D01*
X143869315Y-101151589D01*
X144023061Y-101069411D01*
X144157819Y-100958817D01*
X144185536Y-100925044D01*
X146040050Y-99070531D01*
X146073818Y-99042818D01*
X146118042Y-98988932D01*
X146184412Y-98908060D01*
X146266589Y-98754315D01*
X146266590Y-98754314D01*
X146317196Y-98587491D01*
X146330001Y-98457478D01*
X146330001Y-98457470D01*
X146334282Y-98414001D01*
X146330001Y-98370532D01*
X146330001Y-91513467D01*
X146334282Y-91470000D01*
X146330001Y-91426534D01*
X146330001Y-91426524D01*
X146317196Y-91296511D01*
X146266590Y-91129688D01*
X146184412Y-90975942D01*
X146073818Y-90841184D01*
X146040051Y-90813472D01*
X145615612Y-90389033D01*
X145637185Y-90170000D01*
X145608513Y-89878889D01*
X145523599Y-89598966D01*
X145385706Y-89340986D01*
X145200134Y-89114866D01*
X144974014Y-88929294D01*
X144919209Y-88900000D01*
X144974014Y-88870706D01*
X145200134Y-88685134D01*
X145385706Y-88459014D01*
X145523599Y-88201034D01*
X145608513Y-87921111D01*
X145637185Y-87630000D01*
X145608513Y-87338889D01*
X145523599Y-87058966D01*
X145385706Y-86800986D01*
X145200134Y-86574866D01*
X144974014Y-86389294D01*
X144919209Y-86360000D01*
X144974014Y-86330706D01*
X145200134Y-86145134D01*
X145385706Y-85919014D01*
X145523599Y-85661034D01*
X145608513Y-85381111D01*
X145637185Y-85090000D01*
X145608513Y-84798889D01*
X145523599Y-84518966D01*
X145385706Y-84260986D01*
X145200134Y-84034866D01*
X145170313Y-84010393D01*
X145239180Y-83989502D01*
X145349494Y-83930537D01*
X145446185Y-83851185D01*
X145525537Y-83754494D01*
X145584502Y-83644180D01*
X145620812Y-83524482D01*
X145633072Y-83400000D01*
X145633072Y-81700000D01*
X145620812Y-81575518D01*
X145584502Y-81455820D01*
X145525537Y-81345506D01*
X145446185Y-81248815D01*
X145349494Y-81169463D01*
X145239180Y-81110498D01*
X145119482Y-81074188D01*
X144995000Y-81061928D01*
X143295000Y-81061928D01*
X143170518Y-81074188D01*
X143050820Y-81110498D01*
X142940506Y-81169463D01*
X142843815Y-81248815D01*
X142764463Y-81345506D01*
X142705498Y-81455820D01*
X142669188Y-81575518D01*
X142656928Y-81700000D01*
X142656928Y-83400000D01*
X142669188Y-83524482D01*
X142705498Y-83644180D01*
X142764463Y-83754494D01*
X142843815Y-83851185D01*
X142940506Y-83930537D01*
X143050820Y-83989502D01*
X143119687Y-84010393D01*
X143089866Y-84034866D01*
X142904294Y-84260986D01*
X142766401Y-84518966D01*
X142681487Y-84798889D01*
X142652815Y-85090000D01*
X142681487Y-85381111D01*
X142766401Y-85661034D01*
X142904294Y-85919014D01*
X143089866Y-86145134D01*
X143315986Y-86330706D01*
X143370791Y-86360000D01*
X143315986Y-86389294D01*
X143089866Y-86574866D01*
X142904294Y-86800986D01*
X142766401Y-87058966D01*
X142681487Y-87338889D01*
X142652815Y-87630000D01*
X142681487Y-87921111D01*
X142766401Y-88201034D01*
X142904294Y-88459014D01*
X143089866Y-88685134D01*
X143315986Y-88870706D01*
X143370791Y-88900000D01*
X143315986Y-88929294D01*
X143089866Y-89114866D01*
X142904294Y-89340986D01*
X142766401Y-89598966D01*
X142681487Y-89878889D01*
X142652815Y-90170000D01*
X142681487Y-90461111D01*
X142766401Y-90741034D01*
X142904294Y-90999014D01*
X143089866Y-91225134D01*
X143315986Y-91410706D01*
X143370791Y-91440000D01*
X143315986Y-91469294D01*
X143089866Y-91654866D01*
X142904294Y-91880986D01*
X142766401Y-92138966D01*
X142681487Y-92418889D01*
X142652815Y-92710000D01*
X142681487Y-93001111D01*
X142766401Y-93281034D01*
X142904294Y-93539014D01*
X143089866Y-93765134D01*
X143315986Y-93950706D01*
X143380523Y-93985201D01*
X143263645Y-94054822D01*
X143047412Y-94249731D01*
X142873359Y-94483080D01*
X142748175Y-94745901D01*
X142703524Y-94893110D01*
X142824845Y-95123000D01*
X144018000Y-95123000D01*
X144018000Y-95103000D01*
X144272000Y-95103000D01*
X144272000Y-95123000D01*
X144292000Y-95123000D01*
X144292000Y-95377000D01*
X144272000Y-95377000D01*
X144272000Y-95397000D01*
X144018000Y-95397000D01*
X144018000Y-95377000D01*
X142824845Y-95377000D01*
X142703524Y-95606890D01*
X142748175Y-95754099D01*
X142873359Y-96016920D01*
X143047412Y-96250269D01*
X143263645Y-96445178D01*
X143380523Y-96514799D01*
X143315986Y-96549294D01*
X143089866Y-96734866D01*
X142904294Y-96960986D01*
X142766401Y-97218966D01*
X142681487Y-97498889D01*
X142652815Y-97790000D01*
X142674388Y-98009034D01*
X142488423Y-98194999D01*
X136631715Y-98194999D01*
X136669236Y-98071309D01*
X136696943Y-97790000D01*
X136669236Y-97508691D01*
X136587182Y-97238192D01*
X136453932Y-96988899D01*
X136274608Y-96770392D01*
X136056101Y-96591068D01*
X135923142Y-96520000D01*
X136056101Y-96448932D01*
X136274608Y-96269608D01*
X136453932Y-96051101D01*
X136587182Y-95801808D01*
X136669236Y-95531309D01*
X136696943Y-95250000D01*
X136669236Y-94968691D01*
X136587182Y-94698192D01*
X136453932Y-94448899D01*
X136274608Y-94230392D01*
X136056101Y-94051068D01*
X135923142Y-93980000D01*
X136056101Y-93908932D01*
X136274608Y-93729608D01*
X136453932Y-93511101D01*
X136587182Y-93261808D01*
X136669236Y-92991309D01*
X136696943Y-92710000D01*
X136669236Y-92428691D01*
X136587182Y-92158192D01*
X136453932Y-91908899D01*
X136274608Y-91690392D01*
X136056101Y-91511068D01*
X135918318Y-91437421D01*
X136110131Y-91322385D01*
X136318519Y-91133414D01*
X136486037Y-90907420D01*
X136606246Y-90653087D01*
X136646904Y-90519039D01*
X136524915Y-90297000D01*
X135382000Y-90297000D01*
X135382000Y-90317000D01*
X135128000Y-90317000D01*
X135128000Y-90297000D01*
X135108000Y-90297000D01*
X135108000Y-90043000D01*
X135128000Y-90043000D01*
X135128000Y-90023000D01*
X135382000Y-90023000D01*
X135382000Y-90043000D01*
X136524915Y-90043000D01*
X136646904Y-89820961D01*
X136606246Y-89686913D01*
X136486037Y-89432580D01*
X136318519Y-89206586D01*
X136110131Y-89017615D01*
X135918318Y-88902579D01*
X136056101Y-88828932D01*
X136274608Y-88649608D01*
X136453932Y-88431101D01*
X136587182Y-88181808D01*
X136669236Y-87911309D01*
X136696943Y-87630000D01*
X136669236Y-87348691D01*
X136587182Y-87078192D01*
X136453932Y-86828899D01*
X136274608Y-86610392D01*
X136056101Y-86431068D01*
X135923142Y-86360000D01*
X136056101Y-86288932D01*
X136274608Y-86109608D01*
X136453932Y-85891101D01*
X136587182Y-85641808D01*
X136669236Y-85371309D01*
X136696943Y-85090000D01*
X136669236Y-84808691D01*
X136587182Y-84538192D01*
X136453932Y-84288899D01*
X136274608Y-84070392D01*
X136056101Y-83891068D01*
X135923142Y-83820000D01*
X136056101Y-83748932D01*
X136274608Y-83569608D01*
X136453932Y-83351101D01*
X136587182Y-83101808D01*
X136669236Y-82831309D01*
X136696943Y-82550000D01*
X136669236Y-82268691D01*
X136587182Y-81998192D01*
X136453932Y-81748899D01*
X136274608Y-81530392D01*
X136056101Y-81351068D01*
X135923142Y-81280000D01*
X136056101Y-81208932D01*
X136274608Y-81029608D01*
X136453932Y-80811101D01*
X136587182Y-80561808D01*
X136669236Y-80291309D01*
X136696943Y-80010000D01*
X136669236Y-79728691D01*
X136587182Y-79458192D01*
X136453932Y-79208899D01*
X136274608Y-78990392D01*
X136056101Y-78811068D01*
X135923142Y-78740000D01*
X136056101Y-78668932D01*
X136274608Y-78489608D01*
X136453932Y-78271101D01*
X136587182Y-78021808D01*
X136669236Y-77751309D01*
X136696943Y-77470000D01*
X136669236Y-77188691D01*
X136587182Y-76918192D01*
X136453932Y-76668899D01*
X136274608Y-76450392D01*
X136056101Y-76271068D01*
X135923142Y-76200000D01*
X136056101Y-76128932D01*
X136274608Y-75949608D01*
X136453932Y-75731101D01*
X136587182Y-75481808D01*
X136669236Y-75211309D01*
X136696943Y-74930000D01*
X136669236Y-74648691D01*
X136587182Y-74378192D01*
X136453932Y-74128899D01*
X136274608Y-73910392D01*
X136056101Y-73731068D01*
X135806808Y-73597818D01*
X135536309Y-73515764D01*
X135325492Y-73495000D01*
X135184508Y-73495000D01*
X134973691Y-73515764D01*
X134703192Y-73597818D01*
X134453899Y-73731068D01*
X134235392Y-73910392D01*
X134056068Y-74128899D01*
X133922818Y-74378192D01*
X133840764Y-74648691D01*
X133813057Y-74930000D01*
X133840764Y-75211309D01*
X133922818Y-75481808D01*
X134056068Y-75731101D01*
X134235392Y-75949608D01*
X134453899Y-76128932D01*
X134586858Y-76200000D01*
X134453899Y-76271068D01*
X134235392Y-76450392D01*
X134056068Y-76668899D01*
X133922818Y-76918192D01*
X133840764Y-77188691D01*
X133813057Y-77470000D01*
X133840764Y-77751309D01*
X133922818Y-78021808D01*
X134056068Y-78271101D01*
X134235392Y-78489608D01*
X134453899Y-78668932D01*
X134586858Y-78740000D01*
X134453899Y-78811068D01*
X134235392Y-78990392D01*
X134056068Y-79208899D01*
X133922818Y-79458192D01*
X133840764Y-79728691D01*
X133813057Y-80010000D01*
X133840764Y-80291309D01*
X133922818Y-80561808D01*
X134056068Y-80811101D01*
X134235392Y-81029608D01*
X134453899Y-81208932D01*
X134586858Y-81280000D01*
X134453899Y-81351068D01*
X134235392Y-81530392D01*
X134056068Y-81748899D01*
X133922818Y-81998192D01*
X133840764Y-82268691D01*
X133813057Y-82550000D01*
X133840764Y-82831309D01*
X133922818Y-83101808D01*
X134056068Y-83351101D01*
X134235392Y-83569608D01*
X134453899Y-83748932D01*
X134586858Y-83820000D01*
X134453899Y-83891068D01*
X134235392Y-84070392D01*
X134056068Y-84288899D01*
X133922818Y-84538192D01*
X133840764Y-84808691D01*
X133826822Y-84950244D01*
X132330000Y-83453422D01*
X132330000Y-82013463D01*
X132334281Y-81969997D01*
X132330000Y-81926531D01*
X132330000Y-81926521D01*
X132317195Y-81796508D01*
X132266589Y-81629685D01*
X132184411Y-81475939D01*
X132073817Y-81341181D01*
X132040050Y-81313469D01*
X128891535Y-78164955D01*
X128891010Y-78164315D01*
X128967182Y-78021808D01*
X129049236Y-77751309D01*
X129076943Y-77470000D01*
X129049236Y-77188691D01*
X128967182Y-76918192D01*
X128833932Y-76668899D01*
X128654608Y-76450392D01*
X128541518Y-76357581D01*
X128559482Y-76355812D01*
X128679180Y-76319502D01*
X128789494Y-76260537D01*
X128886185Y-76181185D01*
X128965537Y-76084494D01*
X129024502Y-75974180D01*
X129060812Y-75854482D01*
X129073072Y-75730000D01*
X129073072Y-74130000D01*
X129060812Y-74005518D01*
X129024502Y-73885820D01*
X128965537Y-73775506D01*
X128886185Y-73678815D01*
X128789494Y-73599463D01*
X128679180Y-73540498D01*
X128559482Y-73504188D01*
X128435000Y-73491928D01*
X126835000Y-73491928D01*
X126710518Y-73504188D01*
X126590820Y-73540498D01*
X126480506Y-73599463D01*
X126383815Y-73678815D01*
X126304463Y-73775506D01*
X126245498Y-73885820D01*
X126209188Y-74005518D01*
X126196928Y-74130000D01*
X126196928Y-75730000D01*
X126209188Y-75854482D01*
X126245498Y-75974180D01*
X126304463Y-76084494D01*
X126383815Y-76181185D01*
X126480506Y-76260537D01*
X126590820Y-76319502D01*
X126710518Y-76355812D01*
X126728482Y-76357581D01*
X126615392Y-76450392D01*
X126436068Y-76668899D01*
X126302818Y-76918192D01*
X126220764Y-77188691D01*
X126193057Y-77470000D01*
X126220764Y-77751309D01*
X126258285Y-77874999D01*
X117498466Y-77874999D01*
X117455000Y-77870718D01*
X117411534Y-77874999D01*
X117411524Y-77874999D01*
X117281511Y-77887804D01*
X117114688Y-77938410D01*
X116960942Y-78020588D01*
X116931453Y-78044789D01*
X116859954Y-78103467D01*
X116859952Y-78103469D01*
X116826184Y-78131182D01*
X116798471Y-78164950D01*
X112540424Y-82422998D01*
X112445156Y-82422998D01*
X112566476Y-82193110D01*
X112521825Y-82045901D01*
X112396641Y-81783080D01*
X112222588Y-81549731D01*
X112138534Y-81473966D01*
X112219180Y-81449502D01*
X112329494Y-81390537D01*
X112426185Y-81311185D01*
X112505537Y-81214494D01*
X112564502Y-81104180D01*
X112600812Y-80984482D01*
X112613072Y-80860000D01*
X112613072Y-79160000D01*
X112600812Y-79035518D01*
X112564502Y-78915820D01*
X112505537Y-78805506D01*
X112426185Y-78708815D01*
X112329494Y-78629463D01*
X112219180Y-78570498D01*
X112099482Y-78534188D01*
X111975000Y-78521928D01*
X110275000Y-78521928D01*
X110150518Y-78534188D01*
X110030820Y-78570498D01*
X109920506Y-78629463D01*
X109823815Y-78708815D01*
X109744463Y-78805506D01*
X109685498Y-78915820D01*
X109649188Y-79035518D01*
X109636928Y-79160000D01*
X109636928Y-80860000D01*
X109649188Y-80984482D01*
X109685498Y-81104180D01*
X109744463Y-81214494D01*
X109823815Y-81311185D01*
X109920506Y-81390537D01*
X110030820Y-81449502D01*
X110111466Y-81473966D01*
X110027412Y-81549731D01*
X109853359Y-81783080D01*
X109728175Y-82045901D01*
X109683524Y-82193110D01*
X109804845Y-82423000D01*
X110998000Y-82423000D01*
X110998000Y-82403000D01*
X111252000Y-82403000D01*
X111252000Y-82423000D01*
X111272000Y-82423000D01*
X111272000Y-82677000D01*
X111252000Y-82677000D01*
X111252000Y-82697000D01*
X110998000Y-82697000D01*
X110998000Y-82677000D01*
X109804845Y-82677000D01*
X109683524Y-82906890D01*
X109728175Y-83054099D01*
X109853359Y-83316920D01*
X110027412Y-83550269D01*
X110243645Y-83745178D01*
X110360523Y-83814799D01*
X110295986Y-83849294D01*
X110069866Y-84034866D01*
X109884294Y-84260986D01*
X109746401Y-84518966D01*
X109661487Y-84798889D01*
X109632815Y-85090000D01*
X104902000Y-85090000D01*
X104902000Y-74997968D01*
X105335013Y-74709293D01*
X105330000Y-74734495D01*
X105330000Y-75125505D01*
X105406282Y-75509003D01*
X105555915Y-75870250D01*
X105773149Y-76195364D01*
X106049636Y-76471851D01*
X106374750Y-76689085D01*
X106735997Y-76838718D01*
X107119495Y-76915000D01*
X107510505Y-76915000D01*
X107894003Y-76838718D01*
X108255250Y-76689085D01*
X108580364Y-76471851D01*
X108856851Y-76195364D01*
X109074085Y-75870250D01*
X109223718Y-75509003D01*
X109300000Y-75125505D01*
X109300000Y-74734495D01*
X109223718Y-74350997D01*
X109074085Y-73989750D01*
X108856851Y-73664636D01*
X108580364Y-73388149D01*
X108255250Y-73170915D01*
X107894003Y-73021282D01*
X107873228Y-73017150D01*
X108623452Y-72517000D01*
X184732394Y-72517000D01*
X185205061Y-72989667D01*
X185205061Y-72989667D01*
G37*
X185205061Y-72989667D02*
X184980505Y-72945000D01*
X184589495Y-72945000D01*
X184205997Y-73021282D01*
X183844750Y-73170915D01*
X183519636Y-73388149D01*
X183243149Y-73664636D01*
X183025915Y-73989750D01*
X182876282Y-74350997D01*
X182800000Y-74734495D01*
X182800000Y-75125505D01*
X182876282Y-75509003D01*
X183025915Y-75870250D01*
X183243149Y-76195364D01*
X183519636Y-76471851D01*
X183844750Y-76689085D01*
X184205997Y-76838718D01*
X184589495Y-76915000D01*
X184980505Y-76915000D01*
X185364003Y-76838718D01*
X185725250Y-76689085D01*
X186050364Y-76471851D01*
X186326851Y-76195364D01*
X186544085Y-75870250D01*
X186693718Y-75509003D01*
X186770000Y-75125505D01*
X186770000Y-74734495D01*
X186725333Y-74509939D01*
X187198000Y-74982606D01*
X187198000Y-105357394D01*
X184732394Y-107823000D01*
X155575000Y-107823000D01*
X155550224Y-107825440D01*
X155526399Y-107832667D01*
X155504443Y-107844403D01*
X155485197Y-107860197D01*
X152945197Y-110400197D01*
X152929403Y-110419443D01*
X152917667Y-110441399D01*
X152910440Y-110465224D01*
X152908000Y-110490000D01*
X152908000Y-125677394D01*
X151800333Y-126785061D01*
X151845000Y-126560505D01*
X151845000Y-126169495D01*
X151768718Y-125785997D01*
X151619085Y-125424750D01*
X151401851Y-125099636D01*
X151125364Y-124823149D01*
X150800250Y-124605915D01*
X150439003Y-124456282D01*
X150055505Y-124380000D01*
X149664495Y-124380000D01*
X149280997Y-124456282D01*
X148919750Y-124605915D01*
X148594636Y-124823149D01*
X148318149Y-125099636D01*
X148100915Y-125424750D01*
X147951282Y-125785997D01*
X147875000Y-126169495D01*
X147875000Y-126560505D01*
X147951282Y-126944003D01*
X148100915Y-127305250D01*
X148318149Y-127630364D01*
X148594636Y-127906851D01*
X148919750Y-128124085D01*
X148965415Y-128143000D01*
X108209585Y-128143000D01*
X108255250Y-128124085D01*
X108580364Y-127906851D01*
X108856851Y-127630364D01*
X109074085Y-127305250D01*
X109223718Y-126944003D01*
X109300000Y-126560505D01*
X109300000Y-126169495D01*
X109223718Y-125785997D01*
X109074085Y-125424750D01*
X108856851Y-125099636D01*
X108580364Y-124823149D01*
X108255250Y-124605915D01*
X107894003Y-124456282D01*
X107510505Y-124380000D01*
X107119495Y-124380000D01*
X106735997Y-124456282D01*
X106374750Y-124605915D01*
X106049636Y-124823149D01*
X105773149Y-125099636D01*
X105563367Y-125413598D01*
X104902000Y-124421548D01*
X104902000Y-93066890D01*
X109683524Y-93066890D01*
X109728175Y-93214099D01*
X109853359Y-93476920D01*
X110027412Y-93710269D01*
X110243645Y-93905178D01*
X110493748Y-94054157D01*
X110768109Y-94151481D01*
X110998000Y-94030814D01*
X110998000Y-92837000D01*
X111252000Y-92837000D01*
X111252000Y-94030814D01*
X111481891Y-94151481D01*
X111756252Y-94054157D01*
X112006355Y-93905178D01*
X112222588Y-93710269D01*
X112396641Y-93476920D01*
X112521825Y-93214099D01*
X112566476Y-93066890D01*
X112445155Y-92837000D01*
X111252000Y-92837000D01*
X110998000Y-92837000D01*
X109804845Y-92837000D01*
X109683524Y-93066890D01*
X104902000Y-93066890D01*
X104902000Y-85090000D01*
X109632815Y-85090000D01*
X109661487Y-85381111D01*
X109746401Y-85661034D01*
X109884294Y-85919014D01*
X110069866Y-86145134D01*
X110295986Y-86330706D01*
X110350791Y-86360000D01*
X110295986Y-86389294D01*
X110069866Y-86574866D01*
X109884294Y-86800986D01*
X109746401Y-87058966D01*
X109661487Y-87338889D01*
X109632815Y-87630000D01*
X109661487Y-87921111D01*
X109746401Y-88201034D01*
X109884294Y-88459014D01*
X110069866Y-88685134D01*
X110295986Y-88870706D01*
X110350791Y-88900000D01*
X110295986Y-88929294D01*
X110069866Y-89114866D01*
X109884294Y-89340986D01*
X109746401Y-89598966D01*
X109661487Y-89878889D01*
X109632815Y-90170000D01*
X109661487Y-90461111D01*
X109746401Y-90741034D01*
X109884294Y-90999014D01*
X110069866Y-91225134D01*
X110295986Y-91410706D01*
X110360523Y-91445201D01*
X110243645Y-91514822D01*
X110027412Y-91709731D01*
X109853359Y-91943080D01*
X109728175Y-92205901D01*
X109683524Y-92353110D01*
X109804845Y-92583000D01*
X110998000Y-92583000D01*
X110998000Y-92563000D01*
X111252000Y-92563000D01*
X111252000Y-92583000D01*
X112445155Y-92583000D01*
X112566476Y-92353110D01*
X112521825Y-92205901D01*
X112396641Y-91943080D01*
X112222588Y-91709731D01*
X112006355Y-91514822D01*
X111889477Y-91445201D01*
X111954014Y-91410706D01*
X112180134Y-91225134D01*
X112365706Y-90999014D01*
X112503599Y-90741034D01*
X112588513Y-90461111D01*
X112617185Y-90170000D01*
X112588513Y-89878889D01*
X112503599Y-89598966D01*
X112365706Y-89340986D01*
X112180134Y-89114866D01*
X111954014Y-88929294D01*
X111899209Y-88900000D01*
X111954014Y-88870706D01*
X112180134Y-88685134D01*
X112365706Y-88459014D01*
X112503599Y-88201034D01*
X112588513Y-87921111D01*
X112617185Y-87630000D01*
X112588513Y-87338889D01*
X112503599Y-87058966D01*
X112365706Y-86800986D01*
X112180134Y-86574866D01*
X111954014Y-86389294D01*
X111899209Y-86360000D01*
X111954014Y-86330706D01*
X112180134Y-86145134D01*
X112365706Y-85919014D01*
X112503599Y-85661034D01*
X112588513Y-85381111D01*
X112617185Y-85090000D01*
X112595612Y-84870966D01*
X116059577Y-81407002D01*
X116154844Y-81407002D01*
X116033524Y-81636890D01*
X116078175Y-81784099D01*
X116203359Y-82046920D01*
X116377412Y-82280269D01*
X116593645Y-82475178D01*
X116710523Y-82544799D01*
X116645986Y-82579294D01*
X116419866Y-82764866D01*
X116234294Y-82990986D01*
X116096401Y-83248966D01*
X116011487Y-83528889D01*
X115982815Y-83820000D01*
X116004388Y-84039033D01*
X114974956Y-85068466D01*
X114941183Y-85096183D01*
X114830589Y-85230942D01*
X114748411Y-85384688D01*
X114697805Y-85551511D01*
X114685000Y-85681524D01*
X114685000Y-85681531D01*
X114680719Y-85725000D01*
X114685000Y-85768469D01*
X114685001Y-89491521D01*
X114680719Y-89535000D01*
X114697805Y-89708490D01*
X114748412Y-89875313D01*
X114830590Y-90029059D01*
X114913468Y-90130046D01*
X114913471Y-90130049D01*
X114941184Y-90163817D01*
X114974952Y-90191530D01*
X124418471Y-99635050D01*
X124446184Y-99668818D01*
X124479952Y-99696531D01*
X124479954Y-99696533D01*
X124494921Y-99708816D01*
X124580942Y-99779412D01*
X124734688Y-99861590D01*
X124901511Y-99912196D01*
X125031524Y-99925001D01*
X125031534Y-99925001D01*
X125075000Y-99929282D01*
X125118466Y-99925001D01*
X126258285Y-99925001D01*
X126220764Y-100048691D01*
X126193057Y-100330000D01*
X126220764Y-100611309D01*
X126302818Y-100881808D01*
X126436068Y-101131101D01*
X126615392Y-101349608D01*
X126833899Y-101528932D01*
X126966858Y-101600000D01*
X126833899Y-101671068D01*
X126615392Y-101850392D01*
X126436068Y-102068899D01*
X126302818Y-102318192D01*
X126220764Y-102588691D01*
X126193057Y-102870000D01*
X126220764Y-103151309D01*
X126302818Y-103421808D01*
X126436068Y-103671101D01*
X126615392Y-103889608D01*
X126833899Y-104068932D01*
X126966858Y-104140000D01*
X126833899Y-104211068D01*
X126615392Y-104390392D01*
X126436068Y-104608899D01*
X126302818Y-104858192D01*
X126220764Y-105128691D01*
X126193057Y-105410000D01*
X126210125Y-105583296D01*
X124728422Y-107065000D01*
X112609625Y-107065000D01*
X112600812Y-106975518D01*
X112564502Y-106855820D01*
X112505537Y-106745506D01*
X112426185Y-106648815D01*
X112329494Y-106569463D01*
X112219180Y-106510498D01*
X112099482Y-106474188D01*
X111975000Y-106461928D01*
X110275000Y-106461928D01*
X110150518Y-106474188D01*
X110030820Y-106510498D01*
X109920506Y-106569463D01*
X109823815Y-106648815D01*
X109744463Y-106745506D01*
X109685498Y-106855820D01*
X109649188Y-106975518D01*
X109636928Y-107100000D01*
X109636928Y-108800000D01*
X109649188Y-108924482D01*
X109685498Y-109044180D01*
X109744463Y-109154494D01*
X109823815Y-109251185D01*
X109920506Y-109330537D01*
X110030820Y-109389502D01*
X110099687Y-109410393D01*
X110069866Y-109434866D01*
X109884294Y-109660986D01*
X109746401Y-109918966D01*
X109661487Y-110198889D01*
X109632815Y-110490000D01*
X109661487Y-110781111D01*
X109746401Y-111061034D01*
X109884294Y-111319014D01*
X110069866Y-111545134D01*
X110295986Y-111730706D01*
X110350791Y-111760000D01*
X110295986Y-111789294D01*
X110069866Y-111974866D01*
X109884294Y-112200986D01*
X109746401Y-112458966D01*
X109661487Y-112738889D01*
X109632815Y-113030000D01*
X109661487Y-113321111D01*
X109746401Y-113601034D01*
X109884294Y-113859014D01*
X110069866Y-114085134D01*
X110295986Y-114270706D01*
X110350791Y-114300000D01*
X110295986Y-114329294D01*
X110069866Y-114514866D01*
X109884294Y-114740986D01*
X109746401Y-114998966D01*
X109661487Y-115278889D01*
X109632815Y-115570000D01*
X109661487Y-115861111D01*
X109746401Y-116141034D01*
X109884294Y-116399014D01*
X110069866Y-116625134D01*
X110295986Y-116810706D01*
X110350791Y-116840000D01*
X110295986Y-116869294D01*
X110069866Y-117054866D01*
X109884294Y-117280986D01*
X109746401Y-117538966D01*
X109661487Y-117818889D01*
X109632815Y-118110000D01*
X109661487Y-118401111D01*
X109746401Y-118681034D01*
X109884294Y-118939014D01*
X110069866Y-119165134D01*
X110295986Y-119350706D01*
X110350791Y-119380000D01*
X110295986Y-119409294D01*
X110069866Y-119594866D01*
X109884294Y-119820986D01*
X109746401Y-120078966D01*
X109661487Y-120358889D01*
X109632815Y-120650000D01*
X109661487Y-120941111D01*
X109746401Y-121221034D01*
X109884294Y-121479014D01*
X110069866Y-121705134D01*
X110295986Y-121890706D01*
X110553966Y-122028599D01*
X110833889Y-122113513D01*
X111052050Y-122135000D01*
X111197950Y-122135000D01*
X111416111Y-122113513D01*
X111696034Y-122028599D01*
X111954014Y-121890706D01*
X112180134Y-121705134D01*
X112365706Y-121479014D01*
X112503599Y-121221034D01*
X112588513Y-120941111D01*
X112617185Y-120650000D01*
X112588513Y-120358889D01*
X112503599Y-120078966D01*
X112365706Y-119820986D01*
X112180134Y-119594866D01*
X111954014Y-119409294D01*
X111899209Y-119380000D01*
X111954014Y-119350706D01*
X112180134Y-119165134D01*
X112365706Y-118939014D01*
X112503599Y-118681034D01*
X112527068Y-118603665D01*
X122390000Y-118603665D01*
X122390000Y-118886335D01*
X122445147Y-119163574D01*
X122553320Y-119424727D01*
X122710363Y-119659759D01*
X122910241Y-119859637D01*
X123145273Y-120016680D01*
X123406426Y-120124853D01*
X123683665Y-120180000D01*
X123966335Y-120180000D01*
X124243574Y-120124853D01*
X124504727Y-120016680D01*
X124739759Y-119859637D01*
X124939637Y-119659759D01*
X125096680Y-119424727D01*
X125204853Y-119163574D01*
X125260000Y-118886335D01*
X125260000Y-118603665D01*
X137630000Y-118603665D01*
X137630000Y-118886335D01*
X137685147Y-119163574D01*
X137793320Y-119424727D01*
X137950363Y-119659759D01*
X138150241Y-119859637D01*
X138385273Y-120016680D01*
X138646426Y-120124853D01*
X138923665Y-120180000D01*
X139206335Y-120180000D01*
X139483574Y-120124853D01*
X139744727Y-120016680D01*
X139979759Y-119859637D01*
X140179637Y-119659759D01*
X140336680Y-119424727D01*
X140444853Y-119163574D01*
X140500000Y-118886335D01*
X140500000Y-118603665D01*
X140444853Y-118326426D01*
X140336680Y-118065273D01*
X140179637Y-117830241D01*
X139979759Y-117630363D01*
X139744727Y-117473320D01*
X139483574Y-117365147D01*
X139206335Y-117310000D01*
X138923665Y-117310000D01*
X138646426Y-117365147D01*
X138385273Y-117473320D01*
X138150241Y-117630363D01*
X137950363Y-117830241D01*
X137793320Y-118065273D01*
X137685147Y-118326426D01*
X137630000Y-118603665D01*
X125260000Y-118603665D01*
X125204853Y-118326426D01*
X125096680Y-118065273D01*
X124939637Y-117830241D01*
X124739759Y-117630363D01*
X124504727Y-117473320D01*
X124243574Y-117365147D01*
X123966335Y-117310000D01*
X123683665Y-117310000D01*
X123406426Y-117365147D01*
X123145273Y-117473320D01*
X122910241Y-117630363D01*
X122710363Y-117830241D01*
X122553320Y-118065273D01*
X122445147Y-118326426D01*
X122390000Y-118603665D01*
X112527068Y-118603665D01*
X112588513Y-118401111D01*
X112617185Y-118110000D01*
X112588513Y-117818889D01*
X112503599Y-117538966D01*
X112365706Y-117280986D01*
X112180134Y-117054866D01*
X111954014Y-116869294D01*
X111899209Y-116840000D01*
X111954014Y-116810706D01*
X112180134Y-116625134D01*
X112365706Y-116399014D01*
X112503599Y-116141034D01*
X112588513Y-115861111D01*
X112617185Y-115570000D01*
X112588513Y-115278889D01*
X112503599Y-114998966D01*
X112365706Y-114740986D01*
X112363011Y-114737702D01*
X123011903Y-114737702D01*
X123083486Y-114981671D01*
X123338996Y-115102571D01*
X123613184Y-115171300D01*
X123895512Y-115185217D01*
X124175130Y-115143787D01*
X124441292Y-115048603D01*
X124566514Y-114981671D01*
X124638097Y-114737702D01*
X138251903Y-114737702D01*
X138323486Y-114981671D01*
X138578996Y-115102571D01*
X138853184Y-115171300D01*
X139135512Y-115185217D01*
X139415130Y-115143787D01*
X139681292Y-115048603D01*
X139806514Y-114981671D01*
X139878097Y-114737702D01*
X139065000Y-113924605D01*
X138251903Y-114737702D01*
X124638097Y-114737702D01*
X123825000Y-113924605D01*
X123011903Y-114737702D01*
X112363011Y-114737702D01*
X112180134Y-114514866D01*
X111954014Y-114329294D01*
X111899209Y-114300000D01*
X111954014Y-114270706D01*
X112180134Y-114085134D01*
X112365706Y-113859014D01*
X112388958Y-113815512D01*
X122384783Y-113815512D01*
X122426213Y-114095130D01*
X122521397Y-114361292D01*
X122588329Y-114486514D01*
X122832298Y-114558097D01*
X123645395Y-113745000D01*
X124004605Y-113745000D01*
X124817702Y-114558097D01*
X125061671Y-114486514D01*
X125182571Y-114231004D01*
X125251300Y-113956816D01*
X125258265Y-113815512D01*
X137624783Y-113815512D01*
X137666213Y-114095130D01*
X137761397Y-114361292D01*
X137828329Y-114486514D01*
X138072298Y-114558097D01*
X138885395Y-113745000D01*
X139244605Y-113745000D01*
X140057702Y-114558097D01*
X140301671Y-114486514D01*
X140422571Y-114231004D01*
X140491300Y-113956816D01*
X140505217Y-113674488D01*
X140463787Y-113394870D01*
X140368603Y-113128708D01*
X140301671Y-113003486D01*
X140057702Y-112931903D01*
X139244605Y-113745000D01*
X138885395Y-113745000D01*
X138072298Y-112931903D01*
X137828329Y-113003486D01*
X137707429Y-113258996D01*
X137638700Y-113533184D01*
X137624783Y-113815512D01*
X125258265Y-113815512D01*
X125265217Y-113674488D01*
X125223787Y-113394870D01*
X125128603Y-113128708D01*
X125061671Y-113003486D01*
X124817702Y-112931903D01*
X124004605Y-113745000D01*
X123645395Y-113745000D01*
X122832298Y-112931903D01*
X122588329Y-113003486D01*
X122467429Y-113258996D01*
X122398700Y-113533184D01*
X122384783Y-113815512D01*
X112388958Y-113815512D01*
X112503599Y-113601034D01*
X112588513Y-113321111D01*
X112617185Y-113030000D01*
X112589834Y-112752298D01*
X123011903Y-112752298D01*
X123825000Y-113565395D01*
X124638097Y-112752298D01*
X138251903Y-112752298D01*
X139065000Y-113565395D01*
X139878097Y-112752298D01*
X139806514Y-112508329D01*
X139551004Y-112387429D01*
X139276816Y-112318700D01*
X138994488Y-112304783D01*
X138714870Y-112346213D01*
X138448708Y-112441397D01*
X138323486Y-112508329D01*
X138251903Y-112752298D01*
X124638097Y-112752298D01*
X124566514Y-112508329D01*
X124311004Y-112387429D01*
X124036816Y-112318700D01*
X123754488Y-112304783D01*
X123474870Y-112346213D01*
X123208708Y-112441397D01*
X123083486Y-112508329D01*
X123011903Y-112752298D01*
X112589834Y-112752298D01*
X112588513Y-112738889D01*
X112503599Y-112458966D01*
X112365706Y-112200986D01*
X112180134Y-111974866D01*
X111954014Y-111789294D01*
X111899209Y-111760000D01*
X111954014Y-111730706D01*
X112180134Y-111545134D01*
X112319759Y-111375000D01*
X125051531Y-111375000D01*
X125095000Y-111379281D01*
X125138469Y-111375000D01*
X125138477Y-111375000D01*
X125268490Y-111362195D01*
X125435313Y-111311589D01*
X125589059Y-111229411D01*
X125723817Y-111118817D01*
X125751534Y-111085044D01*
X127461704Y-109374875D01*
X127564508Y-109385000D01*
X127705492Y-109385000D01*
X127916309Y-109364236D01*
X128186808Y-109282182D01*
X128436101Y-109148932D01*
X128654608Y-108969608D01*
X128833932Y-108751101D01*
X128967182Y-108501808D01*
X129049236Y-108231309D01*
X129076943Y-107950000D01*
X129049236Y-107668691D01*
X128967182Y-107398192D01*
X128833932Y-107148899D01*
X128654608Y-106930392D01*
X128436101Y-106751068D01*
X128303142Y-106680000D01*
X128436101Y-106608932D01*
X128654608Y-106429608D01*
X128833932Y-106211101D01*
X128967182Y-105961808D01*
X129049236Y-105691309D01*
X129076943Y-105410000D01*
X129049236Y-105128691D01*
X128967182Y-104858192D01*
X128833932Y-104608899D01*
X128654608Y-104390392D01*
X128436101Y-104211068D01*
X128303142Y-104140000D01*
X128436101Y-104068932D01*
X128654608Y-103889608D01*
X128833932Y-103671101D01*
X128967182Y-103421808D01*
X129049236Y-103151309D01*
X129076943Y-102870000D01*
X129049236Y-102588691D01*
X128967182Y-102318192D01*
X128833932Y-102068899D01*
X128654608Y-101850392D01*
X128436101Y-101671068D01*
X128303142Y-101600000D01*
X128436101Y-101528932D01*
X128654608Y-101349608D01*
X128833932Y-101131101D01*
X128967182Y-100881808D01*
X129049236Y-100611309D01*
X129076943Y-100330000D01*
X129049236Y-100048691D01*
X129011715Y-99925001D01*
X131058423Y-99925001D01*
X133830125Y-102696704D01*
X133813057Y-102870000D01*
X133840764Y-103151309D01*
X133922818Y-103421808D01*
X134056068Y-103671101D01*
X134235392Y-103889608D01*
X134453899Y-104068932D01*
X134586858Y-104140000D01*
X134453899Y-104211068D01*
X134235392Y-104390392D01*
X134056068Y-104608899D01*
X133922818Y-104858192D01*
X133840764Y-105128691D01*
X133813057Y-105410000D01*
X133840764Y-105691309D01*
X133922818Y-105961808D01*
X134056068Y-106211101D01*
X134235392Y-106429608D01*
X134453899Y-106608932D01*
X134586858Y-106680000D01*
X134453899Y-106751068D01*
X134235392Y-106930392D01*
X134056068Y-107148899D01*
X133922818Y-107398192D01*
X133840764Y-107668691D01*
X133813057Y-107950000D01*
X133840764Y-108231309D01*
X133922818Y-108501808D01*
X134056068Y-108751101D01*
X134235392Y-108969608D01*
X134453899Y-109148932D01*
X134703192Y-109282182D01*
X134973691Y-109364236D01*
X135184508Y-109385000D01*
X135325492Y-109385000D01*
X135536309Y-109364236D01*
X135806808Y-109282182D01*
X136056101Y-109148932D01*
X136274608Y-108969608D01*
X136453932Y-108751101D01*
X136587182Y-108501808D01*
X136669236Y-108231309D01*
X136696943Y-107950000D01*
X136669236Y-107668691D01*
X136587182Y-107398192D01*
X136453932Y-107148899D01*
X136274608Y-106930392D01*
X136056101Y-106751068D01*
X135923142Y-106680000D01*
X136056101Y-106608932D01*
X136274608Y-106429608D01*
X136453932Y-106211101D01*
X136587182Y-105961808D01*
X136669236Y-105691309D01*
X136696943Y-105410000D01*
X136669236Y-105128691D01*
X136587182Y-104858192D01*
X136453932Y-104608899D01*
X136274608Y-104390392D01*
X136056101Y-104211068D01*
X135923142Y-104140000D01*
X136056101Y-104068932D01*
X136274608Y-103889608D01*
X136453932Y-103671101D01*
X136587182Y-103421808D01*
X136669236Y-103151309D01*
X136696943Y-102870000D01*
X136669236Y-102588691D01*
X136587182Y-102318192D01*
X136453932Y-102068899D01*
X136274608Y-101850392D01*
X136056101Y-101671068D01*
X135923142Y-101600000D01*
X136056101Y-101528932D01*
X136274608Y-101349608D01*
X136385078Y-101215000D01*
X143485533Y-101215000D01*
X143529002Y-101219281D01*
X143572471Y-101215000D01*
X143572479Y-101215000D01*
X143702492Y-101202195D01*
X143869315Y-101151589D01*
X144023061Y-101069411D01*
X144157819Y-100958817D01*
X144185536Y-100925044D01*
X146040050Y-99070531D01*
X146073818Y-99042818D01*
X146118042Y-98988932D01*
X146184412Y-98908060D01*
X146266589Y-98754315D01*
X146266590Y-98754314D01*
X146317196Y-98587491D01*
X146330001Y-98457478D01*
X146330001Y-98457470D01*
X146334282Y-98414001D01*
X146330001Y-98370532D01*
X146330001Y-91513467D01*
X146334282Y-91470000D01*
X146330001Y-91426534D01*
X146330001Y-91426524D01*
X146317196Y-91296511D01*
X146266590Y-91129688D01*
X146184412Y-90975942D01*
X146073818Y-90841184D01*
X146040051Y-90813472D01*
X145615612Y-90389033D01*
X145637185Y-90170000D01*
X145608513Y-89878889D01*
X145523599Y-89598966D01*
X145385706Y-89340986D01*
X145200134Y-89114866D01*
X144974014Y-88929294D01*
X144919209Y-88900000D01*
X144974014Y-88870706D01*
X145200134Y-88685134D01*
X145385706Y-88459014D01*
X145523599Y-88201034D01*
X145608513Y-87921111D01*
X145637185Y-87630000D01*
X145608513Y-87338889D01*
X145523599Y-87058966D01*
X145385706Y-86800986D01*
X145200134Y-86574866D01*
X144974014Y-86389294D01*
X144919209Y-86360000D01*
X144974014Y-86330706D01*
X145200134Y-86145134D01*
X145385706Y-85919014D01*
X145523599Y-85661034D01*
X145608513Y-85381111D01*
X145637185Y-85090000D01*
X145608513Y-84798889D01*
X145523599Y-84518966D01*
X145385706Y-84260986D01*
X145200134Y-84034866D01*
X145170313Y-84010393D01*
X145239180Y-83989502D01*
X145349494Y-83930537D01*
X145446185Y-83851185D01*
X145525537Y-83754494D01*
X145584502Y-83644180D01*
X145620812Y-83524482D01*
X145633072Y-83400000D01*
X145633072Y-81700000D01*
X145620812Y-81575518D01*
X145584502Y-81455820D01*
X145525537Y-81345506D01*
X145446185Y-81248815D01*
X145349494Y-81169463D01*
X145239180Y-81110498D01*
X145119482Y-81074188D01*
X144995000Y-81061928D01*
X143295000Y-81061928D01*
X143170518Y-81074188D01*
X143050820Y-81110498D01*
X142940506Y-81169463D01*
X142843815Y-81248815D01*
X142764463Y-81345506D01*
X142705498Y-81455820D01*
X142669188Y-81575518D01*
X142656928Y-81700000D01*
X142656928Y-83400000D01*
X142669188Y-83524482D01*
X142705498Y-83644180D01*
X142764463Y-83754494D01*
X142843815Y-83851185D01*
X142940506Y-83930537D01*
X143050820Y-83989502D01*
X143119687Y-84010393D01*
X143089866Y-84034866D01*
X142904294Y-84260986D01*
X142766401Y-84518966D01*
X142681487Y-84798889D01*
X142652815Y-85090000D01*
X142681487Y-85381111D01*
X142766401Y-85661034D01*
X142904294Y-85919014D01*
X143089866Y-86145134D01*
X143315986Y-86330706D01*
X143370791Y-86360000D01*
X143315986Y-86389294D01*
X143089866Y-86574866D01*
X142904294Y-86800986D01*
X142766401Y-87058966D01*
X142681487Y-87338889D01*
X142652815Y-87630000D01*
X142681487Y-87921111D01*
X142766401Y-88201034D01*
X142904294Y-88459014D01*
X143089866Y-88685134D01*
X143315986Y-88870706D01*
X143370791Y-88900000D01*
X143315986Y-88929294D01*
X143089866Y-89114866D01*
X142904294Y-89340986D01*
X142766401Y-89598966D01*
X142681487Y-89878889D01*
X142652815Y-90170000D01*
X142681487Y-90461111D01*
X142766401Y-90741034D01*
X142904294Y-90999014D01*
X143089866Y-91225134D01*
X143315986Y-91410706D01*
X143370791Y-91440000D01*
X143315986Y-91469294D01*
X143089866Y-91654866D01*
X142904294Y-91880986D01*
X142766401Y-92138966D01*
X142681487Y-92418889D01*
X142652815Y-92710000D01*
X142681487Y-93001111D01*
X142766401Y-93281034D01*
X142904294Y-93539014D01*
X143089866Y-93765134D01*
X143315986Y-93950706D01*
X143380523Y-93985201D01*
X143263645Y-94054822D01*
X143047412Y-94249731D01*
X142873359Y-94483080D01*
X142748175Y-94745901D01*
X142703524Y-94893110D01*
X142824845Y-95123000D01*
X144018000Y-95123000D01*
X144018000Y-95103000D01*
X144272000Y-95103000D01*
X144272000Y-95123000D01*
X144292000Y-95123000D01*
X144292000Y-95377000D01*
X144272000Y-95377000D01*
X144272000Y-95397000D01*
X144018000Y-95397000D01*
X144018000Y-95377000D01*
X142824845Y-95377000D01*
X142703524Y-95606890D01*
X142748175Y-95754099D01*
X142873359Y-96016920D01*
X143047412Y-96250269D01*
X143263645Y-96445178D01*
X143380523Y-96514799D01*
X143315986Y-96549294D01*
X143089866Y-96734866D01*
X142904294Y-96960986D01*
X142766401Y-97218966D01*
X142681487Y-97498889D01*
X142652815Y-97790000D01*
X142674388Y-98009034D01*
X142488423Y-98194999D01*
X136631715Y-98194999D01*
X136669236Y-98071309D01*
X136696943Y-97790000D01*
X136669236Y-97508691D01*
X136587182Y-97238192D01*
X136453932Y-96988899D01*
X136274608Y-96770392D01*
X136056101Y-96591068D01*
X135923142Y-96520000D01*
X136056101Y-96448932D01*
X136274608Y-96269608D01*
X136453932Y-96051101D01*
X136587182Y-95801808D01*
X136669236Y-95531309D01*
X136696943Y-95250000D01*
X136669236Y-94968691D01*
X136587182Y-94698192D01*
X136453932Y-94448899D01*
X136274608Y-94230392D01*
X136056101Y-94051068D01*
X135923142Y-93980000D01*
X136056101Y-93908932D01*
X136274608Y-93729608D01*
X136453932Y-93511101D01*
X136587182Y-93261808D01*
X136669236Y-92991309D01*
X136696943Y-92710000D01*
X136669236Y-92428691D01*
X136587182Y-92158192D01*
X136453932Y-91908899D01*
X136274608Y-91690392D01*
X136056101Y-91511068D01*
X135918318Y-91437421D01*
X136110131Y-91322385D01*
X136318519Y-91133414D01*
X136486037Y-90907420D01*
X136606246Y-90653087D01*
X136646904Y-90519039D01*
X136524915Y-90297000D01*
X135382000Y-90297000D01*
X135382000Y-90317000D01*
X135128000Y-90317000D01*
X135128000Y-90297000D01*
X135108000Y-90297000D01*
X135108000Y-90043000D01*
X135128000Y-90043000D01*
X135128000Y-90023000D01*
X135382000Y-90023000D01*
X135382000Y-90043000D01*
X136524915Y-90043000D01*
X136646904Y-89820961D01*
X136606246Y-89686913D01*
X136486037Y-89432580D01*
X136318519Y-89206586D01*
X136110131Y-89017615D01*
X135918318Y-88902579D01*
X136056101Y-88828932D01*
X136274608Y-88649608D01*
X136453932Y-88431101D01*
X136587182Y-88181808D01*
X136669236Y-87911309D01*
X136696943Y-87630000D01*
X136669236Y-87348691D01*
X136587182Y-87078192D01*
X136453932Y-86828899D01*
X136274608Y-86610392D01*
X136056101Y-86431068D01*
X135923142Y-86360000D01*
X136056101Y-86288932D01*
X136274608Y-86109608D01*
X136453932Y-85891101D01*
X136587182Y-85641808D01*
X136669236Y-85371309D01*
X136696943Y-85090000D01*
X136669236Y-84808691D01*
X136587182Y-84538192D01*
X136453932Y-84288899D01*
X136274608Y-84070392D01*
X136056101Y-83891068D01*
X135923142Y-83820000D01*
X136056101Y-83748932D01*
X136274608Y-83569608D01*
X136453932Y-83351101D01*
X136587182Y-83101808D01*
X136669236Y-82831309D01*
X136696943Y-82550000D01*
X136669236Y-82268691D01*
X136587182Y-81998192D01*
X136453932Y-81748899D01*
X136274608Y-81530392D01*
X136056101Y-81351068D01*
X135923142Y-81280000D01*
X136056101Y-81208932D01*
X136274608Y-81029608D01*
X136453932Y-80811101D01*
X136587182Y-80561808D01*
X136669236Y-80291309D01*
X136696943Y-80010000D01*
X136669236Y-79728691D01*
X136587182Y-79458192D01*
X136453932Y-79208899D01*
X136274608Y-78990392D01*
X136056101Y-78811068D01*
X135923142Y-78740000D01*
X136056101Y-78668932D01*
X136274608Y-78489608D01*
X136453932Y-78271101D01*
X136587182Y-78021808D01*
X136669236Y-77751309D01*
X136696943Y-77470000D01*
X136669236Y-77188691D01*
X136587182Y-76918192D01*
X136453932Y-76668899D01*
X136274608Y-76450392D01*
X136056101Y-76271068D01*
X135923142Y-76200000D01*
X136056101Y-76128932D01*
X136274608Y-75949608D01*
X136453932Y-75731101D01*
X136587182Y-75481808D01*
X136669236Y-75211309D01*
X136696943Y-74930000D01*
X136669236Y-74648691D01*
X136587182Y-74378192D01*
X136453932Y-74128899D01*
X136274608Y-73910392D01*
X136056101Y-73731068D01*
X135806808Y-73597818D01*
X135536309Y-73515764D01*
X135325492Y-73495000D01*
X135184508Y-73495000D01*
X134973691Y-73515764D01*
X134703192Y-73597818D01*
X134453899Y-73731068D01*
X134235392Y-73910392D01*
X134056068Y-74128899D01*
X133922818Y-74378192D01*
X133840764Y-74648691D01*
X133813057Y-74930000D01*
X133840764Y-75211309D01*
X133922818Y-75481808D01*
X134056068Y-75731101D01*
X134235392Y-75949608D01*
X134453899Y-76128932D01*
X134586858Y-76200000D01*
X134453899Y-76271068D01*
X134235392Y-76450392D01*
X134056068Y-76668899D01*
X133922818Y-76918192D01*
X133840764Y-77188691D01*
X133813057Y-77470000D01*
X133840764Y-77751309D01*
X133922818Y-78021808D01*
X134056068Y-78271101D01*
X134235392Y-78489608D01*
X134453899Y-78668932D01*
X134586858Y-78740000D01*
X134453899Y-78811068D01*
X134235392Y-78990392D01*
X134056068Y-79208899D01*
X133922818Y-79458192D01*
X133840764Y-79728691D01*
X133813057Y-80010000D01*
X133840764Y-80291309D01*
X133922818Y-80561808D01*
X134056068Y-80811101D01*
X134235392Y-81029608D01*
X134453899Y-81208932D01*
X134586858Y-81280000D01*
X134453899Y-81351068D01*
X134235392Y-81530392D01*
X134056068Y-81748899D01*
X133922818Y-81998192D01*
X133840764Y-82268691D01*
X133813057Y-82550000D01*
X133840764Y-82831309D01*
X133922818Y-83101808D01*
X134056068Y-83351101D01*
X134235392Y-83569608D01*
X134453899Y-83748932D01*
X134586858Y-83820000D01*
X134453899Y-83891068D01*
X134235392Y-84070392D01*
X134056068Y-84288899D01*
X133922818Y-84538192D01*
X133840764Y-84808691D01*
X133826822Y-84950244D01*
X132330000Y-83453422D01*
X132330000Y-82013463D01*
X132334281Y-81969997D01*
X132330000Y-81926531D01*
X132330000Y-81926521D01*
X132317195Y-81796508D01*
X132266589Y-81629685D01*
X132184411Y-81475939D01*
X132073817Y-81341181D01*
X132040050Y-81313469D01*
X128891535Y-78164955D01*
X128891010Y-78164315D01*
X128967182Y-78021808D01*
X129049236Y-77751309D01*
X129076943Y-77470000D01*
X129049236Y-77188691D01*
X128967182Y-76918192D01*
X128833932Y-76668899D01*
X128654608Y-76450392D01*
X128541518Y-76357581D01*
X128559482Y-76355812D01*
X128679180Y-76319502D01*
X128789494Y-76260537D01*
X128886185Y-76181185D01*
X128965537Y-76084494D01*
X129024502Y-75974180D01*
X129060812Y-75854482D01*
X129073072Y-75730000D01*
X129073072Y-74130000D01*
X129060812Y-74005518D01*
X129024502Y-73885820D01*
X128965537Y-73775506D01*
X128886185Y-73678815D01*
X128789494Y-73599463D01*
X128679180Y-73540498D01*
X128559482Y-73504188D01*
X128435000Y-73491928D01*
X126835000Y-73491928D01*
X126710518Y-73504188D01*
X126590820Y-73540498D01*
X126480506Y-73599463D01*
X126383815Y-73678815D01*
X126304463Y-73775506D01*
X126245498Y-73885820D01*
X126209188Y-74005518D01*
X126196928Y-74130000D01*
X126196928Y-75730000D01*
X126209188Y-75854482D01*
X126245498Y-75974180D01*
X126304463Y-76084494D01*
X126383815Y-76181185D01*
X126480506Y-76260537D01*
X126590820Y-76319502D01*
X126710518Y-76355812D01*
X126728482Y-76357581D01*
X126615392Y-76450392D01*
X126436068Y-76668899D01*
X126302818Y-76918192D01*
X126220764Y-77188691D01*
X126193057Y-77470000D01*
X126220764Y-77751309D01*
X126258285Y-77874999D01*
X117498466Y-77874999D01*
X117455000Y-77870718D01*
X117411534Y-77874999D01*
X117411524Y-77874999D01*
X117281511Y-77887804D01*
X117114688Y-77938410D01*
X116960942Y-78020588D01*
X116931453Y-78044789D01*
X116859954Y-78103467D01*
X116859952Y-78103469D01*
X116826184Y-78131182D01*
X116798471Y-78164950D01*
X112540424Y-82422998D01*
X112445156Y-82422998D01*
X112566476Y-82193110D01*
X112521825Y-82045901D01*
X112396641Y-81783080D01*
X112222588Y-81549731D01*
X112138534Y-81473966D01*
X112219180Y-81449502D01*
X112329494Y-81390537D01*
X112426185Y-81311185D01*
X112505537Y-81214494D01*
X112564502Y-81104180D01*
X112600812Y-80984482D01*
X112613072Y-80860000D01*
X112613072Y-79160000D01*
X112600812Y-79035518D01*
X112564502Y-78915820D01*
X112505537Y-78805506D01*
X112426185Y-78708815D01*
X112329494Y-78629463D01*
X112219180Y-78570498D01*
X112099482Y-78534188D01*
X111975000Y-78521928D01*
X110275000Y-78521928D01*
X110150518Y-78534188D01*
X110030820Y-78570498D01*
X109920506Y-78629463D01*
X109823815Y-78708815D01*
X109744463Y-78805506D01*
X109685498Y-78915820D01*
X109649188Y-79035518D01*
X109636928Y-79160000D01*
X109636928Y-80860000D01*
X109649188Y-80984482D01*
X109685498Y-81104180D01*
X109744463Y-81214494D01*
X109823815Y-81311185D01*
X109920506Y-81390537D01*
X110030820Y-81449502D01*
X110111466Y-81473966D01*
X110027412Y-81549731D01*
X109853359Y-81783080D01*
X109728175Y-82045901D01*
X109683524Y-82193110D01*
X109804845Y-82423000D01*
X110998000Y-82423000D01*
X110998000Y-82403000D01*
X111252000Y-82403000D01*
X111252000Y-82423000D01*
X111272000Y-82423000D01*
X111272000Y-82677000D01*
X111252000Y-82677000D01*
X111252000Y-82697000D01*
X110998000Y-82697000D01*
X110998000Y-82677000D01*
X109804845Y-82677000D01*
X109683524Y-82906890D01*
X109728175Y-83054099D01*
X109853359Y-83316920D01*
X110027412Y-83550269D01*
X110243645Y-83745178D01*
X110360523Y-83814799D01*
X110295986Y-83849294D01*
X110069866Y-84034866D01*
X109884294Y-84260986D01*
X109746401Y-84518966D01*
X109661487Y-84798889D01*
X109632815Y-85090000D01*
X104902000Y-85090000D01*
X104902000Y-74997968D01*
X105335013Y-74709293D01*
X105330000Y-74734495D01*
X105330000Y-75125505D01*
X105406282Y-75509003D01*
X105555915Y-75870250D01*
X105773149Y-76195364D01*
X106049636Y-76471851D01*
X106374750Y-76689085D01*
X106735997Y-76838718D01*
X107119495Y-76915000D01*
X107510505Y-76915000D01*
X107894003Y-76838718D01*
X108255250Y-76689085D01*
X108580364Y-76471851D01*
X108856851Y-76195364D01*
X109074085Y-75870250D01*
X109223718Y-75509003D01*
X109300000Y-75125505D01*
X109300000Y-74734495D01*
X109223718Y-74350997D01*
X109074085Y-73989750D01*
X108856851Y-73664636D01*
X108580364Y-73388149D01*
X108255250Y-73170915D01*
X107894003Y-73021282D01*
X107873228Y-73017150D01*
X108623452Y-72517000D01*
X184732394Y-72517000D01*
X185205061Y-72989667D01*
G36*
X127762000Y-92583000D02*
G01*
X127782000Y-92583000D01*
X127782000Y-92837000D01*
X127762000Y-92837000D01*
X127762000Y-92857000D01*
X127508000Y-92857000D01*
X127508000Y-92837000D01*
X127488000Y-92837000D01*
X127488000Y-92583000D01*
X127508000Y-92583000D01*
X127508000Y-92563000D01*
X127762000Y-92563000D01*
X127762000Y-92583000D01*
X127762000Y-92583000D01*
G37*
X127762000Y-92583000D02*
X127782000Y-92583000D01*
X127782000Y-92837000D01*
X127762000Y-92837000D01*
X127762000Y-92857000D01*
X127508000Y-92857000D01*
X127508000Y-92837000D01*
X127488000Y-92837000D01*
X127488000Y-92583000D01*
X127508000Y-92583000D01*
X127508000Y-92563000D01*
X127762000Y-92563000D01*
X127762000Y-92583000D01*
G36*
X117602000Y-81153000D02*
G01*
X117622000Y-81153000D01*
X117622000Y-81407000D01*
X117602000Y-81407000D01*
X117602000Y-81427000D01*
X117348000Y-81427000D01*
X117348000Y-81407000D01*
X117328000Y-81407000D01*
X117328000Y-81153000D01*
X117348000Y-81153000D01*
X117348000Y-81133000D01*
X117602000Y-81133000D01*
X117602000Y-81153000D01*
X117602000Y-81153000D01*
G37*
X117602000Y-81153000D02*
X117622000Y-81153000D01*
X117622000Y-81407000D01*
X117602000Y-81407000D01*
X117602000Y-81427000D01*
X117348000Y-81427000D01*
X117348000Y-81407000D01*
X117328000Y-81407000D01*
X117328000Y-81153000D01*
X117348000Y-81153000D01*
X117348000Y-81133000D01*
X117602000Y-81133000D01*
X117602000Y-81153000D01*
M02*
