G04 #@! TF.GenerationSoftware,KiCad,Pcbnew,5.1.4-3.fc30*
G04 #@! TF.CreationDate,2019-09-02T15:50:26-07:00*
G04 #@! TF.ProjectId,AR_20_JW_Rev2,41525f32-305f-44a5-975f-526576322e6b,rev?*
G04 #@! TF.SameCoordinates,Original*
G04 #@! TF.FileFunction,Legend,Top*
G04 #@! TF.FilePolarity,Positive*
%FSLAX46Y46*%
G04 Gerber Fmt 4.6, Leading zero omitted, Abs format (unit mm)*
G04 Created by KiCad (PCBNEW 5.1.4-3.fc30) date 2019-09-02 15:50:26*
%MOMM*%
%LPD*%
G04 APERTURE LIST*
%ADD10C,0.150000*%
%ADD11C,0.120000*%
G04 APERTURE END LIST*
D10*
X108354761Y-117435000D02*
X108402380Y-117292142D01*
X108402380Y-117054047D01*
X108354761Y-116958809D01*
X108307142Y-116911190D01*
X108211904Y-116863571D01*
X108116666Y-116863571D01*
X108021428Y-116911190D01*
X107973809Y-116958809D01*
X107926190Y-117054047D01*
X107878571Y-117244523D01*
X107830952Y-117339761D01*
X107783333Y-117387380D01*
X107688095Y-117435000D01*
X107592857Y-117435000D01*
X107497619Y-117387380D01*
X107450000Y-117339761D01*
X107402380Y-117244523D01*
X107402380Y-117006428D01*
X107450000Y-116863571D01*
X107402380Y-116530238D02*
X108402380Y-116292142D01*
X107688095Y-116101666D01*
X108402380Y-115911190D01*
X107402380Y-115673095D01*
X108402380Y-115292142D02*
X107402380Y-115292142D01*
X107402380Y-114958809D02*
X107402380Y-114387380D01*
X108402380Y-114673095D02*
X107402380Y-114673095D01*
X108307142Y-113482619D02*
X108354761Y-113530238D01*
X108402380Y-113673095D01*
X108402380Y-113768333D01*
X108354761Y-113911190D01*
X108259523Y-114006428D01*
X108164285Y-114054047D01*
X107973809Y-114101666D01*
X107830952Y-114101666D01*
X107640476Y-114054047D01*
X107545238Y-114006428D01*
X107450000Y-113911190D01*
X107402380Y-113768333D01*
X107402380Y-113673095D01*
X107450000Y-113530238D01*
X107497619Y-113482619D01*
X108402380Y-113054047D02*
X107402380Y-113054047D01*
X107878571Y-113054047D02*
X107878571Y-112482619D01*
X108402380Y-112482619D02*
X107402380Y-112482619D01*
X108402380Y-88923571D02*
X107402380Y-88923571D01*
X108402380Y-88447380D02*
X107402380Y-88447380D01*
X108402380Y-87875952D01*
X107402380Y-87875952D01*
X108402380Y-87399761D02*
X107402380Y-87399761D01*
X107402380Y-87018809D01*
X107450000Y-86923571D01*
X107497619Y-86875952D01*
X107592857Y-86828333D01*
X107735714Y-86828333D01*
X107830952Y-86875952D01*
X107878571Y-86923571D01*
X107926190Y-87018809D01*
X107926190Y-87399761D01*
X107402380Y-86399761D02*
X108211904Y-86399761D01*
X108307142Y-86352142D01*
X108354761Y-86304523D01*
X108402380Y-86209285D01*
X108402380Y-86018809D01*
X108354761Y-85923571D01*
X108307142Y-85875952D01*
X108211904Y-85828333D01*
X107402380Y-85828333D01*
X107402380Y-85495000D02*
X107402380Y-84923571D01*
X108402380Y-85209285D02*
X107402380Y-85209285D01*
X125937142Y-72556666D02*
X126413333Y-72556666D01*
X125841904Y-72842380D02*
X126175238Y-71842380D01*
X126508571Y-72842380D01*
X126699047Y-71842380D02*
X127270476Y-71842380D01*
X126984761Y-72842380D02*
X126984761Y-71842380D01*
X127603809Y-72842380D02*
X127603809Y-71842380D01*
X127937142Y-72556666D01*
X128270476Y-71842380D01*
X128270476Y-72842380D01*
X128746666Y-72318571D02*
X129080000Y-72318571D01*
X129222857Y-72842380D02*
X128746666Y-72842380D01*
X128746666Y-71842380D01*
X129222857Y-71842380D01*
X130175238Y-71890000D02*
X130080000Y-71842380D01*
X129937142Y-71842380D01*
X129794285Y-71890000D01*
X129699047Y-71985238D01*
X129651428Y-72080476D01*
X129603809Y-72270952D01*
X129603809Y-72413809D01*
X129651428Y-72604285D01*
X129699047Y-72699523D01*
X129794285Y-72794761D01*
X129937142Y-72842380D01*
X130032380Y-72842380D01*
X130175238Y-72794761D01*
X130222857Y-72747142D01*
X130222857Y-72413809D01*
X130032380Y-72413809D01*
X130603809Y-72556666D02*
X131080000Y-72556666D01*
X130508571Y-72842380D02*
X130841904Y-71842380D01*
X131175238Y-72842380D01*
X131413333Y-71842380D02*
X132032380Y-71842380D01*
X131699047Y-72223333D01*
X131841904Y-72223333D01*
X131937142Y-72270952D01*
X131984761Y-72318571D01*
X132032380Y-72413809D01*
X132032380Y-72651904D01*
X131984761Y-72747142D01*
X131937142Y-72794761D01*
X131841904Y-72842380D01*
X131556190Y-72842380D01*
X131460952Y-72794761D01*
X131413333Y-72747142D01*
X132413333Y-71937619D02*
X132460952Y-71890000D01*
X132556190Y-71842380D01*
X132794285Y-71842380D01*
X132889523Y-71890000D01*
X132937142Y-71937619D01*
X132984761Y-72032857D01*
X132984761Y-72128095D01*
X132937142Y-72270952D01*
X132365714Y-72842380D01*
X132984761Y-72842380D01*
X133556190Y-72270952D02*
X133460952Y-72223333D01*
X133413333Y-72175714D01*
X133365714Y-72080476D01*
X133365714Y-72032857D01*
X133413333Y-71937619D01*
X133460952Y-71890000D01*
X133556190Y-71842380D01*
X133746666Y-71842380D01*
X133841904Y-71890000D01*
X133889523Y-71937619D01*
X133937142Y-72032857D01*
X133937142Y-72080476D01*
X133889523Y-72175714D01*
X133841904Y-72223333D01*
X133746666Y-72270952D01*
X133556190Y-72270952D01*
X133460952Y-72318571D01*
X133413333Y-72366190D01*
X133365714Y-72461428D01*
X133365714Y-72651904D01*
X133413333Y-72747142D01*
X133460952Y-72794761D01*
X133556190Y-72842380D01*
X133746666Y-72842380D01*
X133841904Y-72794761D01*
X133889523Y-72747142D01*
X133937142Y-72651904D01*
X133937142Y-72461428D01*
X133889523Y-72366190D01*
X133841904Y-72318571D01*
X133746666Y-72270952D01*
X134365714Y-72842380D02*
X134365714Y-71842380D01*
X134746666Y-71842380D01*
X134841904Y-71890000D01*
X134889523Y-71937619D01*
X134937142Y-72032857D01*
X134937142Y-72175714D01*
X134889523Y-72270952D01*
X134841904Y-72318571D01*
X134746666Y-72366190D01*
X134365714Y-72366190D01*
X135365714Y-72461428D02*
X136127619Y-72461428D01*
X136603809Y-72842380D02*
X136603809Y-71842380D01*
X136984761Y-71842380D01*
X137080000Y-71890000D01*
X137127619Y-71937619D01*
X137175238Y-72032857D01*
X137175238Y-72175714D01*
X137127619Y-72270952D01*
X137080000Y-72318571D01*
X136984761Y-72366190D01*
X136603809Y-72366190D01*
X137603809Y-71842380D02*
X137603809Y-72651904D01*
X137651428Y-72747142D01*
X137699047Y-72794761D01*
X137794285Y-72842380D01*
X137984761Y-72842380D01*
X138080000Y-72794761D01*
X138127619Y-72747142D01*
X138175238Y-72651904D01*
X138175238Y-71842380D01*
X147677142Y-91447857D02*
X147724761Y-91495476D01*
X147772380Y-91638333D01*
X147772380Y-91733571D01*
X147724761Y-91876428D01*
X147629523Y-91971666D01*
X147534285Y-92019285D01*
X147343809Y-92066904D01*
X147200952Y-92066904D01*
X147010476Y-92019285D01*
X146915238Y-91971666D01*
X146820000Y-91876428D01*
X146772380Y-91733571D01*
X146772380Y-91638333D01*
X146820000Y-91495476D01*
X146867619Y-91447857D01*
X147486666Y-91066904D02*
X147486666Y-90590714D01*
X147772380Y-91162142D02*
X146772380Y-90828809D01*
X147772380Y-90495476D01*
X147772380Y-90162142D02*
X146772380Y-90162142D01*
X147772380Y-89590714D01*
X146772380Y-89590714D01*
X183412380Y-103106666D02*
X184412380Y-102773333D01*
X183412380Y-102440000D01*
X184412380Y-101678095D02*
X183888571Y-101678095D01*
X183793333Y-101725714D01*
X183745714Y-101820952D01*
X183745714Y-102011428D01*
X183793333Y-102106666D01*
X184364761Y-101678095D02*
X184412380Y-101773333D01*
X184412380Y-102011428D01*
X184364761Y-102106666D01*
X184269523Y-102154285D01*
X184174285Y-102154285D01*
X184079047Y-102106666D01*
X184031428Y-102011428D01*
X184031428Y-101773333D01*
X183983809Y-101678095D01*
X184412380Y-101201904D02*
X183745714Y-101201904D01*
X183936190Y-101201904D02*
X183840952Y-101154285D01*
X183793333Y-101106666D01*
X183745714Y-101011428D01*
X183745714Y-100916190D01*
X184412380Y-100582857D02*
X183745714Y-100582857D01*
X183412380Y-100582857D02*
X183460000Y-100630476D01*
X183507619Y-100582857D01*
X183460000Y-100535238D01*
X183412380Y-100582857D01*
X183507619Y-100582857D01*
X184412380Y-99678095D02*
X183888571Y-99678095D01*
X183793333Y-99725714D01*
X183745714Y-99820952D01*
X183745714Y-100011428D01*
X183793333Y-100106666D01*
X184364761Y-99678095D02*
X184412380Y-99773333D01*
X184412380Y-100011428D01*
X184364761Y-100106666D01*
X184269523Y-100154285D01*
X184174285Y-100154285D01*
X184079047Y-100106666D01*
X184031428Y-100011428D01*
X184031428Y-99773333D01*
X183983809Y-99678095D01*
X184412380Y-99201904D02*
X183412380Y-99201904D01*
X183793333Y-99201904D02*
X183745714Y-99106666D01*
X183745714Y-98916190D01*
X183793333Y-98820952D01*
X183840952Y-98773333D01*
X183936190Y-98725714D01*
X184221904Y-98725714D01*
X184317142Y-98773333D01*
X184364761Y-98820952D01*
X184412380Y-98916190D01*
X184412380Y-99106666D01*
X184364761Y-99201904D01*
X184412380Y-98154285D02*
X184364761Y-98249523D01*
X184269523Y-98297142D01*
X183412380Y-98297142D01*
X184364761Y-97392380D02*
X184412380Y-97487619D01*
X184412380Y-97678095D01*
X184364761Y-97773333D01*
X184269523Y-97820952D01*
X183888571Y-97820952D01*
X183793333Y-97773333D01*
X183745714Y-97678095D01*
X183745714Y-97487619D01*
X183793333Y-97392380D01*
X183888571Y-97344761D01*
X183983809Y-97344761D01*
X184079047Y-97820952D01*
X184412380Y-96154285D02*
X183412380Y-96154285D01*
X183745714Y-95678095D02*
X184412380Y-95678095D01*
X183840952Y-95678095D02*
X183793333Y-95630476D01*
X183745714Y-95535238D01*
X183745714Y-95392380D01*
X183793333Y-95297142D01*
X183888571Y-95249523D01*
X184412380Y-95249523D01*
X183745714Y-94916190D02*
X183745714Y-94535238D01*
X183412380Y-94773333D02*
X184269523Y-94773333D01*
X184364761Y-94725714D01*
X184412380Y-94630476D01*
X184412380Y-94535238D01*
X184412380Y-93773333D02*
X183888571Y-93773333D01*
X183793333Y-93820952D01*
X183745714Y-93916190D01*
X183745714Y-94106666D01*
X183793333Y-94201904D01*
X184364761Y-93773333D02*
X184412380Y-93868571D01*
X184412380Y-94106666D01*
X184364761Y-94201904D01*
X184269523Y-94249523D01*
X184174285Y-94249523D01*
X184079047Y-94201904D01*
X184031428Y-94106666D01*
X184031428Y-93868571D01*
X183983809Y-93773333D01*
X184412380Y-93297142D02*
X183412380Y-93297142D01*
X184031428Y-93201904D02*
X184412380Y-92916190D01*
X183745714Y-92916190D02*
X184126666Y-93297142D01*
X184364761Y-92106666D02*
X184412380Y-92201904D01*
X184412380Y-92392380D01*
X184364761Y-92487619D01*
X184269523Y-92535238D01*
X183888571Y-92535238D01*
X183793333Y-92487619D01*
X183745714Y-92392380D01*
X183745714Y-92201904D01*
X183793333Y-92106666D01*
X183888571Y-92059047D01*
X183983809Y-92059047D01*
X184079047Y-92535238D01*
X184317142Y-90297142D02*
X184364761Y-90344761D01*
X184412380Y-90487619D01*
X184412380Y-90582857D01*
X184364761Y-90725714D01*
X184269523Y-90820952D01*
X184174285Y-90868571D01*
X183983809Y-90916190D01*
X183840952Y-90916190D01*
X183650476Y-90868571D01*
X183555238Y-90820952D01*
X183460000Y-90725714D01*
X183412380Y-90582857D01*
X183412380Y-90487619D01*
X183460000Y-90344761D01*
X183507619Y-90297142D01*
X184126666Y-89916190D02*
X184126666Y-89440000D01*
X184412380Y-90011428D02*
X183412380Y-89678095D01*
X184412380Y-89344761D01*
X184412380Y-89011428D02*
X183412380Y-89011428D01*
X184412380Y-88440000D01*
X183412380Y-88440000D01*
X183745714Y-87344761D02*
X183745714Y-86963809D01*
X183412380Y-87201904D02*
X184269523Y-87201904D01*
X184364761Y-87154285D01*
X184412380Y-87059047D01*
X184412380Y-86963809D01*
X184412380Y-86487619D02*
X184364761Y-86582857D01*
X184317142Y-86630476D01*
X184221904Y-86678095D01*
X183936190Y-86678095D01*
X183840952Y-86630476D01*
X183793333Y-86582857D01*
X183745714Y-86487619D01*
X183745714Y-86344761D01*
X183793333Y-86249523D01*
X183840952Y-86201904D01*
X183936190Y-86154285D01*
X184221904Y-86154285D01*
X184317142Y-86201904D01*
X184364761Y-86249523D01*
X184412380Y-86344761D01*
X184412380Y-86487619D01*
X184126666Y-85011428D02*
X184126666Y-84535238D01*
X184412380Y-85106666D02*
X183412380Y-84773333D01*
X184412380Y-84440000D01*
X183412380Y-84249523D02*
X183412380Y-83678095D01*
X184412380Y-83963809D02*
X183412380Y-83963809D01*
X184412380Y-83344761D02*
X183412380Y-83344761D01*
X184126666Y-83011428D01*
X183412380Y-82678095D01*
X184412380Y-82678095D01*
X183888571Y-82201904D02*
X183888571Y-81868571D01*
X184412380Y-81725714D02*
X184412380Y-82201904D01*
X183412380Y-82201904D01*
X183412380Y-81725714D01*
X183460000Y-80773333D02*
X183412380Y-80868571D01*
X183412380Y-81011428D01*
X183460000Y-81154285D01*
X183555238Y-81249523D01*
X183650476Y-81297142D01*
X183840952Y-81344761D01*
X183983809Y-81344761D01*
X184174285Y-81297142D01*
X184269523Y-81249523D01*
X184364761Y-81154285D01*
X184412380Y-81011428D01*
X184412380Y-80916190D01*
X184364761Y-80773333D01*
X184317142Y-80725714D01*
X183983809Y-80725714D01*
X183983809Y-80916190D01*
X184126666Y-80344761D02*
X184126666Y-79868571D01*
X184412380Y-80440000D02*
X183412380Y-80106666D01*
X184412380Y-79773333D01*
X185062380Y-97035238D02*
X185776666Y-97035238D01*
X185919523Y-97082857D01*
X186014761Y-97178095D01*
X186062380Y-97320952D01*
X186062380Y-97416190D01*
X185062380Y-96654285D02*
X186062380Y-96416190D01*
X185348095Y-96225714D01*
X186062380Y-96035238D01*
X185062380Y-95797142D01*
X186062380Y-94892380D02*
X186062380Y-95463809D01*
X186062380Y-95178095D02*
X185062380Y-95178095D01*
X185205238Y-95273333D01*
X185300476Y-95368571D01*
X185348095Y-95463809D01*
X186062380Y-94416190D02*
X186062380Y-94225714D01*
X186014761Y-94130476D01*
X185967142Y-94082857D01*
X185824285Y-93987619D01*
X185633809Y-93940000D01*
X185252857Y-93940000D01*
X185157619Y-93987619D01*
X185110000Y-94035238D01*
X185062380Y-94130476D01*
X185062380Y-94320952D01*
X185110000Y-94416190D01*
X185157619Y-94463809D01*
X185252857Y-94511428D01*
X185490952Y-94511428D01*
X185586190Y-94463809D01*
X185633809Y-94416190D01*
X185681428Y-94320952D01*
X185681428Y-94130476D01*
X185633809Y-94035238D01*
X185586190Y-93987619D01*
X185490952Y-93940000D01*
X186062380Y-92178095D02*
X185586190Y-92511428D01*
X186062380Y-92749523D02*
X185062380Y-92749523D01*
X185062380Y-92368571D01*
X185110000Y-92273333D01*
X185157619Y-92225714D01*
X185252857Y-92178095D01*
X185395714Y-92178095D01*
X185490952Y-92225714D01*
X185538571Y-92273333D01*
X185586190Y-92368571D01*
X185586190Y-92749523D01*
X186014761Y-91368571D02*
X186062380Y-91463809D01*
X186062380Y-91654285D01*
X186014761Y-91749523D01*
X185919523Y-91797142D01*
X185538571Y-91797142D01*
X185443333Y-91749523D01*
X185395714Y-91654285D01*
X185395714Y-91463809D01*
X185443333Y-91368571D01*
X185538571Y-91320952D01*
X185633809Y-91320952D01*
X185729047Y-91797142D01*
X185395714Y-90987619D02*
X186062380Y-90749523D01*
X185395714Y-90511428D01*
X185967142Y-90130476D02*
X186014761Y-90082857D01*
X186062380Y-90130476D01*
X186014761Y-90178095D01*
X185967142Y-90130476D01*
X186062380Y-90130476D01*
X185157619Y-88940000D02*
X185110000Y-88892380D01*
X185062380Y-88797142D01*
X185062380Y-88559047D01*
X185110000Y-88463809D01*
X185157619Y-88416190D01*
X185252857Y-88368571D01*
X185348095Y-88368571D01*
X185490952Y-88416190D01*
X186062380Y-88987619D01*
X186062380Y-88368571D01*
X185967142Y-87940000D02*
X186014761Y-87892380D01*
X186062380Y-87940000D01*
X186014761Y-87987619D01*
X185967142Y-87940000D01*
X186062380Y-87940000D01*
X185062380Y-87273333D02*
X185062380Y-87178095D01*
X185110000Y-87082857D01*
X185157619Y-87035238D01*
X185252857Y-86987619D01*
X185443333Y-86940000D01*
X185681428Y-86940000D01*
X185871904Y-86987619D01*
X185967142Y-87035238D01*
X186014761Y-87082857D01*
X186062380Y-87178095D01*
X186062380Y-87273333D01*
X186014761Y-87368571D01*
X185967142Y-87416190D01*
X185871904Y-87463809D01*
X185681428Y-87511428D01*
X185443333Y-87511428D01*
X185252857Y-87463809D01*
X185157619Y-87416190D01*
X185110000Y-87368571D01*
X185062380Y-87273333D01*
X185967142Y-86511428D02*
X186014761Y-86463809D01*
X186062380Y-86511428D01*
X186014761Y-86559047D01*
X185967142Y-86511428D01*
X186062380Y-86511428D01*
X185062380Y-85844761D02*
X185062380Y-85749523D01*
X185110000Y-85654285D01*
X185157619Y-85606666D01*
X185252857Y-85559047D01*
X185443333Y-85511428D01*
X185681428Y-85511428D01*
X185871904Y-85559047D01*
X185967142Y-85606666D01*
X186014761Y-85654285D01*
X186062380Y-85749523D01*
X186062380Y-85844761D01*
X186014761Y-85940000D01*
X185967142Y-85987619D01*
X185871904Y-86035238D01*
X185681428Y-86082857D01*
X185443333Y-86082857D01*
X185252857Y-86035238D01*
X185157619Y-85987619D01*
X185110000Y-85940000D01*
X185062380Y-85844761D01*
X141605000Y-76200000D02*
X141605000Y-105410000D01*
X182245000Y-76200000D02*
X141605000Y-76200000D01*
X182245000Y-105410000D02*
X182245000Y-76200000D01*
X141605000Y-105410000D02*
X182245000Y-105410000D01*
D11*
X140685000Y-119965000D02*
X137445000Y-119965000D01*
X140685000Y-112525000D02*
X137445000Y-112525000D01*
X137445000Y-112525000D02*
X137445000Y-119965000D01*
X140685000Y-112525000D02*
X140685000Y-119965000D01*
X125445000Y-112525000D02*
X125445000Y-119965000D01*
X122205000Y-112525000D02*
X122205000Y-119965000D01*
X125445000Y-112525000D02*
X122205000Y-112525000D01*
X125445000Y-119965000D02*
X122205000Y-119965000D01*
X147820000Y-119630000D02*
X147820000Y-115745000D01*
X145550000Y-119630000D02*
X147820000Y-119630000D01*
X145550000Y-115745000D02*
X145550000Y-119630000D01*
X118012936Y-75290000D02*
X119217064Y-75290000D01*
X118012936Y-77110000D02*
X119217064Y-77110000D01*
X147595000Y-111597064D02*
X147595000Y-110392936D01*
X145775000Y-111597064D02*
X145775000Y-110392936D01*
X118142936Y-94340000D02*
X119347064Y-94340000D01*
X118142936Y-96160000D02*
X119347064Y-96160000D01*
X118012936Y-101240000D02*
X119217064Y-101240000D01*
X118012936Y-99420000D02*
X119217064Y-99420000D01*
X118012936Y-106320000D02*
X119217064Y-106320000D01*
X118012936Y-104500000D02*
X119217064Y-104500000D01*
X132445000Y-73600000D02*
G75*
G02X130445000Y-73600000I-1000000J0D01*
G01*
X130445000Y-73600000D02*
X128795000Y-73600000D01*
X128795000Y-73600000D02*
X128795000Y-109280000D01*
X128795000Y-109280000D02*
X134095000Y-109280000D01*
X134095000Y-109280000D02*
X134095000Y-73600000D01*
X134095000Y-73600000D02*
X132445000Y-73600000D01*
X121345000Y-79950000D02*
X116145000Y-79950000D01*
X121345000Y-85090000D02*
X121345000Y-79950000D01*
X116145000Y-87690000D02*
X116145000Y-79950000D01*
X121345000Y-85090000D02*
X118745000Y-85090000D01*
X118745000Y-85090000D02*
X118745000Y-87690000D01*
X118745000Y-87690000D02*
X116145000Y-87690000D01*
X121345000Y-86360000D02*
X121345000Y-87690000D01*
X121345000Y-87690000D02*
X120015000Y-87690000D01*
X142815000Y-99120000D02*
X145475000Y-99120000D01*
X142815000Y-83820000D02*
X142815000Y-99120000D01*
X145475000Y-83820000D02*
X145475000Y-99120000D01*
X142815000Y-83820000D02*
X145475000Y-83820000D01*
X142815000Y-82550000D02*
X142815000Y-81220000D01*
X142815000Y-81220000D02*
X144145000Y-81220000D01*
X109795000Y-94040000D02*
X112455000Y-94040000D01*
X109795000Y-81280000D02*
X109795000Y-94040000D01*
X112455000Y-81280000D02*
X112455000Y-94040000D01*
X109795000Y-81280000D02*
X112455000Y-81280000D01*
X109795000Y-80010000D02*
X109795000Y-78680000D01*
X109795000Y-78680000D02*
X111125000Y-78680000D01*
X109795000Y-106620000D02*
X111125000Y-106620000D01*
X109795000Y-107950000D02*
X109795000Y-106620000D01*
X109795000Y-109220000D02*
X112455000Y-109220000D01*
X112455000Y-109220000D02*
X112455000Y-121980000D01*
X109795000Y-109220000D02*
X109795000Y-121980000D01*
X109795000Y-121980000D02*
X112455000Y-121980000D01*
X125132500Y-125740000D02*
X141107500Y-125740000D01*
X141107500Y-125740000D02*
X141107500Y-120640000D01*
X141107500Y-120640000D02*
X125132500Y-120640000D01*
D10*
X142073333Y-113387142D02*
X142025714Y-113434761D01*
X141882857Y-113482380D01*
X141787619Y-113482380D01*
X141644761Y-113434761D01*
X141549523Y-113339523D01*
X141501904Y-113244285D01*
X141454285Y-113053809D01*
X141454285Y-112910952D01*
X141501904Y-112720476D01*
X141549523Y-112625238D01*
X141644761Y-112530000D01*
X141787619Y-112482380D01*
X141882857Y-112482380D01*
X142025714Y-112530000D01*
X142073333Y-112577619D01*
X143025714Y-113482380D02*
X142454285Y-113482380D01*
X142740000Y-113482380D02*
X142740000Y-112482380D01*
X142644761Y-112625238D01*
X142549523Y-112720476D01*
X142454285Y-112768095D01*
X126833333Y-113387142D02*
X126785714Y-113434761D01*
X126642857Y-113482380D01*
X126547619Y-113482380D01*
X126404761Y-113434761D01*
X126309523Y-113339523D01*
X126261904Y-113244285D01*
X126214285Y-113053809D01*
X126214285Y-112910952D01*
X126261904Y-112720476D01*
X126309523Y-112625238D01*
X126404761Y-112530000D01*
X126547619Y-112482380D01*
X126642857Y-112482380D01*
X126785714Y-112530000D01*
X126833333Y-112577619D01*
X127214285Y-112577619D02*
X127261904Y-112530000D01*
X127357142Y-112482380D01*
X127595238Y-112482380D01*
X127690476Y-112530000D01*
X127738095Y-112577619D01*
X127785714Y-112672857D01*
X127785714Y-112768095D01*
X127738095Y-112910952D01*
X127166666Y-113482380D01*
X127785714Y-113482380D01*
X143597380Y-117678333D02*
X144311666Y-117678333D01*
X144454523Y-117725952D01*
X144549761Y-117821190D01*
X144597380Y-117964047D01*
X144597380Y-118059285D01*
X144597380Y-116678333D02*
X144597380Y-117249761D01*
X144597380Y-116964047D02*
X143597380Y-116964047D01*
X143740238Y-117059285D01*
X143835476Y-117154523D01*
X143883095Y-117249761D01*
X118448333Y-74832380D02*
X118115000Y-74356190D01*
X117876904Y-74832380D02*
X117876904Y-73832380D01*
X118257857Y-73832380D01*
X118353095Y-73880000D01*
X118400714Y-73927619D01*
X118448333Y-74022857D01*
X118448333Y-74165714D01*
X118400714Y-74260952D01*
X118353095Y-74308571D01*
X118257857Y-74356190D01*
X117876904Y-74356190D01*
X119400714Y-74832380D02*
X118829285Y-74832380D01*
X119115000Y-74832380D02*
X119115000Y-73832380D01*
X119019761Y-73975238D01*
X118924523Y-74070476D01*
X118829285Y-74118095D01*
X144597380Y-111161666D02*
X144121190Y-111495000D01*
X144597380Y-111733095D02*
X143597380Y-111733095D01*
X143597380Y-111352142D01*
X143645000Y-111256904D01*
X143692619Y-111209285D01*
X143787857Y-111161666D01*
X143930714Y-111161666D01*
X144025952Y-111209285D01*
X144073571Y-111256904D01*
X144121190Y-111352142D01*
X144121190Y-111733095D01*
X143692619Y-110780714D02*
X143645000Y-110733095D01*
X143597380Y-110637857D01*
X143597380Y-110399761D01*
X143645000Y-110304523D01*
X143692619Y-110256904D01*
X143787857Y-110209285D01*
X143883095Y-110209285D01*
X144025952Y-110256904D01*
X144597380Y-110828333D01*
X144597380Y-110209285D01*
X118578333Y-93882380D02*
X118245000Y-93406190D01*
X118006904Y-93882380D02*
X118006904Y-92882380D01*
X118387857Y-92882380D01*
X118483095Y-92930000D01*
X118530714Y-92977619D01*
X118578333Y-93072857D01*
X118578333Y-93215714D01*
X118530714Y-93310952D01*
X118483095Y-93358571D01*
X118387857Y-93406190D01*
X118006904Y-93406190D01*
X118911666Y-92882380D02*
X119530714Y-92882380D01*
X119197380Y-93263333D01*
X119340238Y-93263333D01*
X119435476Y-93310952D01*
X119483095Y-93358571D01*
X119530714Y-93453809D01*
X119530714Y-93691904D01*
X119483095Y-93787142D01*
X119435476Y-93834761D01*
X119340238Y-93882380D01*
X119054523Y-93882380D01*
X118959285Y-93834761D01*
X118911666Y-93787142D01*
X118448333Y-98962380D02*
X118115000Y-98486190D01*
X117876904Y-98962380D02*
X117876904Y-97962380D01*
X118257857Y-97962380D01*
X118353095Y-98010000D01*
X118400714Y-98057619D01*
X118448333Y-98152857D01*
X118448333Y-98295714D01*
X118400714Y-98390952D01*
X118353095Y-98438571D01*
X118257857Y-98486190D01*
X117876904Y-98486190D01*
X119305476Y-98295714D02*
X119305476Y-98962380D01*
X119067380Y-97914761D02*
X118829285Y-98629047D01*
X119448333Y-98629047D01*
X118448333Y-104042380D02*
X118115000Y-103566190D01*
X117876904Y-104042380D02*
X117876904Y-103042380D01*
X118257857Y-103042380D01*
X118353095Y-103090000D01*
X118400714Y-103137619D01*
X118448333Y-103232857D01*
X118448333Y-103375714D01*
X118400714Y-103470952D01*
X118353095Y-103518571D01*
X118257857Y-103566190D01*
X117876904Y-103566190D01*
X119353095Y-103042380D02*
X118876904Y-103042380D01*
X118829285Y-103518571D01*
X118876904Y-103470952D01*
X118972142Y-103423333D01*
X119210238Y-103423333D01*
X119305476Y-103470952D01*
X119353095Y-103518571D01*
X119400714Y-103613809D01*
X119400714Y-103851904D01*
X119353095Y-103947142D01*
X119305476Y-103994761D01*
X119210238Y-104042380D01*
X118972142Y-104042380D01*
X118876904Y-103994761D01*
X118829285Y-103947142D01*
X131953095Y-75017380D02*
X131953095Y-75826904D01*
X132000714Y-75922142D01*
X132048333Y-75969761D01*
X132143571Y-76017380D01*
X132334047Y-76017380D01*
X132429285Y-75969761D01*
X132476904Y-75922142D01*
X132524523Y-75826904D01*
X132524523Y-75017380D01*
X133524523Y-76017380D02*
X132953095Y-76017380D01*
X133238809Y-76017380D02*
X133238809Y-75017380D01*
X133143571Y-75160238D01*
X133048333Y-75255476D01*
X132953095Y-75303095D01*
X117983095Y-88142380D02*
X117983095Y-88951904D01*
X118030714Y-89047142D01*
X118078333Y-89094761D01*
X118173571Y-89142380D01*
X118364047Y-89142380D01*
X118459285Y-89094761D01*
X118506904Y-89047142D01*
X118554523Y-88951904D01*
X118554523Y-88142380D01*
X118983095Y-88237619D02*
X119030714Y-88190000D01*
X119125952Y-88142380D01*
X119364047Y-88142380D01*
X119459285Y-88190000D01*
X119506904Y-88237619D01*
X119554523Y-88332857D01*
X119554523Y-88428095D01*
X119506904Y-88570952D01*
X118935476Y-89142380D01*
X119554523Y-89142380D01*
X143383095Y-78192380D02*
X143383095Y-79001904D01*
X143430714Y-79097142D01*
X143478333Y-79144761D01*
X143573571Y-79192380D01*
X143764047Y-79192380D01*
X143859285Y-79144761D01*
X143906904Y-79097142D01*
X143954523Y-79001904D01*
X143954523Y-78192380D01*
X144335476Y-78192380D02*
X144954523Y-78192380D01*
X144621190Y-78573333D01*
X144764047Y-78573333D01*
X144859285Y-78620952D01*
X144906904Y-78668571D01*
X144954523Y-78763809D01*
X144954523Y-79001904D01*
X144906904Y-79097142D01*
X144859285Y-79144761D01*
X144764047Y-79192380D01*
X144478333Y-79192380D01*
X144383095Y-79144761D01*
X144335476Y-79097142D01*
X110363095Y-76922380D02*
X110363095Y-77731904D01*
X110410714Y-77827142D01*
X110458333Y-77874761D01*
X110553571Y-77922380D01*
X110744047Y-77922380D01*
X110839285Y-77874761D01*
X110886904Y-77827142D01*
X110934523Y-77731904D01*
X110934523Y-76922380D01*
X111839285Y-77255714D02*
X111839285Y-77922380D01*
X111601190Y-76874761D02*
X111363095Y-77589047D01*
X111982142Y-77589047D01*
X110363095Y-104862380D02*
X110363095Y-105671904D01*
X110410714Y-105767142D01*
X110458333Y-105814761D01*
X110553571Y-105862380D01*
X110744047Y-105862380D01*
X110839285Y-105814761D01*
X110886904Y-105767142D01*
X110934523Y-105671904D01*
X110934523Y-104862380D01*
X111886904Y-104862380D02*
X111410714Y-104862380D01*
X111363095Y-105338571D01*
X111410714Y-105290952D01*
X111505952Y-105243333D01*
X111744047Y-105243333D01*
X111839285Y-105290952D01*
X111886904Y-105338571D01*
X111934523Y-105433809D01*
X111934523Y-105671904D01*
X111886904Y-105767142D01*
X111839285Y-105814761D01*
X111744047Y-105862380D01*
X111505952Y-105862380D01*
X111410714Y-105814761D01*
X111363095Y-105767142D01*
X130556309Y-119356190D02*
X130556309Y-119832380D01*
X130222976Y-118832380D02*
X130556309Y-119356190D01*
X130889642Y-118832380D01*
X131746785Y-119832380D02*
X131175357Y-119832380D01*
X131461071Y-119832380D02*
X131461071Y-118832380D01*
X131365833Y-118975238D01*
X131270595Y-119070476D01*
X131175357Y-119118095D01*
M02*
