M48
; DRILL file {KiCad 5.1.4-3.fc30} date Mon 02 Sep 2019 03:36:46 PM PDT
; FORMAT={-:-/ absolute / inch / decimal}
; #@! TF.CreationDate,2019-09-02T15:36:46-07:00
; #@! TF.GenerationSoftware,Kicad,Pcbnew,5.1.4-3.fc30
; #@! TF.FileFunction,Plated,1,2,PTH
FMAT,2
INCH
T1C0.0315
T2C0.0394
%
G90
G05
T1
X5.475Y-4.4781
X5.475Y-4.675
X4.875Y-4.4781
X4.875Y-4.675
X5.025Y-2.95
X5.025Y-3.05
X5.025Y-3.15
X5.025Y-3.25
X5.025Y-3.35
X5.025Y-3.45
X5.025Y-3.55
X5.025Y-3.65
X5.025Y-3.75
X5.025Y-3.85
X5.025Y-3.95
X5.025Y-4.05
X5.025Y-4.15
X5.025Y-4.25
X5.325Y-2.95
X5.325Y-3.05
X5.325Y-3.15
X5.325Y-3.25
X5.325Y-3.35
X5.325Y-3.45
X5.325Y-3.55
X5.325Y-3.65
X5.325Y-3.75
X5.325Y-3.85
X5.325Y-3.95
X5.325Y-4.05
X5.325Y-4.15
X5.325Y-4.25
T2
X4.375Y-3.15
X4.375Y-3.25
X4.375Y-3.35
X4.375Y-3.45
X4.375Y-3.55
X4.375Y-3.65
X5.675Y-3.25
X5.675Y-3.35
X5.675Y-3.45
X5.675Y-3.55
X5.675Y-3.65
X5.675Y-3.75
X5.675Y-3.85
X4.625Y-3.2
X4.625Y-3.3
X4.625Y-3.4
X4.725Y-3.2
X4.725Y-3.3
X4.725Y-3.4
X4.375Y-4.25
X4.375Y-4.35
X4.375Y-4.45
X4.375Y-4.55
X4.375Y-4.65
X4.375Y-4.75
T0
M30
