G04 #@! TF.GenerationSoftware,KiCad,Pcbnew,5.1.4-3.fc30*
G04 #@! TF.CreationDate,2019-09-02T15:34:34-07:00*
G04 #@! TF.ProjectId,AR_20_JW_Rev2,41525f32-305f-44a5-975f-526576322e6b,rev?*
G04 #@! TF.SameCoordinates,Original*
G04 #@! TF.FileFunction,Soldermask,Top*
G04 #@! TF.FilePolarity,Negative*
%FSLAX46Y46*%
G04 Gerber Fmt 4.6, Leading zero omitted, Abs format (unit mm)*
G04 Created by KiCad (PCBNEW 5.1.4-3.fc30) date 2019-09-02 15:34:34*
%MOMM*%
%LPD*%
G04 APERTURE LIST*
%ADD10C,0.100000*%
G04 APERTURE END LIST*
D10*
G36*
X150178433Y-124999893D02*
G01*
X150268657Y-125017839D01*
X150374267Y-125061585D01*
X150523621Y-125123449D01*
X150523622Y-125123450D01*
X150753086Y-125276772D01*
X150948228Y-125471914D01*
X151050675Y-125625237D01*
X151101551Y-125701379D01*
X151207161Y-125956344D01*
X151261000Y-126227012D01*
X151261000Y-126502988D01*
X151207161Y-126773656D01*
X151101551Y-127028621D01*
X151101550Y-127028622D01*
X150948228Y-127258086D01*
X150753086Y-127453228D01*
X150599763Y-127555675D01*
X150523621Y-127606551D01*
X150374267Y-127668415D01*
X150268657Y-127712161D01*
X150178433Y-127730107D01*
X149997988Y-127766000D01*
X149722012Y-127766000D01*
X149541567Y-127730107D01*
X149451343Y-127712161D01*
X149345733Y-127668415D01*
X149196379Y-127606551D01*
X149120237Y-127555675D01*
X148966914Y-127453228D01*
X148771772Y-127258086D01*
X148618450Y-127028622D01*
X148618449Y-127028621D01*
X148512839Y-126773656D01*
X148459000Y-126502988D01*
X148459000Y-126227012D01*
X148512839Y-125956344D01*
X148618449Y-125701379D01*
X148669325Y-125625237D01*
X148771772Y-125471914D01*
X148966914Y-125276772D01*
X149196378Y-125123450D01*
X149196379Y-125123449D01*
X149345733Y-125061585D01*
X149451343Y-125017839D01*
X149541567Y-124999893D01*
X149722012Y-124964000D01*
X149997988Y-124964000D01*
X150178433Y-124999893D01*
X150178433Y-124999893D01*
G37*
G36*
X107633433Y-124999893D02*
G01*
X107723657Y-125017839D01*
X107829267Y-125061585D01*
X107978621Y-125123449D01*
X107978622Y-125123450D01*
X108208086Y-125276772D01*
X108403228Y-125471914D01*
X108505675Y-125625237D01*
X108556551Y-125701379D01*
X108662161Y-125956344D01*
X108716000Y-126227012D01*
X108716000Y-126502988D01*
X108662161Y-126773656D01*
X108556551Y-127028621D01*
X108556550Y-127028622D01*
X108403228Y-127258086D01*
X108208086Y-127453228D01*
X108054763Y-127555675D01*
X107978621Y-127606551D01*
X107829267Y-127668415D01*
X107723657Y-127712161D01*
X107633433Y-127730107D01*
X107452988Y-127766000D01*
X107177012Y-127766000D01*
X106996567Y-127730107D01*
X106906343Y-127712161D01*
X106800733Y-127668415D01*
X106651379Y-127606551D01*
X106575237Y-127555675D01*
X106421914Y-127453228D01*
X106226772Y-127258086D01*
X106073450Y-127028622D01*
X106073449Y-127028621D01*
X105967839Y-126773656D01*
X105914000Y-126502988D01*
X105914000Y-126227012D01*
X105967839Y-125956344D01*
X106073449Y-125701379D01*
X106124325Y-125625237D01*
X106226772Y-125471914D01*
X106421914Y-125276772D01*
X106651378Y-125123450D01*
X106651379Y-125123449D01*
X106800733Y-125061585D01*
X106906343Y-125017839D01*
X106996567Y-124999893D01*
X107177012Y-124964000D01*
X107452988Y-124964000D01*
X107633433Y-124999893D01*
X107633433Y-124999893D01*
G37*
G36*
X140958500Y-124241000D02*
G01*
X132981500Y-124241000D01*
X132981500Y-122139000D01*
X140958500Y-122139000D01*
X140958500Y-124241000D01*
X140958500Y-124241000D01*
G37*
G36*
X129083500Y-124241000D02*
G01*
X121106500Y-124241000D01*
X121106500Y-122139000D01*
X129083500Y-122139000D01*
X129083500Y-124241000D01*
X129083500Y-124241000D01*
G37*
G36*
X111235442Y-119755518D02*
G01*
X111301627Y-119762037D01*
X111471466Y-119813557D01*
X111627991Y-119897222D01*
X111663729Y-119926552D01*
X111765186Y-120009814D01*
X111848448Y-120111271D01*
X111877778Y-120147009D01*
X111961443Y-120303534D01*
X112012963Y-120473373D01*
X112030359Y-120650000D01*
X112012963Y-120826627D01*
X111961443Y-120996466D01*
X111877778Y-121152991D01*
X111848448Y-121188729D01*
X111765186Y-121290186D01*
X111663729Y-121373448D01*
X111627991Y-121402778D01*
X111471466Y-121486443D01*
X111301627Y-121537963D01*
X111235443Y-121544481D01*
X111169260Y-121551000D01*
X111080740Y-121551000D01*
X111014557Y-121544481D01*
X110948373Y-121537963D01*
X110778534Y-121486443D01*
X110622009Y-121402778D01*
X110586271Y-121373448D01*
X110484814Y-121290186D01*
X110401552Y-121188729D01*
X110372222Y-121152991D01*
X110288557Y-120996466D01*
X110237037Y-120826627D01*
X110219641Y-120650000D01*
X110237037Y-120473373D01*
X110288557Y-120303534D01*
X110372222Y-120147009D01*
X110401552Y-120111271D01*
X110484814Y-120009814D01*
X110586271Y-119926552D01*
X110622009Y-119897222D01*
X110778534Y-119813557D01*
X110948373Y-119762037D01*
X111014558Y-119755518D01*
X111080740Y-119749000D01*
X111169260Y-119749000D01*
X111235442Y-119755518D01*
X111235442Y-119755518D01*
G37*
G36*
X139313228Y-117926703D02*
G01*
X139468100Y-117990853D01*
X139607481Y-118083985D01*
X139726015Y-118202519D01*
X139819147Y-118341900D01*
X139883297Y-118496772D01*
X139916000Y-118661184D01*
X139916000Y-118828816D01*
X139883297Y-118993228D01*
X139819147Y-119148100D01*
X139726015Y-119287481D01*
X139607481Y-119406015D01*
X139468100Y-119499147D01*
X139313228Y-119563297D01*
X139148816Y-119596000D01*
X138981184Y-119596000D01*
X138816772Y-119563297D01*
X138661900Y-119499147D01*
X138522519Y-119406015D01*
X138403985Y-119287481D01*
X138310853Y-119148100D01*
X138246703Y-118993228D01*
X138214000Y-118828816D01*
X138214000Y-118661184D01*
X138246703Y-118496772D01*
X138310853Y-118341900D01*
X138403985Y-118202519D01*
X138522519Y-118083985D01*
X138661900Y-117990853D01*
X138816772Y-117926703D01*
X138981184Y-117894000D01*
X139148816Y-117894000D01*
X139313228Y-117926703D01*
X139313228Y-117926703D01*
G37*
G36*
X124073228Y-117926703D02*
G01*
X124228100Y-117990853D01*
X124367481Y-118083985D01*
X124486015Y-118202519D01*
X124579147Y-118341900D01*
X124643297Y-118496772D01*
X124676000Y-118661184D01*
X124676000Y-118828816D01*
X124643297Y-118993228D01*
X124579147Y-119148100D01*
X124486015Y-119287481D01*
X124367481Y-119406015D01*
X124228100Y-119499147D01*
X124073228Y-119563297D01*
X123908816Y-119596000D01*
X123741184Y-119596000D01*
X123576772Y-119563297D01*
X123421900Y-119499147D01*
X123282519Y-119406015D01*
X123163985Y-119287481D01*
X123070853Y-119148100D01*
X123006703Y-118993228D01*
X122974000Y-118828816D01*
X122974000Y-118661184D01*
X123006703Y-118496772D01*
X123070853Y-118341900D01*
X123163985Y-118202519D01*
X123282519Y-118083985D01*
X123421900Y-117990853D01*
X123576772Y-117926703D01*
X123741184Y-117894000D01*
X123908816Y-117894000D01*
X124073228Y-117926703D01*
X124073228Y-117926703D01*
G37*
G36*
X147453604Y-118073347D02*
G01*
X147490144Y-118084432D01*
X147523821Y-118102433D01*
X147553341Y-118126659D01*
X147577567Y-118156179D01*
X147595568Y-118189856D01*
X147606653Y-118226396D01*
X147611000Y-118270538D01*
X147611000Y-119219462D01*
X147606653Y-119263604D01*
X147595568Y-119300144D01*
X147577567Y-119333821D01*
X147553341Y-119363341D01*
X147523821Y-119387567D01*
X147490144Y-119405568D01*
X147453604Y-119416653D01*
X147409462Y-119421000D01*
X145960538Y-119421000D01*
X145916396Y-119416653D01*
X145879856Y-119405568D01*
X145846179Y-119387567D01*
X145816659Y-119363341D01*
X145792433Y-119333821D01*
X145774432Y-119300144D01*
X145763347Y-119263604D01*
X145759000Y-119219462D01*
X145759000Y-118270538D01*
X145763347Y-118226396D01*
X145774432Y-118189856D01*
X145792433Y-118156179D01*
X145816659Y-118126659D01*
X145846179Y-118102433D01*
X145879856Y-118084432D01*
X145916396Y-118073347D01*
X145960538Y-118069000D01*
X147409462Y-118069000D01*
X147453604Y-118073347D01*
X147453604Y-118073347D01*
G37*
G36*
X111235443Y-117215519D02*
G01*
X111301627Y-117222037D01*
X111471466Y-117273557D01*
X111627991Y-117357222D01*
X111663729Y-117386552D01*
X111765186Y-117469814D01*
X111848448Y-117571271D01*
X111877778Y-117607009D01*
X111961443Y-117763534D01*
X112012963Y-117933373D01*
X112030359Y-118110000D01*
X112012963Y-118286627D01*
X111961443Y-118456466D01*
X111877778Y-118612991D01*
X111848448Y-118648729D01*
X111765186Y-118750186D01*
X111669375Y-118828815D01*
X111627991Y-118862778D01*
X111471466Y-118946443D01*
X111301627Y-118997963D01*
X111235443Y-119004481D01*
X111169260Y-119011000D01*
X111080740Y-119011000D01*
X111014557Y-119004481D01*
X110948373Y-118997963D01*
X110778534Y-118946443D01*
X110622009Y-118862778D01*
X110580625Y-118828815D01*
X110484814Y-118750186D01*
X110401552Y-118648729D01*
X110372222Y-118612991D01*
X110288557Y-118456466D01*
X110237037Y-118286627D01*
X110219641Y-118110000D01*
X110237037Y-117933373D01*
X110288557Y-117763534D01*
X110372222Y-117607009D01*
X110401552Y-117571271D01*
X110484814Y-117469814D01*
X110586271Y-117386552D01*
X110622009Y-117357222D01*
X110778534Y-117273557D01*
X110948373Y-117222037D01*
X111014557Y-117215519D01*
X111080740Y-117209000D01*
X111169260Y-117209000D01*
X111235443Y-117215519D01*
X111235443Y-117215519D01*
G37*
G36*
X147453604Y-115273347D02*
G01*
X147490144Y-115284432D01*
X147523821Y-115302433D01*
X147553341Y-115326659D01*
X147577567Y-115356179D01*
X147595568Y-115389856D01*
X147606653Y-115426396D01*
X147611000Y-115470538D01*
X147611000Y-116419462D01*
X147606653Y-116463604D01*
X147595568Y-116500144D01*
X147577567Y-116533821D01*
X147553341Y-116563341D01*
X147523821Y-116587567D01*
X147490144Y-116605568D01*
X147453604Y-116616653D01*
X147409462Y-116621000D01*
X145960538Y-116621000D01*
X145916396Y-116616653D01*
X145879856Y-116605568D01*
X145846179Y-116587567D01*
X145816659Y-116563341D01*
X145792433Y-116533821D01*
X145774432Y-116500144D01*
X145763347Y-116463604D01*
X145759000Y-116419462D01*
X145759000Y-115470538D01*
X145763347Y-115426396D01*
X145774432Y-115389856D01*
X145792433Y-115356179D01*
X145816659Y-115326659D01*
X145846179Y-115302433D01*
X145879856Y-115284432D01*
X145916396Y-115273347D01*
X145960538Y-115269000D01*
X147409462Y-115269000D01*
X147453604Y-115273347D01*
X147453604Y-115273347D01*
G37*
G36*
X111235443Y-114675519D02*
G01*
X111301627Y-114682037D01*
X111471466Y-114733557D01*
X111627991Y-114817222D01*
X111663729Y-114846552D01*
X111765186Y-114929814D01*
X111848448Y-115031271D01*
X111877778Y-115067009D01*
X111961443Y-115223534D01*
X112012963Y-115393373D01*
X112030359Y-115570000D01*
X112012963Y-115746627D01*
X111961443Y-115916466D01*
X111877778Y-116072991D01*
X111848448Y-116108729D01*
X111765186Y-116210186D01*
X111663729Y-116293448D01*
X111627991Y-116322778D01*
X111471466Y-116406443D01*
X111301627Y-116457963D01*
X111244352Y-116463604D01*
X111169260Y-116471000D01*
X111080740Y-116471000D01*
X111005648Y-116463604D01*
X110948373Y-116457963D01*
X110778534Y-116406443D01*
X110622009Y-116322778D01*
X110586271Y-116293448D01*
X110484814Y-116210186D01*
X110401552Y-116108729D01*
X110372222Y-116072991D01*
X110288557Y-115916466D01*
X110237037Y-115746627D01*
X110219641Y-115570000D01*
X110237037Y-115393373D01*
X110288557Y-115223534D01*
X110372222Y-115067009D01*
X110401552Y-115031271D01*
X110484814Y-114929814D01*
X110586271Y-114846552D01*
X110622009Y-114817222D01*
X110778534Y-114733557D01*
X110948373Y-114682037D01*
X111014557Y-114675519D01*
X111080740Y-114669000D01*
X111169260Y-114669000D01*
X111235443Y-114675519D01*
X111235443Y-114675519D01*
G37*
G36*
X139313228Y-112926703D02*
G01*
X139468100Y-112990853D01*
X139607481Y-113083985D01*
X139726015Y-113202519D01*
X139819147Y-113341900D01*
X139883297Y-113496772D01*
X139916000Y-113661184D01*
X139916000Y-113828816D01*
X139883297Y-113993228D01*
X139819147Y-114148100D01*
X139726015Y-114287481D01*
X139607481Y-114406015D01*
X139468100Y-114499147D01*
X139313228Y-114563297D01*
X139148816Y-114596000D01*
X138981184Y-114596000D01*
X138816772Y-114563297D01*
X138661900Y-114499147D01*
X138522519Y-114406015D01*
X138403985Y-114287481D01*
X138310853Y-114148100D01*
X138246703Y-113993228D01*
X138214000Y-113828816D01*
X138214000Y-113661184D01*
X138246703Y-113496772D01*
X138310853Y-113341900D01*
X138403985Y-113202519D01*
X138522519Y-113083985D01*
X138661900Y-112990853D01*
X138816772Y-112926703D01*
X138981184Y-112894000D01*
X139148816Y-112894000D01*
X139313228Y-112926703D01*
X139313228Y-112926703D01*
G37*
G36*
X124073228Y-112926703D02*
G01*
X124228100Y-112990853D01*
X124367481Y-113083985D01*
X124486015Y-113202519D01*
X124579147Y-113341900D01*
X124643297Y-113496772D01*
X124676000Y-113661184D01*
X124676000Y-113828816D01*
X124643297Y-113993228D01*
X124579147Y-114148100D01*
X124486015Y-114287481D01*
X124367481Y-114406015D01*
X124228100Y-114499147D01*
X124073228Y-114563297D01*
X123908816Y-114596000D01*
X123741184Y-114596000D01*
X123576772Y-114563297D01*
X123421900Y-114499147D01*
X123282519Y-114406015D01*
X123163985Y-114287481D01*
X123070853Y-114148100D01*
X123006703Y-113993228D01*
X122974000Y-113828816D01*
X122974000Y-113661184D01*
X123006703Y-113496772D01*
X123070853Y-113341900D01*
X123163985Y-113202519D01*
X123282519Y-113083985D01*
X123421900Y-112990853D01*
X123576772Y-112926703D01*
X123741184Y-112894000D01*
X123908816Y-112894000D01*
X124073228Y-112926703D01*
X124073228Y-112926703D01*
G37*
G36*
X111235443Y-112135519D02*
G01*
X111301627Y-112142037D01*
X111471466Y-112193557D01*
X111627991Y-112277222D01*
X111663729Y-112306552D01*
X111765186Y-112389814D01*
X111848448Y-112491271D01*
X111877778Y-112527009D01*
X111961443Y-112683534D01*
X112012963Y-112853373D01*
X112030359Y-113030000D01*
X112012963Y-113206627D01*
X111961443Y-113376466D01*
X111877778Y-113532991D01*
X111848448Y-113568729D01*
X111765186Y-113670186D01*
X111663729Y-113753448D01*
X111627991Y-113782778D01*
X111627989Y-113782779D01*
X111541863Y-113828815D01*
X111471466Y-113866443D01*
X111301627Y-113917963D01*
X111235443Y-113924481D01*
X111169260Y-113931000D01*
X111080740Y-113931000D01*
X111014557Y-113924481D01*
X110948373Y-113917963D01*
X110778534Y-113866443D01*
X110708138Y-113828815D01*
X110622011Y-113782779D01*
X110622009Y-113782778D01*
X110586271Y-113753448D01*
X110484814Y-113670186D01*
X110401552Y-113568729D01*
X110372222Y-113532991D01*
X110288557Y-113376466D01*
X110237037Y-113206627D01*
X110219641Y-113030000D01*
X110237037Y-112853373D01*
X110288557Y-112683534D01*
X110372222Y-112527009D01*
X110401552Y-112491271D01*
X110484814Y-112389814D01*
X110586271Y-112306552D01*
X110622009Y-112277222D01*
X110778534Y-112193557D01*
X110948373Y-112142037D01*
X111014557Y-112135519D01*
X111080740Y-112129000D01*
X111169260Y-112129000D01*
X111235443Y-112135519D01*
X111235443Y-112135519D01*
G37*
G36*
X147453604Y-111723347D02*
G01*
X147490144Y-111734432D01*
X147523821Y-111752433D01*
X147553341Y-111776659D01*
X147577567Y-111806179D01*
X147595568Y-111839856D01*
X147606653Y-111876396D01*
X147611000Y-111920538D01*
X147611000Y-112869462D01*
X147606653Y-112913604D01*
X147595568Y-112950144D01*
X147577567Y-112983821D01*
X147553341Y-113013341D01*
X147523821Y-113037567D01*
X147490144Y-113055568D01*
X147453604Y-113066653D01*
X147409462Y-113071000D01*
X145960538Y-113071000D01*
X145916396Y-113066653D01*
X145879856Y-113055568D01*
X145846179Y-113037567D01*
X145816659Y-113013341D01*
X145792433Y-112983821D01*
X145774432Y-112950144D01*
X145763347Y-112913604D01*
X145759000Y-112869462D01*
X145759000Y-111920538D01*
X145763347Y-111876396D01*
X145774432Y-111839856D01*
X145792433Y-111806179D01*
X145816659Y-111776659D01*
X145846179Y-111752433D01*
X145879856Y-111734432D01*
X145916396Y-111723347D01*
X145960538Y-111719000D01*
X147409462Y-111719000D01*
X147453604Y-111723347D01*
X147453604Y-111723347D01*
G37*
G36*
X111235442Y-109595518D02*
G01*
X111301627Y-109602037D01*
X111471466Y-109653557D01*
X111627991Y-109737222D01*
X111663729Y-109766552D01*
X111765186Y-109849814D01*
X111848448Y-109951271D01*
X111877778Y-109987009D01*
X111961443Y-110143534D01*
X112012963Y-110313373D01*
X112030359Y-110490000D01*
X112012963Y-110666627D01*
X111961443Y-110836466D01*
X111877778Y-110992991D01*
X111848448Y-111028729D01*
X111765186Y-111130186D01*
X111663729Y-111213448D01*
X111627991Y-111242778D01*
X111471466Y-111326443D01*
X111301627Y-111377963D01*
X111235443Y-111384481D01*
X111169260Y-111391000D01*
X111080740Y-111391000D01*
X111014557Y-111384481D01*
X110948373Y-111377963D01*
X110778534Y-111326443D01*
X110622009Y-111242778D01*
X110586271Y-111213448D01*
X110484814Y-111130186D01*
X110401552Y-111028729D01*
X110372222Y-110992991D01*
X110288557Y-110836466D01*
X110237037Y-110666627D01*
X110219641Y-110490000D01*
X110237037Y-110313373D01*
X110288557Y-110143534D01*
X110372222Y-109987009D01*
X110401552Y-109951271D01*
X110484814Y-109849814D01*
X110586271Y-109766552D01*
X110622009Y-109737222D01*
X110778534Y-109653557D01*
X110948373Y-109602037D01*
X111014558Y-109595518D01*
X111080740Y-109589000D01*
X111169260Y-109589000D01*
X111235442Y-109595518D01*
X111235442Y-109595518D01*
G37*
G36*
X147453604Y-108923347D02*
G01*
X147490144Y-108934432D01*
X147523821Y-108952433D01*
X147553341Y-108976659D01*
X147577567Y-109006179D01*
X147595568Y-109039856D01*
X147606653Y-109076396D01*
X147611000Y-109120538D01*
X147611000Y-110069462D01*
X147606653Y-110113604D01*
X147595568Y-110150144D01*
X147577567Y-110183821D01*
X147553341Y-110213341D01*
X147523821Y-110237567D01*
X147490144Y-110255568D01*
X147453604Y-110266653D01*
X147409462Y-110271000D01*
X145960538Y-110271000D01*
X145916396Y-110266653D01*
X145879856Y-110255568D01*
X145846179Y-110237567D01*
X145816659Y-110213341D01*
X145792433Y-110183821D01*
X145774432Y-110150144D01*
X145763347Y-110113604D01*
X145759000Y-110069462D01*
X145759000Y-109120538D01*
X145763347Y-109076396D01*
X145774432Y-109039856D01*
X145792433Y-109006179D01*
X145816659Y-108976659D01*
X145846179Y-108952433D01*
X145879856Y-108934432D01*
X145916396Y-108923347D01*
X145960538Y-108919000D01*
X147409462Y-108919000D01*
X147453604Y-108923347D01*
X147453604Y-108923347D01*
G37*
G36*
X112026000Y-108851000D02*
G01*
X110224000Y-108851000D01*
X110224000Y-107049000D01*
X112026000Y-107049000D01*
X112026000Y-108851000D01*
X112026000Y-108851000D01*
G37*
G36*
X135421823Y-107111313D02*
G01*
X135582242Y-107159976D01*
X135714906Y-107230886D01*
X135730078Y-107238996D01*
X135859659Y-107345341D01*
X135966004Y-107474922D01*
X135966005Y-107474924D01*
X136045024Y-107622758D01*
X136093687Y-107783177D01*
X136110117Y-107950000D01*
X136093687Y-108116823D01*
X136045024Y-108277242D01*
X135974114Y-108409906D01*
X135966004Y-108425078D01*
X135859659Y-108554659D01*
X135730078Y-108661004D01*
X135730076Y-108661005D01*
X135582242Y-108740024D01*
X135421823Y-108788687D01*
X135296804Y-108801000D01*
X135213196Y-108801000D01*
X135088177Y-108788687D01*
X134927758Y-108740024D01*
X134779924Y-108661005D01*
X134779922Y-108661004D01*
X134650341Y-108554659D01*
X134543996Y-108425078D01*
X134535886Y-108409906D01*
X134464976Y-108277242D01*
X134416313Y-108116823D01*
X134399883Y-107950000D01*
X134416313Y-107783177D01*
X134464976Y-107622758D01*
X134543995Y-107474924D01*
X134543996Y-107474922D01*
X134650341Y-107345341D01*
X134779922Y-107238996D01*
X134795094Y-107230886D01*
X134927758Y-107159976D01*
X135088177Y-107111313D01*
X135213196Y-107099000D01*
X135296804Y-107099000D01*
X135421823Y-107111313D01*
X135421823Y-107111313D01*
G37*
G36*
X127801823Y-107111313D02*
G01*
X127962242Y-107159976D01*
X128094906Y-107230886D01*
X128110078Y-107238996D01*
X128239659Y-107345341D01*
X128346004Y-107474922D01*
X128346005Y-107474924D01*
X128425024Y-107622758D01*
X128473687Y-107783177D01*
X128490117Y-107950000D01*
X128473687Y-108116823D01*
X128425024Y-108277242D01*
X128354114Y-108409906D01*
X128346004Y-108425078D01*
X128239659Y-108554659D01*
X128110078Y-108661004D01*
X128110076Y-108661005D01*
X127962242Y-108740024D01*
X127801823Y-108788687D01*
X127676804Y-108801000D01*
X127593196Y-108801000D01*
X127468177Y-108788687D01*
X127307758Y-108740024D01*
X127159924Y-108661005D01*
X127159922Y-108661004D01*
X127030341Y-108554659D01*
X126923996Y-108425078D01*
X126915886Y-108409906D01*
X126844976Y-108277242D01*
X126796313Y-108116823D01*
X126779883Y-107950000D01*
X126796313Y-107783177D01*
X126844976Y-107622758D01*
X126923995Y-107474924D01*
X126923996Y-107474922D01*
X127030341Y-107345341D01*
X127159922Y-107238996D01*
X127175094Y-107230886D01*
X127307758Y-107159976D01*
X127468177Y-107111313D01*
X127593196Y-107099000D01*
X127676804Y-107099000D01*
X127801823Y-107111313D01*
X127801823Y-107111313D01*
G37*
G36*
X117733604Y-104488347D02*
G01*
X117770144Y-104499432D01*
X117803821Y-104517433D01*
X117833341Y-104541659D01*
X117857567Y-104571179D01*
X117875568Y-104604856D01*
X117886653Y-104641396D01*
X117891000Y-104685538D01*
X117891000Y-106134462D01*
X117886653Y-106178604D01*
X117875568Y-106215144D01*
X117857567Y-106248821D01*
X117833341Y-106278341D01*
X117803821Y-106302567D01*
X117770144Y-106320568D01*
X117733604Y-106331653D01*
X117689462Y-106336000D01*
X116740538Y-106336000D01*
X116696396Y-106331653D01*
X116659856Y-106320568D01*
X116626179Y-106302567D01*
X116596659Y-106278341D01*
X116572433Y-106248821D01*
X116554432Y-106215144D01*
X116543347Y-106178604D01*
X116539000Y-106134462D01*
X116539000Y-104685538D01*
X116543347Y-104641396D01*
X116554432Y-104604856D01*
X116572433Y-104571179D01*
X116596659Y-104541659D01*
X116626179Y-104517433D01*
X116659856Y-104499432D01*
X116696396Y-104488347D01*
X116740538Y-104484000D01*
X117689462Y-104484000D01*
X117733604Y-104488347D01*
X117733604Y-104488347D01*
G37*
G36*
X120533604Y-104488347D02*
G01*
X120570144Y-104499432D01*
X120603821Y-104517433D01*
X120633341Y-104541659D01*
X120657567Y-104571179D01*
X120675568Y-104604856D01*
X120686653Y-104641396D01*
X120691000Y-104685538D01*
X120691000Y-106134462D01*
X120686653Y-106178604D01*
X120675568Y-106215144D01*
X120657567Y-106248821D01*
X120633341Y-106278341D01*
X120603821Y-106302567D01*
X120570144Y-106320568D01*
X120533604Y-106331653D01*
X120489462Y-106336000D01*
X119540538Y-106336000D01*
X119496396Y-106331653D01*
X119459856Y-106320568D01*
X119426179Y-106302567D01*
X119396659Y-106278341D01*
X119372433Y-106248821D01*
X119354432Y-106215144D01*
X119343347Y-106178604D01*
X119339000Y-106134462D01*
X119339000Y-104685538D01*
X119343347Y-104641396D01*
X119354432Y-104604856D01*
X119372433Y-104571179D01*
X119396659Y-104541659D01*
X119426179Y-104517433D01*
X119459856Y-104499432D01*
X119496396Y-104488347D01*
X119540538Y-104484000D01*
X120489462Y-104484000D01*
X120533604Y-104488347D01*
X120533604Y-104488347D01*
G37*
G36*
X127801823Y-104571313D02*
G01*
X127962242Y-104619976D01*
X128084900Y-104685538D01*
X128110078Y-104698996D01*
X128239659Y-104805341D01*
X128346004Y-104934922D01*
X128346005Y-104934924D01*
X128425024Y-105082758D01*
X128473687Y-105243177D01*
X128490117Y-105410000D01*
X128473687Y-105576823D01*
X128425024Y-105737242D01*
X128354114Y-105869906D01*
X128346004Y-105885078D01*
X128239659Y-106014659D01*
X128110078Y-106121004D01*
X128110076Y-106121005D01*
X127962242Y-106200024D01*
X127801823Y-106248687D01*
X127676804Y-106261000D01*
X127593196Y-106261000D01*
X127468177Y-106248687D01*
X127307758Y-106200024D01*
X127159924Y-106121005D01*
X127159922Y-106121004D01*
X127030341Y-106014659D01*
X126923996Y-105885078D01*
X126915886Y-105869906D01*
X126844976Y-105737242D01*
X126796313Y-105576823D01*
X126779883Y-105410000D01*
X126796313Y-105243177D01*
X126844976Y-105082758D01*
X126923995Y-104934924D01*
X126923996Y-104934922D01*
X127030341Y-104805341D01*
X127159922Y-104698996D01*
X127185100Y-104685538D01*
X127307758Y-104619976D01*
X127468177Y-104571313D01*
X127593196Y-104559000D01*
X127676804Y-104559000D01*
X127801823Y-104571313D01*
X127801823Y-104571313D01*
G37*
G36*
X135421823Y-104571313D02*
G01*
X135582242Y-104619976D01*
X135704900Y-104685538D01*
X135730078Y-104698996D01*
X135859659Y-104805341D01*
X135966004Y-104934922D01*
X135966005Y-104934924D01*
X136045024Y-105082758D01*
X136093687Y-105243177D01*
X136110117Y-105410000D01*
X136093687Y-105576823D01*
X136045024Y-105737242D01*
X135974114Y-105869906D01*
X135966004Y-105885078D01*
X135859659Y-106014659D01*
X135730078Y-106121004D01*
X135730076Y-106121005D01*
X135582242Y-106200024D01*
X135421823Y-106248687D01*
X135296804Y-106261000D01*
X135213196Y-106261000D01*
X135088177Y-106248687D01*
X134927758Y-106200024D01*
X134779924Y-106121005D01*
X134779922Y-106121004D01*
X134650341Y-106014659D01*
X134543996Y-105885078D01*
X134535886Y-105869906D01*
X134464976Y-105737242D01*
X134416313Y-105576823D01*
X134399883Y-105410000D01*
X134416313Y-105243177D01*
X134464976Y-105082758D01*
X134543995Y-104934924D01*
X134543996Y-104934922D01*
X134650341Y-104805341D01*
X134779922Y-104698996D01*
X134805100Y-104685538D01*
X134927758Y-104619976D01*
X135088177Y-104571313D01*
X135213196Y-104559000D01*
X135296804Y-104559000D01*
X135421823Y-104571313D01*
X135421823Y-104571313D01*
G37*
G36*
X135421823Y-102031313D02*
G01*
X135582242Y-102079976D01*
X135714906Y-102150886D01*
X135730078Y-102158996D01*
X135859659Y-102265341D01*
X135966004Y-102394922D01*
X135966005Y-102394924D01*
X136045024Y-102542758D01*
X136093687Y-102703177D01*
X136110117Y-102870000D01*
X136093687Y-103036823D01*
X136045024Y-103197242D01*
X135974114Y-103329906D01*
X135966004Y-103345078D01*
X135859659Y-103474659D01*
X135730078Y-103581004D01*
X135730076Y-103581005D01*
X135582242Y-103660024D01*
X135421823Y-103708687D01*
X135296804Y-103721000D01*
X135213196Y-103721000D01*
X135088177Y-103708687D01*
X134927758Y-103660024D01*
X134779924Y-103581005D01*
X134779922Y-103581004D01*
X134650341Y-103474659D01*
X134543996Y-103345078D01*
X134535886Y-103329906D01*
X134464976Y-103197242D01*
X134416313Y-103036823D01*
X134399883Y-102870000D01*
X134416313Y-102703177D01*
X134464976Y-102542758D01*
X134543995Y-102394924D01*
X134543996Y-102394922D01*
X134650341Y-102265341D01*
X134779922Y-102158996D01*
X134795094Y-102150886D01*
X134927758Y-102079976D01*
X135088177Y-102031313D01*
X135213196Y-102019000D01*
X135296804Y-102019000D01*
X135421823Y-102031313D01*
X135421823Y-102031313D01*
G37*
G36*
X127801823Y-102031313D02*
G01*
X127962242Y-102079976D01*
X128094906Y-102150886D01*
X128110078Y-102158996D01*
X128239659Y-102265341D01*
X128346004Y-102394922D01*
X128346005Y-102394924D01*
X128425024Y-102542758D01*
X128473687Y-102703177D01*
X128490117Y-102870000D01*
X128473687Y-103036823D01*
X128425024Y-103197242D01*
X128354114Y-103329906D01*
X128346004Y-103345078D01*
X128239659Y-103474659D01*
X128110078Y-103581004D01*
X128110076Y-103581005D01*
X127962242Y-103660024D01*
X127801823Y-103708687D01*
X127676804Y-103721000D01*
X127593196Y-103721000D01*
X127468177Y-103708687D01*
X127307758Y-103660024D01*
X127159924Y-103581005D01*
X127159922Y-103581004D01*
X127030341Y-103474659D01*
X126923996Y-103345078D01*
X126915886Y-103329906D01*
X126844976Y-103197242D01*
X126796313Y-103036823D01*
X126779883Y-102870000D01*
X126796313Y-102703177D01*
X126844976Y-102542758D01*
X126923995Y-102394924D01*
X126923996Y-102394922D01*
X127030341Y-102265341D01*
X127159922Y-102158996D01*
X127175094Y-102150886D01*
X127307758Y-102079976D01*
X127468177Y-102031313D01*
X127593196Y-102019000D01*
X127676804Y-102019000D01*
X127801823Y-102031313D01*
X127801823Y-102031313D01*
G37*
G36*
X120533604Y-99408347D02*
G01*
X120570144Y-99419432D01*
X120603821Y-99437433D01*
X120633341Y-99461659D01*
X120657567Y-99491179D01*
X120675568Y-99524856D01*
X120686653Y-99561396D01*
X120691000Y-99605538D01*
X120691000Y-101054462D01*
X120686653Y-101098604D01*
X120675568Y-101135144D01*
X120657567Y-101168821D01*
X120633341Y-101198341D01*
X120603821Y-101222567D01*
X120570144Y-101240568D01*
X120533604Y-101251653D01*
X120489462Y-101256000D01*
X119540538Y-101256000D01*
X119496396Y-101251653D01*
X119459856Y-101240568D01*
X119426179Y-101222567D01*
X119396659Y-101198341D01*
X119372433Y-101168821D01*
X119354432Y-101135144D01*
X119343347Y-101098604D01*
X119339000Y-101054462D01*
X119339000Y-99605538D01*
X119343347Y-99561396D01*
X119354432Y-99524856D01*
X119372433Y-99491179D01*
X119396659Y-99461659D01*
X119426179Y-99437433D01*
X119459856Y-99419432D01*
X119496396Y-99408347D01*
X119540538Y-99404000D01*
X120489462Y-99404000D01*
X120533604Y-99408347D01*
X120533604Y-99408347D01*
G37*
G36*
X117733604Y-99408347D02*
G01*
X117770144Y-99419432D01*
X117803821Y-99437433D01*
X117833341Y-99461659D01*
X117857567Y-99491179D01*
X117875568Y-99524856D01*
X117886653Y-99561396D01*
X117891000Y-99605538D01*
X117891000Y-101054462D01*
X117886653Y-101098604D01*
X117875568Y-101135144D01*
X117857567Y-101168821D01*
X117833341Y-101198341D01*
X117803821Y-101222567D01*
X117770144Y-101240568D01*
X117733604Y-101251653D01*
X117689462Y-101256000D01*
X116740538Y-101256000D01*
X116696396Y-101251653D01*
X116659856Y-101240568D01*
X116626179Y-101222567D01*
X116596659Y-101198341D01*
X116572433Y-101168821D01*
X116554432Y-101135144D01*
X116543347Y-101098604D01*
X116539000Y-101054462D01*
X116539000Y-99605538D01*
X116543347Y-99561396D01*
X116554432Y-99524856D01*
X116572433Y-99491179D01*
X116596659Y-99461659D01*
X116626179Y-99437433D01*
X116659856Y-99419432D01*
X116696396Y-99408347D01*
X116740538Y-99404000D01*
X117689462Y-99404000D01*
X117733604Y-99408347D01*
X117733604Y-99408347D01*
G37*
G36*
X127801823Y-99491313D02*
G01*
X127962242Y-99539976D01*
X128084900Y-99605538D01*
X128110078Y-99618996D01*
X128239659Y-99725341D01*
X128346004Y-99854922D01*
X128346005Y-99854924D01*
X128425024Y-100002758D01*
X128473687Y-100163177D01*
X128490117Y-100330000D01*
X128473687Y-100496823D01*
X128425024Y-100657242D01*
X128354114Y-100789906D01*
X128346004Y-100805078D01*
X128239659Y-100934659D01*
X128110078Y-101041004D01*
X128110076Y-101041005D01*
X127962242Y-101120024D01*
X127801823Y-101168687D01*
X127676804Y-101181000D01*
X127593196Y-101181000D01*
X127468177Y-101168687D01*
X127307758Y-101120024D01*
X127159924Y-101041005D01*
X127159922Y-101041004D01*
X127030341Y-100934659D01*
X126923996Y-100805078D01*
X126915886Y-100789906D01*
X126844976Y-100657242D01*
X126796313Y-100496823D01*
X126779883Y-100330000D01*
X126796313Y-100163177D01*
X126844976Y-100002758D01*
X126923995Y-99854924D01*
X126923996Y-99854922D01*
X127030341Y-99725341D01*
X127159922Y-99618996D01*
X127185100Y-99605538D01*
X127307758Y-99539976D01*
X127468177Y-99491313D01*
X127593196Y-99479000D01*
X127676804Y-99479000D01*
X127801823Y-99491313D01*
X127801823Y-99491313D01*
G37*
G36*
X135421823Y-99491313D02*
G01*
X135582242Y-99539976D01*
X135704900Y-99605538D01*
X135730078Y-99618996D01*
X135859659Y-99725341D01*
X135966004Y-99854922D01*
X135966005Y-99854924D01*
X136045024Y-100002758D01*
X136093687Y-100163177D01*
X136110117Y-100330000D01*
X136093687Y-100496823D01*
X136045024Y-100657242D01*
X135974114Y-100789906D01*
X135966004Y-100805078D01*
X135859659Y-100934659D01*
X135730078Y-101041004D01*
X135730076Y-101041005D01*
X135582242Y-101120024D01*
X135421823Y-101168687D01*
X135296804Y-101181000D01*
X135213196Y-101181000D01*
X135088177Y-101168687D01*
X134927758Y-101120024D01*
X134779924Y-101041005D01*
X134779922Y-101041004D01*
X134650341Y-100934659D01*
X134543996Y-100805078D01*
X134535886Y-100789906D01*
X134464976Y-100657242D01*
X134416313Y-100496823D01*
X134399883Y-100330000D01*
X134416313Y-100163177D01*
X134464976Y-100002758D01*
X134543995Y-99854924D01*
X134543996Y-99854922D01*
X134650341Y-99725341D01*
X134779922Y-99618996D01*
X134805100Y-99605538D01*
X134927758Y-99539976D01*
X135088177Y-99491313D01*
X135213196Y-99479000D01*
X135296804Y-99479000D01*
X135421823Y-99491313D01*
X135421823Y-99491313D01*
G37*
G36*
X144255442Y-96895518D02*
G01*
X144321627Y-96902037D01*
X144491466Y-96953557D01*
X144647991Y-97037222D01*
X144683729Y-97066552D01*
X144785186Y-97149814D01*
X144868448Y-97251271D01*
X144897778Y-97287009D01*
X144981443Y-97443534D01*
X145032963Y-97613373D01*
X145050359Y-97790000D01*
X145032963Y-97966627D01*
X144981443Y-98136466D01*
X144897778Y-98292991D01*
X144868448Y-98328729D01*
X144785186Y-98430186D01*
X144683729Y-98513448D01*
X144647991Y-98542778D01*
X144491466Y-98626443D01*
X144321627Y-98677963D01*
X144255442Y-98684482D01*
X144189260Y-98691000D01*
X144100740Y-98691000D01*
X144034558Y-98684482D01*
X143968373Y-98677963D01*
X143798534Y-98626443D01*
X143642009Y-98542778D01*
X143606271Y-98513448D01*
X143504814Y-98430186D01*
X143421552Y-98328729D01*
X143392222Y-98292991D01*
X143308557Y-98136466D01*
X143257037Y-97966627D01*
X143239641Y-97790000D01*
X143257037Y-97613373D01*
X143308557Y-97443534D01*
X143392222Y-97287009D01*
X143421552Y-97251271D01*
X143504814Y-97149814D01*
X143606271Y-97066552D01*
X143642009Y-97037222D01*
X143798534Y-96953557D01*
X143968373Y-96902037D01*
X144034558Y-96895518D01*
X144100740Y-96889000D01*
X144189260Y-96889000D01*
X144255442Y-96895518D01*
X144255442Y-96895518D01*
G37*
G36*
X127801823Y-96951313D02*
G01*
X127962242Y-96999976D01*
X128031922Y-97037221D01*
X128110078Y-97078996D01*
X128239659Y-97185341D01*
X128346004Y-97314922D01*
X128346005Y-97314924D01*
X128425024Y-97462758D01*
X128473687Y-97623177D01*
X128490117Y-97790000D01*
X128473687Y-97956823D01*
X128425024Y-98117242D01*
X128414747Y-98136468D01*
X128346004Y-98265078D01*
X128239659Y-98394659D01*
X128110078Y-98501004D01*
X128110076Y-98501005D01*
X127962242Y-98580024D01*
X127801823Y-98628687D01*
X127676804Y-98641000D01*
X127593196Y-98641000D01*
X127468177Y-98628687D01*
X127307758Y-98580024D01*
X127159924Y-98501005D01*
X127159922Y-98501004D01*
X127030341Y-98394659D01*
X126923996Y-98265078D01*
X126855253Y-98136468D01*
X126844976Y-98117242D01*
X126796313Y-97956823D01*
X126779883Y-97790000D01*
X126796313Y-97623177D01*
X126844976Y-97462758D01*
X126923995Y-97314924D01*
X126923996Y-97314922D01*
X127030341Y-97185341D01*
X127159922Y-97078996D01*
X127238078Y-97037221D01*
X127307758Y-96999976D01*
X127468177Y-96951313D01*
X127593196Y-96939000D01*
X127676804Y-96939000D01*
X127801823Y-96951313D01*
X127801823Y-96951313D01*
G37*
G36*
X135421823Y-96951313D02*
G01*
X135582242Y-96999976D01*
X135651922Y-97037221D01*
X135730078Y-97078996D01*
X135859659Y-97185341D01*
X135966004Y-97314922D01*
X135966005Y-97314924D01*
X136045024Y-97462758D01*
X136093687Y-97623177D01*
X136110117Y-97790000D01*
X136093687Y-97956823D01*
X136045024Y-98117242D01*
X136034747Y-98136468D01*
X135966004Y-98265078D01*
X135859659Y-98394659D01*
X135730078Y-98501004D01*
X135730076Y-98501005D01*
X135582242Y-98580024D01*
X135421823Y-98628687D01*
X135296804Y-98641000D01*
X135213196Y-98641000D01*
X135088177Y-98628687D01*
X134927758Y-98580024D01*
X134779924Y-98501005D01*
X134779922Y-98501004D01*
X134650341Y-98394659D01*
X134543996Y-98265078D01*
X134475253Y-98136468D01*
X134464976Y-98117242D01*
X134416313Y-97956823D01*
X134399883Y-97790000D01*
X134416313Y-97623177D01*
X134464976Y-97462758D01*
X134543995Y-97314924D01*
X134543996Y-97314922D01*
X134650341Y-97185341D01*
X134779922Y-97078996D01*
X134858078Y-97037221D01*
X134927758Y-96999976D01*
X135088177Y-96951313D01*
X135213196Y-96939000D01*
X135296804Y-96939000D01*
X135421823Y-96951313D01*
X135421823Y-96951313D01*
G37*
G36*
X120663604Y-94328347D02*
G01*
X120700144Y-94339432D01*
X120733821Y-94357433D01*
X120763341Y-94381659D01*
X120787567Y-94411179D01*
X120805568Y-94444856D01*
X120816653Y-94481396D01*
X120821000Y-94525538D01*
X120821000Y-95974462D01*
X120816653Y-96018604D01*
X120805568Y-96055144D01*
X120787567Y-96088821D01*
X120763341Y-96118341D01*
X120733821Y-96142567D01*
X120700144Y-96160568D01*
X120663604Y-96171653D01*
X120619462Y-96176000D01*
X119670538Y-96176000D01*
X119626396Y-96171653D01*
X119589856Y-96160568D01*
X119556179Y-96142567D01*
X119526659Y-96118341D01*
X119502433Y-96088821D01*
X119484432Y-96055144D01*
X119473347Y-96018604D01*
X119469000Y-95974462D01*
X119469000Y-94525538D01*
X119473347Y-94481396D01*
X119484432Y-94444856D01*
X119502433Y-94411179D01*
X119526659Y-94381659D01*
X119556179Y-94357433D01*
X119589856Y-94339432D01*
X119626396Y-94328347D01*
X119670538Y-94324000D01*
X120619462Y-94324000D01*
X120663604Y-94328347D01*
X120663604Y-94328347D01*
G37*
G36*
X117863604Y-94328347D02*
G01*
X117900144Y-94339432D01*
X117933821Y-94357433D01*
X117963341Y-94381659D01*
X117987567Y-94411179D01*
X118005568Y-94444856D01*
X118016653Y-94481396D01*
X118021000Y-94525538D01*
X118021000Y-95974462D01*
X118016653Y-96018604D01*
X118005568Y-96055144D01*
X117987567Y-96088821D01*
X117963341Y-96118341D01*
X117933821Y-96142567D01*
X117900144Y-96160568D01*
X117863604Y-96171653D01*
X117819462Y-96176000D01*
X116870538Y-96176000D01*
X116826396Y-96171653D01*
X116789856Y-96160568D01*
X116756179Y-96142567D01*
X116726659Y-96118341D01*
X116702433Y-96088821D01*
X116684432Y-96055144D01*
X116673347Y-96018604D01*
X116669000Y-95974462D01*
X116669000Y-94525538D01*
X116673347Y-94481396D01*
X116684432Y-94444856D01*
X116702433Y-94411179D01*
X116726659Y-94381659D01*
X116756179Y-94357433D01*
X116789856Y-94339432D01*
X116826396Y-94328347D01*
X116870538Y-94324000D01*
X117819462Y-94324000D01*
X117863604Y-94328347D01*
X117863604Y-94328347D01*
G37*
G36*
X144255442Y-94355518D02*
G01*
X144321627Y-94362037D01*
X144491466Y-94413557D01*
X144647991Y-94497222D01*
X144682494Y-94525538D01*
X144785186Y-94609814D01*
X144868448Y-94711271D01*
X144897778Y-94747009D01*
X144981443Y-94903534D01*
X145032963Y-95073373D01*
X145050359Y-95250000D01*
X145032963Y-95426627D01*
X144981443Y-95596466D01*
X144897778Y-95752991D01*
X144868448Y-95788729D01*
X144785186Y-95890186D01*
X144683729Y-95973448D01*
X144647991Y-96002778D01*
X144491466Y-96086443D01*
X144321627Y-96137963D01*
X144255443Y-96144481D01*
X144189260Y-96151000D01*
X144100740Y-96151000D01*
X144034558Y-96144482D01*
X143968373Y-96137963D01*
X143798534Y-96086443D01*
X143642009Y-96002778D01*
X143606271Y-95973448D01*
X143504814Y-95890186D01*
X143421552Y-95788729D01*
X143392222Y-95752991D01*
X143308557Y-95596466D01*
X143257037Y-95426627D01*
X143239641Y-95250000D01*
X143257037Y-95073373D01*
X143308557Y-94903534D01*
X143392222Y-94747009D01*
X143421552Y-94711271D01*
X143504814Y-94609814D01*
X143607506Y-94525538D01*
X143642009Y-94497222D01*
X143798534Y-94413557D01*
X143968373Y-94362037D01*
X144034557Y-94355519D01*
X144100740Y-94349000D01*
X144189260Y-94349000D01*
X144255442Y-94355518D01*
X144255442Y-94355518D01*
G37*
G36*
X127801823Y-94411313D02*
G01*
X127962242Y-94459976D01*
X128031922Y-94497221D01*
X128110078Y-94538996D01*
X128239659Y-94645341D01*
X128346004Y-94774922D01*
X128346005Y-94774924D01*
X128425024Y-94922758D01*
X128473687Y-95083177D01*
X128490117Y-95250000D01*
X128473687Y-95416823D01*
X128425024Y-95577242D01*
X128414747Y-95596468D01*
X128346004Y-95725078D01*
X128239659Y-95854659D01*
X128110078Y-95961004D01*
X128110076Y-95961005D01*
X127962242Y-96040024D01*
X127801823Y-96088687D01*
X127676804Y-96101000D01*
X127593196Y-96101000D01*
X127468177Y-96088687D01*
X127307758Y-96040024D01*
X127159924Y-95961005D01*
X127159922Y-95961004D01*
X127030341Y-95854659D01*
X126923996Y-95725078D01*
X126855253Y-95596468D01*
X126844976Y-95577242D01*
X126796313Y-95416823D01*
X126779883Y-95250000D01*
X126796313Y-95083177D01*
X126844976Y-94922758D01*
X126923995Y-94774924D01*
X126923996Y-94774922D01*
X127030341Y-94645341D01*
X127159922Y-94538996D01*
X127238078Y-94497221D01*
X127307758Y-94459976D01*
X127468177Y-94411313D01*
X127593196Y-94399000D01*
X127676804Y-94399000D01*
X127801823Y-94411313D01*
X127801823Y-94411313D01*
G37*
G36*
X135421823Y-94411313D02*
G01*
X135582242Y-94459976D01*
X135651922Y-94497221D01*
X135730078Y-94538996D01*
X135859659Y-94645341D01*
X135966004Y-94774922D01*
X135966005Y-94774924D01*
X136045024Y-94922758D01*
X136093687Y-95083177D01*
X136110117Y-95250000D01*
X136093687Y-95416823D01*
X136045024Y-95577242D01*
X136034747Y-95596468D01*
X135966004Y-95725078D01*
X135859659Y-95854659D01*
X135730078Y-95961004D01*
X135730076Y-95961005D01*
X135582242Y-96040024D01*
X135421823Y-96088687D01*
X135296804Y-96101000D01*
X135213196Y-96101000D01*
X135088177Y-96088687D01*
X134927758Y-96040024D01*
X134779924Y-95961005D01*
X134779922Y-95961004D01*
X134650341Y-95854659D01*
X134543996Y-95725078D01*
X134475253Y-95596468D01*
X134464976Y-95577242D01*
X134416313Y-95416823D01*
X134399883Y-95250000D01*
X134416313Y-95083177D01*
X134464976Y-94922758D01*
X134543995Y-94774924D01*
X134543996Y-94774922D01*
X134650341Y-94645341D01*
X134779922Y-94538996D01*
X134858078Y-94497221D01*
X134927758Y-94459976D01*
X135088177Y-94411313D01*
X135213196Y-94399000D01*
X135296804Y-94399000D01*
X135421823Y-94411313D01*
X135421823Y-94411313D01*
G37*
G36*
X144255442Y-91815518D02*
G01*
X144321627Y-91822037D01*
X144491466Y-91873557D01*
X144647991Y-91957222D01*
X144683729Y-91986552D01*
X144785186Y-92069814D01*
X144868448Y-92171271D01*
X144897778Y-92207009D01*
X144981443Y-92363534D01*
X145032963Y-92533373D01*
X145050359Y-92710000D01*
X145032963Y-92886627D01*
X144981443Y-93056466D01*
X144897778Y-93212991D01*
X144868448Y-93248729D01*
X144785186Y-93350186D01*
X144683729Y-93433448D01*
X144647991Y-93462778D01*
X144491466Y-93546443D01*
X144321627Y-93597963D01*
X144255442Y-93604482D01*
X144189260Y-93611000D01*
X144100740Y-93611000D01*
X144034557Y-93604481D01*
X143968373Y-93597963D01*
X143798534Y-93546443D01*
X143642009Y-93462778D01*
X143606271Y-93433448D01*
X143504814Y-93350186D01*
X143421552Y-93248729D01*
X143392222Y-93212991D01*
X143308557Y-93056466D01*
X143257037Y-92886627D01*
X143239641Y-92710000D01*
X143257037Y-92533373D01*
X143308557Y-92363534D01*
X143392222Y-92207009D01*
X143421552Y-92171271D01*
X143504814Y-92069814D01*
X143606271Y-91986552D01*
X143642009Y-91957222D01*
X143798534Y-91873557D01*
X143968373Y-91822037D01*
X144034558Y-91815518D01*
X144100740Y-91809000D01*
X144189260Y-91809000D01*
X144255442Y-91815518D01*
X144255442Y-91815518D01*
G37*
G36*
X111235442Y-91815518D02*
G01*
X111301627Y-91822037D01*
X111471466Y-91873557D01*
X111627991Y-91957222D01*
X111663729Y-91986552D01*
X111765186Y-92069814D01*
X111848448Y-92171271D01*
X111877778Y-92207009D01*
X111961443Y-92363534D01*
X112012963Y-92533373D01*
X112030359Y-92710000D01*
X112012963Y-92886627D01*
X111961443Y-93056466D01*
X111877778Y-93212991D01*
X111848448Y-93248729D01*
X111765186Y-93350186D01*
X111663729Y-93433448D01*
X111627991Y-93462778D01*
X111471466Y-93546443D01*
X111301627Y-93597963D01*
X111235443Y-93604481D01*
X111169260Y-93611000D01*
X111080740Y-93611000D01*
X111014557Y-93604481D01*
X110948373Y-93597963D01*
X110778534Y-93546443D01*
X110622009Y-93462778D01*
X110586271Y-93433448D01*
X110484814Y-93350186D01*
X110401552Y-93248729D01*
X110372222Y-93212991D01*
X110288557Y-93056466D01*
X110237037Y-92886627D01*
X110219641Y-92710000D01*
X110237037Y-92533373D01*
X110288557Y-92363534D01*
X110372222Y-92207009D01*
X110401552Y-92171271D01*
X110484814Y-92069814D01*
X110586271Y-91986552D01*
X110622009Y-91957222D01*
X110778534Y-91873557D01*
X110948373Y-91822037D01*
X111014558Y-91815518D01*
X111080740Y-91809000D01*
X111169260Y-91809000D01*
X111235442Y-91815518D01*
X111235442Y-91815518D01*
G37*
G36*
X135421823Y-91871313D02*
G01*
X135582242Y-91919976D01*
X135651922Y-91957221D01*
X135730078Y-91998996D01*
X135859659Y-92105341D01*
X135966004Y-92234922D01*
X135966005Y-92234924D01*
X136045024Y-92382758D01*
X136093687Y-92543177D01*
X136110117Y-92710000D01*
X136093687Y-92876823D01*
X136045024Y-93037242D01*
X136034747Y-93056468D01*
X135966004Y-93185078D01*
X135859659Y-93314659D01*
X135730078Y-93421004D01*
X135730076Y-93421005D01*
X135582242Y-93500024D01*
X135421823Y-93548687D01*
X135296804Y-93561000D01*
X135213196Y-93561000D01*
X135088177Y-93548687D01*
X134927758Y-93500024D01*
X134779924Y-93421005D01*
X134779922Y-93421004D01*
X134650341Y-93314659D01*
X134543996Y-93185078D01*
X134475253Y-93056468D01*
X134464976Y-93037242D01*
X134416313Y-92876823D01*
X134399883Y-92710000D01*
X134416313Y-92543177D01*
X134464976Y-92382758D01*
X134543995Y-92234924D01*
X134543996Y-92234922D01*
X134650341Y-92105341D01*
X134779922Y-91998996D01*
X134858078Y-91957221D01*
X134927758Y-91919976D01*
X135088177Y-91871313D01*
X135213196Y-91859000D01*
X135296804Y-91859000D01*
X135421823Y-91871313D01*
X135421823Y-91871313D01*
G37*
G36*
X127801823Y-91871313D02*
G01*
X127962242Y-91919976D01*
X128031922Y-91957221D01*
X128110078Y-91998996D01*
X128239659Y-92105341D01*
X128346004Y-92234922D01*
X128346005Y-92234924D01*
X128425024Y-92382758D01*
X128473687Y-92543177D01*
X128490117Y-92710000D01*
X128473687Y-92876823D01*
X128425024Y-93037242D01*
X128414747Y-93056468D01*
X128346004Y-93185078D01*
X128239659Y-93314659D01*
X128110078Y-93421004D01*
X128110076Y-93421005D01*
X127962242Y-93500024D01*
X127801823Y-93548687D01*
X127676804Y-93561000D01*
X127593196Y-93561000D01*
X127468177Y-93548687D01*
X127307758Y-93500024D01*
X127159924Y-93421005D01*
X127159922Y-93421004D01*
X127030341Y-93314659D01*
X126923996Y-93185078D01*
X126855253Y-93056468D01*
X126844976Y-93037242D01*
X126796313Y-92876823D01*
X126779883Y-92710000D01*
X126796313Y-92543177D01*
X126844976Y-92382758D01*
X126923995Y-92234924D01*
X126923996Y-92234922D01*
X127030341Y-92105341D01*
X127159922Y-91998996D01*
X127238078Y-91957221D01*
X127307758Y-91919976D01*
X127468177Y-91871313D01*
X127593196Y-91859000D01*
X127676804Y-91859000D01*
X127801823Y-91871313D01*
X127801823Y-91871313D01*
G37*
G36*
X144255443Y-89275519D02*
G01*
X144321627Y-89282037D01*
X144491466Y-89333557D01*
X144647991Y-89417222D01*
X144683729Y-89446552D01*
X144785186Y-89529814D01*
X144868448Y-89631271D01*
X144897778Y-89667009D01*
X144981443Y-89823534D01*
X145032963Y-89993373D01*
X145050359Y-90170000D01*
X145032963Y-90346627D01*
X144981443Y-90516466D01*
X144897778Y-90672991D01*
X144868448Y-90708729D01*
X144785186Y-90810186D01*
X144683729Y-90893448D01*
X144647991Y-90922778D01*
X144491466Y-91006443D01*
X144321627Y-91057963D01*
X144255442Y-91064482D01*
X144189260Y-91071000D01*
X144100740Y-91071000D01*
X144034558Y-91064482D01*
X143968373Y-91057963D01*
X143798534Y-91006443D01*
X143642009Y-90922778D01*
X143606271Y-90893448D01*
X143504814Y-90810186D01*
X143421552Y-90708729D01*
X143392222Y-90672991D01*
X143308557Y-90516466D01*
X143257037Y-90346627D01*
X143239641Y-90170000D01*
X143257037Y-89993373D01*
X143308557Y-89823534D01*
X143392222Y-89667009D01*
X143421552Y-89631271D01*
X143504814Y-89529814D01*
X143606271Y-89446552D01*
X143642009Y-89417222D01*
X143798534Y-89333557D01*
X143968373Y-89282037D01*
X144034557Y-89275519D01*
X144100740Y-89269000D01*
X144189260Y-89269000D01*
X144255443Y-89275519D01*
X144255443Y-89275519D01*
G37*
G36*
X111235443Y-89275519D02*
G01*
X111301627Y-89282037D01*
X111471466Y-89333557D01*
X111627991Y-89417222D01*
X111663729Y-89446552D01*
X111765186Y-89529814D01*
X111848448Y-89631271D01*
X111877778Y-89667009D01*
X111961443Y-89823534D01*
X112012963Y-89993373D01*
X112030359Y-90170000D01*
X112012963Y-90346627D01*
X111961443Y-90516466D01*
X111877778Y-90672991D01*
X111848448Y-90708729D01*
X111765186Y-90810186D01*
X111663729Y-90893448D01*
X111627991Y-90922778D01*
X111471466Y-91006443D01*
X111301627Y-91057963D01*
X111235442Y-91064482D01*
X111169260Y-91071000D01*
X111080740Y-91071000D01*
X111014558Y-91064482D01*
X110948373Y-91057963D01*
X110778534Y-91006443D01*
X110622009Y-90922778D01*
X110586271Y-90893448D01*
X110484814Y-90810186D01*
X110401552Y-90708729D01*
X110372222Y-90672991D01*
X110288557Y-90516466D01*
X110237037Y-90346627D01*
X110219641Y-90170000D01*
X110237037Y-89993373D01*
X110288557Y-89823534D01*
X110372222Y-89667009D01*
X110401552Y-89631271D01*
X110484814Y-89529814D01*
X110586271Y-89446552D01*
X110622009Y-89417222D01*
X110778534Y-89333557D01*
X110948373Y-89282037D01*
X111014557Y-89275519D01*
X111080740Y-89269000D01*
X111169260Y-89269000D01*
X111235443Y-89275519D01*
X111235443Y-89275519D01*
G37*
G36*
X135421823Y-89331313D02*
G01*
X135582242Y-89379976D01*
X135651922Y-89417221D01*
X135730078Y-89458996D01*
X135859659Y-89565341D01*
X135966004Y-89694922D01*
X135966005Y-89694924D01*
X136045024Y-89842758D01*
X136093687Y-90003177D01*
X136110117Y-90170000D01*
X136093687Y-90336823D01*
X136045024Y-90497242D01*
X136034747Y-90516468D01*
X135966004Y-90645078D01*
X135859659Y-90774659D01*
X135730078Y-90881004D01*
X135730076Y-90881005D01*
X135582242Y-90960024D01*
X135421823Y-91008687D01*
X135296804Y-91021000D01*
X135213196Y-91021000D01*
X135088177Y-91008687D01*
X134927758Y-90960024D01*
X134779924Y-90881005D01*
X134779922Y-90881004D01*
X134650341Y-90774659D01*
X134543996Y-90645078D01*
X134475253Y-90516468D01*
X134464976Y-90497242D01*
X134416313Y-90336823D01*
X134399883Y-90170000D01*
X134416313Y-90003177D01*
X134464976Y-89842758D01*
X134543995Y-89694924D01*
X134543996Y-89694922D01*
X134650341Y-89565341D01*
X134779922Y-89458996D01*
X134858078Y-89417221D01*
X134927758Y-89379976D01*
X135088177Y-89331313D01*
X135213196Y-89319000D01*
X135296804Y-89319000D01*
X135421823Y-89331313D01*
X135421823Y-89331313D01*
G37*
G36*
X127801823Y-89331313D02*
G01*
X127962242Y-89379976D01*
X128031922Y-89417221D01*
X128110078Y-89458996D01*
X128239659Y-89565341D01*
X128346004Y-89694922D01*
X128346005Y-89694924D01*
X128425024Y-89842758D01*
X128473687Y-90003177D01*
X128490117Y-90170000D01*
X128473687Y-90336823D01*
X128425024Y-90497242D01*
X128414747Y-90516468D01*
X128346004Y-90645078D01*
X128239659Y-90774659D01*
X128110078Y-90881004D01*
X128110076Y-90881005D01*
X127962242Y-90960024D01*
X127801823Y-91008687D01*
X127676804Y-91021000D01*
X127593196Y-91021000D01*
X127468177Y-91008687D01*
X127307758Y-90960024D01*
X127159924Y-90881005D01*
X127159922Y-90881004D01*
X127030341Y-90774659D01*
X126923996Y-90645078D01*
X126855253Y-90516468D01*
X126844976Y-90497242D01*
X126796313Y-90336823D01*
X126779883Y-90170000D01*
X126796313Y-90003177D01*
X126844976Y-89842758D01*
X126923995Y-89694924D01*
X126923996Y-89694922D01*
X127030341Y-89565341D01*
X127159922Y-89458996D01*
X127238078Y-89417221D01*
X127307758Y-89379976D01*
X127468177Y-89331313D01*
X127593196Y-89319000D01*
X127676804Y-89319000D01*
X127801823Y-89331313D01*
X127801823Y-89331313D01*
G37*
G36*
X111235442Y-86735518D02*
G01*
X111301627Y-86742037D01*
X111471466Y-86793557D01*
X111627991Y-86877222D01*
X111663729Y-86906552D01*
X111765186Y-86989814D01*
X111848448Y-87091271D01*
X111877778Y-87127009D01*
X111961443Y-87283534D01*
X112012963Y-87453373D01*
X112030359Y-87630000D01*
X112012963Y-87806627D01*
X111961443Y-87976466D01*
X111877778Y-88132991D01*
X111848448Y-88168729D01*
X111765186Y-88270186D01*
X111663729Y-88353448D01*
X111627991Y-88382778D01*
X111471466Y-88466443D01*
X111301627Y-88517963D01*
X111235442Y-88524482D01*
X111169260Y-88531000D01*
X111080740Y-88531000D01*
X111014558Y-88524482D01*
X110948373Y-88517963D01*
X110778534Y-88466443D01*
X110622009Y-88382778D01*
X110586271Y-88353448D01*
X110484814Y-88270186D01*
X110401552Y-88168729D01*
X110372222Y-88132991D01*
X110288557Y-87976466D01*
X110237037Y-87806627D01*
X110219641Y-87630000D01*
X110237037Y-87453373D01*
X110288557Y-87283534D01*
X110372222Y-87127009D01*
X110401552Y-87091271D01*
X110484814Y-86989814D01*
X110586271Y-86906552D01*
X110622009Y-86877222D01*
X110778534Y-86793557D01*
X110948373Y-86742037D01*
X111014558Y-86735518D01*
X111080740Y-86729000D01*
X111169260Y-86729000D01*
X111235442Y-86735518D01*
X111235442Y-86735518D01*
G37*
G36*
X144255442Y-86735518D02*
G01*
X144321627Y-86742037D01*
X144491466Y-86793557D01*
X144647991Y-86877222D01*
X144683729Y-86906552D01*
X144785186Y-86989814D01*
X144868448Y-87091271D01*
X144897778Y-87127009D01*
X144981443Y-87283534D01*
X145032963Y-87453373D01*
X145050359Y-87630000D01*
X145032963Y-87806627D01*
X144981443Y-87976466D01*
X144897778Y-88132991D01*
X144868448Y-88168729D01*
X144785186Y-88270186D01*
X144683729Y-88353448D01*
X144647991Y-88382778D01*
X144491466Y-88466443D01*
X144321627Y-88517963D01*
X144255442Y-88524482D01*
X144189260Y-88531000D01*
X144100740Y-88531000D01*
X144034558Y-88524482D01*
X143968373Y-88517963D01*
X143798534Y-88466443D01*
X143642009Y-88382778D01*
X143606271Y-88353448D01*
X143504814Y-88270186D01*
X143421552Y-88168729D01*
X143392222Y-88132991D01*
X143308557Y-87976466D01*
X143257037Y-87806627D01*
X143239641Y-87630000D01*
X143257037Y-87453373D01*
X143308557Y-87283534D01*
X143392222Y-87127009D01*
X143421552Y-87091271D01*
X143504814Y-86989814D01*
X143606271Y-86906552D01*
X143642009Y-86877222D01*
X143798534Y-86793557D01*
X143968373Y-86742037D01*
X144034558Y-86735518D01*
X144100740Y-86729000D01*
X144189260Y-86729000D01*
X144255442Y-86735518D01*
X144255442Y-86735518D01*
G37*
G36*
X127801823Y-86791313D02*
G01*
X127962242Y-86839976D01*
X128031922Y-86877221D01*
X128110078Y-86918996D01*
X128239659Y-87025341D01*
X128346004Y-87154922D01*
X128346005Y-87154924D01*
X128425024Y-87302758D01*
X128473687Y-87463177D01*
X128490117Y-87630000D01*
X128473687Y-87796823D01*
X128425024Y-87957242D01*
X128414747Y-87976468D01*
X128346004Y-88105078D01*
X128239659Y-88234659D01*
X128110078Y-88341004D01*
X128110076Y-88341005D01*
X127962242Y-88420024D01*
X127801823Y-88468687D01*
X127676804Y-88481000D01*
X127593196Y-88481000D01*
X127468177Y-88468687D01*
X127307758Y-88420024D01*
X127159924Y-88341005D01*
X127159922Y-88341004D01*
X127030341Y-88234659D01*
X126923996Y-88105078D01*
X126855253Y-87976468D01*
X126844976Y-87957242D01*
X126796313Y-87796823D01*
X126779883Y-87630000D01*
X126796313Y-87463177D01*
X126844976Y-87302758D01*
X126923995Y-87154924D01*
X126923996Y-87154922D01*
X127030341Y-87025341D01*
X127159922Y-86918996D01*
X127238078Y-86877221D01*
X127307758Y-86839976D01*
X127468177Y-86791313D01*
X127593196Y-86779000D01*
X127676804Y-86779000D01*
X127801823Y-86791313D01*
X127801823Y-86791313D01*
G37*
G36*
X135421823Y-86791313D02*
G01*
X135582242Y-86839976D01*
X135651922Y-86877221D01*
X135730078Y-86918996D01*
X135859659Y-87025341D01*
X135966004Y-87154922D01*
X135966005Y-87154924D01*
X136045024Y-87302758D01*
X136093687Y-87463177D01*
X136110117Y-87630000D01*
X136093687Y-87796823D01*
X136045024Y-87957242D01*
X136034747Y-87976468D01*
X135966004Y-88105078D01*
X135859659Y-88234659D01*
X135730078Y-88341004D01*
X135730076Y-88341005D01*
X135582242Y-88420024D01*
X135421823Y-88468687D01*
X135296804Y-88481000D01*
X135213196Y-88481000D01*
X135088177Y-88468687D01*
X134927758Y-88420024D01*
X134779924Y-88341005D01*
X134779922Y-88341004D01*
X134650341Y-88234659D01*
X134543996Y-88105078D01*
X134475253Y-87976468D01*
X134464976Y-87957242D01*
X134416313Y-87796823D01*
X134399883Y-87630000D01*
X134416313Y-87463177D01*
X134464976Y-87302758D01*
X134543995Y-87154924D01*
X134543996Y-87154922D01*
X134650341Y-87025341D01*
X134779922Y-86918996D01*
X134858078Y-86877221D01*
X134927758Y-86839976D01*
X135088177Y-86791313D01*
X135213196Y-86779000D01*
X135296804Y-86779000D01*
X135421823Y-86791313D01*
X135421823Y-86791313D01*
G37*
G36*
X120916000Y-87261000D02*
G01*
X119114000Y-87261000D01*
X119114000Y-85459000D01*
X120916000Y-85459000D01*
X120916000Y-87261000D01*
X120916000Y-87261000D01*
G37*
G36*
X117585442Y-85465518D02*
G01*
X117651627Y-85472037D01*
X117821466Y-85523557D01*
X117977991Y-85607222D01*
X118013729Y-85636552D01*
X118115186Y-85719814D01*
X118198448Y-85821271D01*
X118227778Y-85857009D01*
X118311443Y-86013534D01*
X118362963Y-86183373D01*
X118380359Y-86360000D01*
X118362963Y-86536627D01*
X118311443Y-86706466D01*
X118227778Y-86862991D01*
X118198448Y-86898729D01*
X118115186Y-87000186D01*
X118013729Y-87083448D01*
X117977991Y-87112778D01*
X117821466Y-87196443D01*
X117651627Y-87247963D01*
X117585442Y-87254482D01*
X117519260Y-87261000D01*
X117430740Y-87261000D01*
X117364558Y-87254482D01*
X117298373Y-87247963D01*
X117128534Y-87196443D01*
X116972009Y-87112778D01*
X116936271Y-87083448D01*
X116834814Y-87000186D01*
X116751552Y-86898729D01*
X116722222Y-86862991D01*
X116638557Y-86706466D01*
X116587037Y-86536627D01*
X116569641Y-86360000D01*
X116587037Y-86183373D01*
X116638557Y-86013534D01*
X116722222Y-85857009D01*
X116751552Y-85821271D01*
X116834814Y-85719814D01*
X116936271Y-85636552D01*
X116972009Y-85607222D01*
X117128534Y-85523557D01*
X117298373Y-85472037D01*
X117364558Y-85465518D01*
X117430740Y-85459000D01*
X117519260Y-85459000D01*
X117585442Y-85465518D01*
X117585442Y-85465518D01*
G37*
G36*
X144255442Y-84195518D02*
G01*
X144321627Y-84202037D01*
X144491466Y-84253557D01*
X144647991Y-84337222D01*
X144683729Y-84366552D01*
X144785186Y-84449814D01*
X144868448Y-84551271D01*
X144897778Y-84587009D01*
X144981443Y-84743534D01*
X145032963Y-84913373D01*
X145050359Y-85090000D01*
X145032963Y-85266627D01*
X144981443Y-85436466D01*
X144897778Y-85592991D01*
X144868448Y-85628729D01*
X144785186Y-85730186D01*
X144683729Y-85813448D01*
X144647991Y-85842778D01*
X144491466Y-85926443D01*
X144321627Y-85977963D01*
X144255442Y-85984482D01*
X144189260Y-85991000D01*
X144100740Y-85991000D01*
X144034558Y-85984482D01*
X143968373Y-85977963D01*
X143798534Y-85926443D01*
X143642009Y-85842778D01*
X143606271Y-85813448D01*
X143504814Y-85730186D01*
X143421552Y-85628729D01*
X143392222Y-85592991D01*
X143308557Y-85436466D01*
X143257037Y-85266627D01*
X143239641Y-85090000D01*
X143257037Y-84913373D01*
X143308557Y-84743534D01*
X143392222Y-84587009D01*
X143421552Y-84551271D01*
X143504814Y-84449814D01*
X143606271Y-84366552D01*
X143642009Y-84337222D01*
X143798534Y-84253557D01*
X143968373Y-84202037D01*
X144034558Y-84195518D01*
X144100740Y-84189000D01*
X144189260Y-84189000D01*
X144255442Y-84195518D01*
X144255442Y-84195518D01*
G37*
G36*
X111235442Y-84195518D02*
G01*
X111301627Y-84202037D01*
X111471466Y-84253557D01*
X111627991Y-84337222D01*
X111663729Y-84366552D01*
X111765186Y-84449814D01*
X111848448Y-84551271D01*
X111877778Y-84587009D01*
X111961443Y-84743534D01*
X112012963Y-84913373D01*
X112030359Y-85090000D01*
X112012963Y-85266627D01*
X111961443Y-85436466D01*
X111877778Y-85592991D01*
X111848448Y-85628729D01*
X111765186Y-85730186D01*
X111663729Y-85813448D01*
X111627991Y-85842778D01*
X111471466Y-85926443D01*
X111301627Y-85977963D01*
X111235442Y-85984482D01*
X111169260Y-85991000D01*
X111080740Y-85991000D01*
X111014558Y-85984482D01*
X110948373Y-85977963D01*
X110778534Y-85926443D01*
X110622009Y-85842778D01*
X110586271Y-85813448D01*
X110484814Y-85730186D01*
X110401552Y-85628729D01*
X110372222Y-85592991D01*
X110288557Y-85436466D01*
X110237037Y-85266627D01*
X110219641Y-85090000D01*
X110237037Y-84913373D01*
X110288557Y-84743534D01*
X110372222Y-84587009D01*
X110401552Y-84551271D01*
X110484814Y-84449814D01*
X110586271Y-84366552D01*
X110622009Y-84337222D01*
X110778534Y-84253557D01*
X110948373Y-84202037D01*
X111014558Y-84195518D01*
X111080740Y-84189000D01*
X111169260Y-84189000D01*
X111235442Y-84195518D01*
X111235442Y-84195518D01*
G37*
G36*
X135421823Y-84251313D02*
G01*
X135582242Y-84299976D01*
X135651922Y-84337221D01*
X135730078Y-84378996D01*
X135859659Y-84485341D01*
X135966004Y-84614922D01*
X135966005Y-84614924D01*
X136045024Y-84762758D01*
X136093687Y-84923177D01*
X136110117Y-85090000D01*
X136093687Y-85256823D01*
X136045024Y-85417242D01*
X136015735Y-85472037D01*
X135966004Y-85565078D01*
X135859659Y-85694659D01*
X135730078Y-85801004D01*
X135730076Y-85801005D01*
X135582242Y-85880024D01*
X135421823Y-85928687D01*
X135296804Y-85941000D01*
X135213196Y-85941000D01*
X135088177Y-85928687D01*
X134927758Y-85880024D01*
X134779924Y-85801005D01*
X134779922Y-85801004D01*
X134650341Y-85694659D01*
X134543996Y-85565078D01*
X134494265Y-85472037D01*
X134464976Y-85417242D01*
X134416313Y-85256823D01*
X134399883Y-85090000D01*
X134416313Y-84923177D01*
X134464976Y-84762758D01*
X134543995Y-84614924D01*
X134543996Y-84614922D01*
X134650341Y-84485341D01*
X134779922Y-84378996D01*
X134858078Y-84337221D01*
X134927758Y-84299976D01*
X135088177Y-84251313D01*
X135213196Y-84239000D01*
X135296804Y-84239000D01*
X135421823Y-84251313D01*
X135421823Y-84251313D01*
G37*
G36*
X127801823Y-84251313D02*
G01*
X127962242Y-84299976D01*
X128031922Y-84337221D01*
X128110078Y-84378996D01*
X128239659Y-84485341D01*
X128346004Y-84614922D01*
X128346005Y-84614924D01*
X128425024Y-84762758D01*
X128473687Y-84923177D01*
X128490117Y-85090000D01*
X128473687Y-85256823D01*
X128425024Y-85417242D01*
X128395735Y-85472037D01*
X128346004Y-85565078D01*
X128239659Y-85694659D01*
X128110078Y-85801004D01*
X128110076Y-85801005D01*
X127962242Y-85880024D01*
X127801823Y-85928687D01*
X127676804Y-85941000D01*
X127593196Y-85941000D01*
X127468177Y-85928687D01*
X127307758Y-85880024D01*
X127159924Y-85801005D01*
X127159922Y-85801004D01*
X127030341Y-85694659D01*
X126923996Y-85565078D01*
X126874265Y-85472037D01*
X126844976Y-85417242D01*
X126796313Y-85256823D01*
X126779883Y-85090000D01*
X126796313Y-84923177D01*
X126844976Y-84762758D01*
X126923995Y-84614924D01*
X126923996Y-84614922D01*
X127030341Y-84485341D01*
X127159922Y-84378996D01*
X127238078Y-84337221D01*
X127307758Y-84299976D01*
X127468177Y-84251313D01*
X127593196Y-84239000D01*
X127676804Y-84239000D01*
X127801823Y-84251313D01*
X127801823Y-84251313D01*
G37*
G36*
X120125443Y-82925519D02*
G01*
X120191627Y-82932037D01*
X120361466Y-82983557D01*
X120517991Y-83067222D01*
X120553729Y-83096552D01*
X120655186Y-83179814D01*
X120738448Y-83281271D01*
X120767778Y-83317009D01*
X120851443Y-83473534D01*
X120902963Y-83643373D01*
X120920359Y-83820000D01*
X120902963Y-83996627D01*
X120851443Y-84166466D01*
X120767778Y-84322991D01*
X120738448Y-84358729D01*
X120655186Y-84460186D01*
X120553729Y-84543448D01*
X120517991Y-84572778D01*
X120361466Y-84656443D01*
X120191627Y-84707963D01*
X120125443Y-84714481D01*
X120059260Y-84721000D01*
X119970740Y-84721000D01*
X119904557Y-84714481D01*
X119838373Y-84707963D01*
X119668534Y-84656443D01*
X119512009Y-84572778D01*
X119476271Y-84543448D01*
X119374814Y-84460186D01*
X119291552Y-84358729D01*
X119262222Y-84322991D01*
X119178557Y-84166466D01*
X119127037Y-83996627D01*
X119109641Y-83820000D01*
X119127037Y-83643373D01*
X119178557Y-83473534D01*
X119262222Y-83317009D01*
X119291552Y-83281271D01*
X119374814Y-83179814D01*
X119476271Y-83096552D01*
X119512009Y-83067222D01*
X119668534Y-82983557D01*
X119838373Y-82932037D01*
X119904557Y-82925519D01*
X119970740Y-82919000D01*
X120059260Y-82919000D01*
X120125443Y-82925519D01*
X120125443Y-82925519D01*
G37*
G36*
X117585443Y-82925519D02*
G01*
X117651627Y-82932037D01*
X117821466Y-82983557D01*
X117977991Y-83067222D01*
X118013729Y-83096552D01*
X118115186Y-83179814D01*
X118198448Y-83281271D01*
X118227778Y-83317009D01*
X118311443Y-83473534D01*
X118362963Y-83643373D01*
X118380359Y-83820000D01*
X118362963Y-83996627D01*
X118311443Y-84166466D01*
X118227778Y-84322991D01*
X118198448Y-84358729D01*
X118115186Y-84460186D01*
X118013729Y-84543448D01*
X117977991Y-84572778D01*
X117821466Y-84656443D01*
X117651627Y-84707963D01*
X117585443Y-84714481D01*
X117519260Y-84721000D01*
X117430740Y-84721000D01*
X117364557Y-84714481D01*
X117298373Y-84707963D01*
X117128534Y-84656443D01*
X116972009Y-84572778D01*
X116936271Y-84543448D01*
X116834814Y-84460186D01*
X116751552Y-84358729D01*
X116722222Y-84322991D01*
X116638557Y-84166466D01*
X116587037Y-83996627D01*
X116569641Y-83820000D01*
X116587037Y-83643373D01*
X116638557Y-83473534D01*
X116722222Y-83317009D01*
X116751552Y-83281271D01*
X116834814Y-83179814D01*
X116936271Y-83096552D01*
X116972009Y-83067222D01*
X117128534Y-82983557D01*
X117298373Y-82932037D01*
X117364557Y-82925519D01*
X117430740Y-82919000D01*
X117519260Y-82919000D01*
X117585443Y-82925519D01*
X117585443Y-82925519D01*
G37*
G36*
X145046000Y-83451000D02*
G01*
X143244000Y-83451000D01*
X143244000Y-81649000D01*
X145046000Y-81649000D01*
X145046000Y-83451000D01*
X145046000Y-83451000D01*
G37*
G36*
X111235443Y-81655519D02*
G01*
X111301627Y-81662037D01*
X111471466Y-81713557D01*
X111627991Y-81797222D01*
X111663729Y-81826552D01*
X111765186Y-81909814D01*
X111848448Y-82011271D01*
X111877778Y-82047009D01*
X111961443Y-82203534D01*
X112012963Y-82373373D01*
X112030359Y-82550000D01*
X112012963Y-82726627D01*
X111961443Y-82896466D01*
X111877778Y-83052991D01*
X111848448Y-83088729D01*
X111765186Y-83190186D01*
X111663729Y-83273448D01*
X111627991Y-83302778D01*
X111471466Y-83386443D01*
X111301627Y-83437963D01*
X111235443Y-83444481D01*
X111169260Y-83451000D01*
X111080740Y-83451000D01*
X111014557Y-83444481D01*
X110948373Y-83437963D01*
X110778534Y-83386443D01*
X110622009Y-83302778D01*
X110586271Y-83273448D01*
X110484814Y-83190186D01*
X110401552Y-83088729D01*
X110372222Y-83052991D01*
X110288557Y-82896466D01*
X110237037Y-82726627D01*
X110219641Y-82550000D01*
X110237037Y-82373373D01*
X110288557Y-82203534D01*
X110372222Y-82047009D01*
X110401552Y-82011271D01*
X110484814Y-81909814D01*
X110586271Y-81826552D01*
X110622009Y-81797222D01*
X110778534Y-81713557D01*
X110948373Y-81662037D01*
X111014557Y-81655519D01*
X111080740Y-81649000D01*
X111169260Y-81649000D01*
X111235443Y-81655519D01*
X111235443Y-81655519D01*
G37*
G36*
X127801823Y-81711313D02*
G01*
X127962242Y-81759976D01*
X128031922Y-81797221D01*
X128110078Y-81838996D01*
X128239659Y-81945341D01*
X128346004Y-82074922D01*
X128346005Y-82074924D01*
X128425024Y-82222758D01*
X128473687Y-82383177D01*
X128490117Y-82550000D01*
X128473687Y-82716823D01*
X128425024Y-82877242D01*
X128395735Y-82932037D01*
X128346004Y-83025078D01*
X128239659Y-83154659D01*
X128110078Y-83261004D01*
X128110076Y-83261005D01*
X127962242Y-83340024D01*
X127801823Y-83388687D01*
X127676804Y-83401000D01*
X127593196Y-83401000D01*
X127468177Y-83388687D01*
X127307758Y-83340024D01*
X127159924Y-83261005D01*
X127159922Y-83261004D01*
X127030341Y-83154659D01*
X126923996Y-83025078D01*
X126874265Y-82932037D01*
X126844976Y-82877242D01*
X126796313Y-82716823D01*
X126779883Y-82550000D01*
X126796313Y-82383177D01*
X126844976Y-82222758D01*
X126923995Y-82074924D01*
X126923996Y-82074922D01*
X127030341Y-81945341D01*
X127159922Y-81838996D01*
X127238078Y-81797221D01*
X127307758Y-81759976D01*
X127468177Y-81711313D01*
X127593196Y-81699000D01*
X127676804Y-81699000D01*
X127801823Y-81711313D01*
X127801823Y-81711313D01*
G37*
G36*
X135421823Y-81711313D02*
G01*
X135582242Y-81759976D01*
X135651922Y-81797221D01*
X135730078Y-81838996D01*
X135859659Y-81945341D01*
X135966004Y-82074922D01*
X135966005Y-82074924D01*
X136045024Y-82222758D01*
X136093687Y-82383177D01*
X136110117Y-82550000D01*
X136093687Y-82716823D01*
X136045024Y-82877242D01*
X136015735Y-82932037D01*
X135966004Y-83025078D01*
X135859659Y-83154659D01*
X135730078Y-83261004D01*
X135730076Y-83261005D01*
X135582242Y-83340024D01*
X135421823Y-83388687D01*
X135296804Y-83401000D01*
X135213196Y-83401000D01*
X135088177Y-83388687D01*
X134927758Y-83340024D01*
X134779924Y-83261005D01*
X134779922Y-83261004D01*
X134650341Y-83154659D01*
X134543996Y-83025078D01*
X134494265Y-82932037D01*
X134464976Y-82877242D01*
X134416313Y-82716823D01*
X134399883Y-82550000D01*
X134416313Y-82383177D01*
X134464976Y-82222758D01*
X134543995Y-82074924D01*
X134543996Y-82074922D01*
X134650341Y-81945341D01*
X134779922Y-81838996D01*
X134858078Y-81797221D01*
X134927758Y-81759976D01*
X135088177Y-81711313D01*
X135213196Y-81699000D01*
X135296804Y-81699000D01*
X135421823Y-81711313D01*
X135421823Y-81711313D01*
G37*
G36*
X120125442Y-80385518D02*
G01*
X120191627Y-80392037D01*
X120361466Y-80443557D01*
X120517991Y-80527222D01*
X120553729Y-80556552D01*
X120655186Y-80639814D01*
X120738448Y-80741271D01*
X120767778Y-80777009D01*
X120851443Y-80933534D01*
X120902963Y-81103373D01*
X120920359Y-81280000D01*
X120902963Y-81456627D01*
X120851443Y-81626466D01*
X120767778Y-81782991D01*
X120738448Y-81818729D01*
X120655186Y-81920186D01*
X120553729Y-82003448D01*
X120517991Y-82032778D01*
X120361466Y-82116443D01*
X120191627Y-82167963D01*
X120125443Y-82174481D01*
X120059260Y-82181000D01*
X119970740Y-82181000D01*
X119904557Y-82174481D01*
X119838373Y-82167963D01*
X119668534Y-82116443D01*
X119512009Y-82032778D01*
X119476271Y-82003448D01*
X119374814Y-81920186D01*
X119291552Y-81818729D01*
X119262222Y-81782991D01*
X119178557Y-81626466D01*
X119127037Y-81456627D01*
X119109641Y-81280000D01*
X119127037Y-81103373D01*
X119178557Y-80933534D01*
X119262222Y-80777009D01*
X119291552Y-80741271D01*
X119374814Y-80639814D01*
X119476271Y-80556552D01*
X119512009Y-80527222D01*
X119668534Y-80443557D01*
X119838373Y-80392037D01*
X119904558Y-80385518D01*
X119970740Y-80379000D01*
X120059260Y-80379000D01*
X120125442Y-80385518D01*
X120125442Y-80385518D01*
G37*
G36*
X117585442Y-80385518D02*
G01*
X117651627Y-80392037D01*
X117821466Y-80443557D01*
X117977991Y-80527222D01*
X118013729Y-80556552D01*
X118115186Y-80639814D01*
X118198448Y-80741271D01*
X118227778Y-80777009D01*
X118311443Y-80933534D01*
X118362963Y-81103373D01*
X118380359Y-81280000D01*
X118362963Y-81456627D01*
X118311443Y-81626466D01*
X118227778Y-81782991D01*
X118198448Y-81818729D01*
X118115186Y-81920186D01*
X118013729Y-82003448D01*
X117977991Y-82032778D01*
X117821466Y-82116443D01*
X117651627Y-82167963D01*
X117585443Y-82174481D01*
X117519260Y-82181000D01*
X117430740Y-82181000D01*
X117364557Y-82174481D01*
X117298373Y-82167963D01*
X117128534Y-82116443D01*
X116972009Y-82032778D01*
X116936271Y-82003448D01*
X116834814Y-81920186D01*
X116751552Y-81818729D01*
X116722222Y-81782991D01*
X116638557Y-81626466D01*
X116587037Y-81456627D01*
X116569641Y-81280000D01*
X116587037Y-81103373D01*
X116638557Y-80933534D01*
X116722222Y-80777009D01*
X116751552Y-80741271D01*
X116834814Y-80639814D01*
X116936271Y-80556552D01*
X116972009Y-80527222D01*
X117128534Y-80443557D01*
X117298373Y-80392037D01*
X117364558Y-80385518D01*
X117430740Y-80379000D01*
X117519260Y-80379000D01*
X117585442Y-80385518D01*
X117585442Y-80385518D01*
G37*
G36*
X112026000Y-80911000D02*
G01*
X110224000Y-80911000D01*
X110224000Y-79109000D01*
X112026000Y-79109000D01*
X112026000Y-80911000D01*
X112026000Y-80911000D01*
G37*
G36*
X135421823Y-79171313D02*
G01*
X135582242Y-79219976D01*
X135714906Y-79290886D01*
X135730078Y-79298996D01*
X135859659Y-79405341D01*
X135966004Y-79534922D01*
X135966005Y-79534924D01*
X136045024Y-79682758D01*
X136093687Y-79843177D01*
X136110117Y-80010000D01*
X136093687Y-80176823D01*
X136045024Y-80337242D01*
X136015735Y-80392037D01*
X135966004Y-80485078D01*
X135859659Y-80614659D01*
X135730078Y-80721004D01*
X135730076Y-80721005D01*
X135582242Y-80800024D01*
X135421823Y-80848687D01*
X135296804Y-80861000D01*
X135213196Y-80861000D01*
X135088177Y-80848687D01*
X134927758Y-80800024D01*
X134779924Y-80721005D01*
X134779922Y-80721004D01*
X134650341Y-80614659D01*
X134543996Y-80485078D01*
X134494265Y-80392037D01*
X134464976Y-80337242D01*
X134416313Y-80176823D01*
X134399883Y-80010000D01*
X134416313Y-79843177D01*
X134464976Y-79682758D01*
X134543995Y-79534924D01*
X134543996Y-79534922D01*
X134650341Y-79405341D01*
X134779922Y-79298996D01*
X134795094Y-79290886D01*
X134927758Y-79219976D01*
X135088177Y-79171313D01*
X135213196Y-79159000D01*
X135296804Y-79159000D01*
X135421823Y-79171313D01*
X135421823Y-79171313D01*
G37*
G36*
X127801823Y-79171313D02*
G01*
X127962242Y-79219976D01*
X128094906Y-79290886D01*
X128110078Y-79298996D01*
X128239659Y-79405341D01*
X128346004Y-79534922D01*
X128346005Y-79534924D01*
X128425024Y-79682758D01*
X128473687Y-79843177D01*
X128490117Y-80010000D01*
X128473687Y-80176823D01*
X128425024Y-80337242D01*
X128395735Y-80392037D01*
X128346004Y-80485078D01*
X128239659Y-80614659D01*
X128110078Y-80721004D01*
X128110076Y-80721005D01*
X127962242Y-80800024D01*
X127801823Y-80848687D01*
X127676804Y-80861000D01*
X127593196Y-80861000D01*
X127468177Y-80848687D01*
X127307758Y-80800024D01*
X127159924Y-80721005D01*
X127159922Y-80721004D01*
X127030341Y-80614659D01*
X126923996Y-80485078D01*
X126874265Y-80392037D01*
X126844976Y-80337242D01*
X126796313Y-80176823D01*
X126779883Y-80010000D01*
X126796313Y-79843177D01*
X126844976Y-79682758D01*
X126923995Y-79534924D01*
X126923996Y-79534922D01*
X127030341Y-79405341D01*
X127159922Y-79298996D01*
X127175094Y-79290886D01*
X127307758Y-79219976D01*
X127468177Y-79171313D01*
X127593196Y-79159000D01*
X127676804Y-79159000D01*
X127801823Y-79171313D01*
X127801823Y-79171313D01*
G37*
G36*
X127801823Y-76631313D02*
G01*
X127962242Y-76679976D01*
X128094906Y-76750886D01*
X128110078Y-76758996D01*
X128239659Y-76865341D01*
X128346004Y-76994922D01*
X128346005Y-76994924D01*
X128425024Y-77142758D01*
X128473687Y-77303177D01*
X128490117Y-77470000D01*
X128473687Y-77636823D01*
X128425024Y-77797242D01*
X128354114Y-77929906D01*
X128346004Y-77945078D01*
X128239659Y-78074659D01*
X128110078Y-78181004D01*
X128110076Y-78181005D01*
X127962242Y-78260024D01*
X127801823Y-78308687D01*
X127676804Y-78321000D01*
X127593196Y-78321000D01*
X127468177Y-78308687D01*
X127307758Y-78260024D01*
X127159924Y-78181005D01*
X127159922Y-78181004D01*
X127030341Y-78074659D01*
X126923996Y-77945078D01*
X126915886Y-77929906D01*
X126844976Y-77797242D01*
X126796313Y-77636823D01*
X126779883Y-77470000D01*
X126796313Y-77303177D01*
X126844976Y-77142758D01*
X126923995Y-76994924D01*
X126923996Y-76994922D01*
X127030341Y-76865341D01*
X127159922Y-76758996D01*
X127175094Y-76750886D01*
X127307758Y-76679976D01*
X127468177Y-76631313D01*
X127593196Y-76619000D01*
X127676804Y-76619000D01*
X127801823Y-76631313D01*
X127801823Y-76631313D01*
G37*
G36*
X135421823Y-76631313D02*
G01*
X135582242Y-76679976D01*
X135714906Y-76750886D01*
X135730078Y-76758996D01*
X135859659Y-76865341D01*
X135966004Y-76994922D01*
X135966005Y-76994924D01*
X136045024Y-77142758D01*
X136093687Y-77303177D01*
X136110117Y-77470000D01*
X136093687Y-77636823D01*
X136045024Y-77797242D01*
X135974114Y-77929906D01*
X135966004Y-77945078D01*
X135859659Y-78074659D01*
X135730078Y-78181004D01*
X135730076Y-78181005D01*
X135582242Y-78260024D01*
X135421823Y-78308687D01*
X135296804Y-78321000D01*
X135213196Y-78321000D01*
X135088177Y-78308687D01*
X134927758Y-78260024D01*
X134779924Y-78181005D01*
X134779922Y-78181004D01*
X134650341Y-78074659D01*
X134543996Y-77945078D01*
X134535886Y-77929906D01*
X134464976Y-77797242D01*
X134416313Y-77636823D01*
X134399883Y-77470000D01*
X134416313Y-77303177D01*
X134464976Y-77142758D01*
X134543995Y-76994924D01*
X134543996Y-76994922D01*
X134650341Y-76865341D01*
X134779922Y-76758996D01*
X134795094Y-76750886D01*
X134927758Y-76679976D01*
X135088177Y-76631313D01*
X135213196Y-76619000D01*
X135296804Y-76619000D01*
X135421823Y-76631313D01*
X135421823Y-76631313D01*
G37*
G36*
X117733604Y-75278347D02*
G01*
X117770144Y-75289432D01*
X117803821Y-75307433D01*
X117833341Y-75331659D01*
X117857567Y-75361179D01*
X117875568Y-75394856D01*
X117886653Y-75431396D01*
X117891000Y-75475538D01*
X117891000Y-76924462D01*
X117886653Y-76968604D01*
X117875568Y-77005144D01*
X117857567Y-77038821D01*
X117833341Y-77068341D01*
X117803821Y-77092567D01*
X117770144Y-77110568D01*
X117733604Y-77121653D01*
X117689462Y-77126000D01*
X116740538Y-77126000D01*
X116696396Y-77121653D01*
X116659856Y-77110568D01*
X116626179Y-77092567D01*
X116596659Y-77068341D01*
X116572433Y-77038821D01*
X116554432Y-77005144D01*
X116543347Y-76968604D01*
X116539000Y-76924462D01*
X116539000Y-75475538D01*
X116543347Y-75431396D01*
X116554432Y-75394856D01*
X116572433Y-75361179D01*
X116596659Y-75331659D01*
X116626179Y-75307433D01*
X116659856Y-75289432D01*
X116696396Y-75278347D01*
X116740538Y-75274000D01*
X117689462Y-75274000D01*
X117733604Y-75278347D01*
X117733604Y-75278347D01*
G37*
G36*
X120533604Y-75278347D02*
G01*
X120570144Y-75289432D01*
X120603821Y-75307433D01*
X120633341Y-75331659D01*
X120657567Y-75361179D01*
X120675568Y-75394856D01*
X120686653Y-75431396D01*
X120691000Y-75475538D01*
X120691000Y-76924462D01*
X120686653Y-76968604D01*
X120675568Y-77005144D01*
X120657567Y-77038821D01*
X120633341Y-77068341D01*
X120603821Y-77092567D01*
X120570144Y-77110568D01*
X120533604Y-77121653D01*
X120489462Y-77126000D01*
X119540538Y-77126000D01*
X119496396Y-77121653D01*
X119459856Y-77110568D01*
X119426179Y-77092567D01*
X119396659Y-77068341D01*
X119372433Y-77038821D01*
X119354432Y-77005144D01*
X119343347Y-76968604D01*
X119339000Y-76924462D01*
X119339000Y-75475538D01*
X119343347Y-75431396D01*
X119354432Y-75394856D01*
X119372433Y-75361179D01*
X119396659Y-75331659D01*
X119426179Y-75307433D01*
X119459856Y-75289432D01*
X119496396Y-75278347D01*
X119540538Y-75274000D01*
X120489462Y-75274000D01*
X120533604Y-75278347D01*
X120533604Y-75278347D01*
G37*
G36*
X107633433Y-73564893D02*
G01*
X107723657Y-73582839D01*
X107829267Y-73626585D01*
X107978621Y-73688449D01*
X107978622Y-73688450D01*
X108208086Y-73841772D01*
X108403228Y-74036914D01*
X108472091Y-74139975D01*
X108556551Y-74266379D01*
X108662161Y-74521344D01*
X108716000Y-74792012D01*
X108716000Y-75067988D01*
X108662161Y-75338656D01*
X108556551Y-75593621D01*
X108556550Y-75593622D01*
X108403228Y-75823086D01*
X108208086Y-76018228D01*
X108054763Y-76120675D01*
X107978621Y-76171551D01*
X107829267Y-76233415D01*
X107723657Y-76277161D01*
X107633433Y-76295107D01*
X107452988Y-76331000D01*
X107177012Y-76331000D01*
X106996567Y-76295107D01*
X106906343Y-76277161D01*
X106800733Y-76233415D01*
X106651379Y-76171551D01*
X106575237Y-76120675D01*
X106421914Y-76018228D01*
X106226772Y-75823086D01*
X106073450Y-75593622D01*
X106073449Y-75593621D01*
X105967839Y-75338656D01*
X105914000Y-75067988D01*
X105914000Y-74792012D01*
X105967839Y-74521344D01*
X106073449Y-74266379D01*
X106157909Y-74139975D01*
X106226772Y-74036914D01*
X106421914Y-73841772D01*
X106651378Y-73688450D01*
X106651379Y-73688449D01*
X106800733Y-73626585D01*
X106906343Y-73582839D01*
X106996567Y-73564893D01*
X107177012Y-73529000D01*
X107452988Y-73529000D01*
X107633433Y-73564893D01*
X107633433Y-73564893D01*
G37*
G36*
X185103433Y-73564893D02*
G01*
X185193657Y-73582839D01*
X185299267Y-73626585D01*
X185448621Y-73688449D01*
X185448622Y-73688450D01*
X185678086Y-73841772D01*
X185873228Y-74036914D01*
X185942091Y-74139975D01*
X186026551Y-74266379D01*
X186132161Y-74521344D01*
X186186000Y-74792012D01*
X186186000Y-75067988D01*
X186132161Y-75338656D01*
X186026551Y-75593621D01*
X186026550Y-75593622D01*
X185873228Y-75823086D01*
X185678086Y-76018228D01*
X185524763Y-76120675D01*
X185448621Y-76171551D01*
X185299267Y-76233415D01*
X185193657Y-76277161D01*
X185103433Y-76295107D01*
X184922988Y-76331000D01*
X184647012Y-76331000D01*
X184466567Y-76295107D01*
X184376343Y-76277161D01*
X184270733Y-76233415D01*
X184121379Y-76171551D01*
X184045237Y-76120675D01*
X183891914Y-76018228D01*
X183696772Y-75823086D01*
X183543450Y-75593622D01*
X183543449Y-75593621D01*
X183437839Y-75338656D01*
X183384000Y-75067988D01*
X183384000Y-74792012D01*
X183437839Y-74521344D01*
X183543449Y-74266379D01*
X183627909Y-74139975D01*
X183696772Y-74036914D01*
X183891914Y-73841772D01*
X184121378Y-73688450D01*
X184121379Y-73688449D01*
X184270733Y-73626585D01*
X184376343Y-73582839D01*
X184466567Y-73564893D01*
X184647012Y-73529000D01*
X184922988Y-73529000D01*
X185103433Y-73564893D01*
X185103433Y-73564893D01*
G37*
G36*
X135421823Y-74091313D02*
G01*
X135582242Y-74139976D01*
X135714906Y-74210886D01*
X135730078Y-74218996D01*
X135859659Y-74325341D01*
X135966004Y-74454922D01*
X135966005Y-74454924D01*
X136045024Y-74602758D01*
X136093687Y-74763177D01*
X136110117Y-74930000D01*
X136093687Y-75096823D01*
X136045024Y-75257242D01*
X135993734Y-75353198D01*
X135966004Y-75405078D01*
X135859659Y-75534659D01*
X135730078Y-75641004D01*
X135730076Y-75641005D01*
X135582242Y-75720024D01*
X135421823Y-75768687D01*
X135296804Y-75781000D01*
X135213196Y-75781000D01*
X135088177Y-75768687D01*
X134927758Y-75720024D01*
X134779924Y-75641005D01*
X134779922Y-75641004D01*
X134650341Y-75534659D01*
X134543996Y-75405078D01*
X134516266Y-75353198D01*
X134464976Y-75257242D01*
X134416313Y-75096823D01*
X134399883Y-74930000D01*
X134416313Y-74763177D01*
X134464976Y-74602758D01*
X134543995Y-74454924D01*
X134543996Y-74454922D01*
X134650341Y-74325341D01*
X134779922Y-74218996D01*
X134795094Y-74210886D01*
X134927758Y-74139976D01*
X135088177Y-74091313D01*
X135213196Y-74079000D01*
X135296804Y-74079000D01*
X135421823Y-74091313D01*
X135421823Y-74091313D01*
G37*
G36*
X128486000Y-75781000D02*
G01*
X126784000Y-75781000D01*
X126784000Y-74079000D01*
X128486000Y-74079000D01*
X128486000Y-75781000D01*
X128486000Y-75781000D01*
G37*
M02*
