G04 #@! TF.GenerationSoftware,KiCad,Pcbnew,5.1.4-3.fc30*
G04 #@! TF.CreationDate,2019-09-02T15:34:34-07:00*
G04 #@! TF.ProjectId,AR_20_JW_Rev2,41525f32-305f-44a5-975f-526576322e6b,rev?*
G04 #@! TF.SameCoordinates,Original*
G04 #@! TF.FileFunction,Paste,Top*
G04 #@! TF.FilePolarity,Positive*
%FSLAX46Y46*%
G04 Gerber Fmt 4.6, Leading zero omitted, Abs format (unit mm)*
G04 Created by KiCad (PCBNEW 5.1.4-3.fc30) date 2019-09-02 15:34:34*
%MOMM*%
%LPD*%
G04 APERTURE LIST*
%ADD10C,0.100000*%
%ADD11C,1.250000*%
%ADD12R,7.875000X2.000000*%
G04 APERTURE END LIST*
D10*
G36*
X147334504Y-115321204D02*
G01*
X147358773Y-115324804D01*
X147382571Y-115330765D01*
X147405671Y-115339030D01*
X147427849Y-115349520D01*
X147448893Y-115362133D01*
X147468598Y-115376747D01*
X147486777Y-115393223D01*
X147503253Y-115411402D01*
X147517867Y-115431107D01*
X147530480Y-115452151D01*
X147540970Y-115474329D01*
X147549235Y-115497429D01*
X147555196Y-115521227D01*
X147558796Y-115545496D01*
X147560000Y-115570000D01*
X147560000Y-116320000D01*
X147558796Y-116344504D01*
X147555196Y-116368773D01*
X147549235Y-116392571D01*
X147540970Y-116415671D01*
X147530480Y-116437849D01*
X147517867Y-116458893D01*
X147503253Y-116478598D01*
X147486777Y-116496777D01*
X147468598Y-116513253D01*
X147448893Y-116527867D01*
X147427849Y-116540480D01*
X147405671Y-116550970D01*
X147382571Y-116559235D01*
X147358773Y-116565196D01*
X147334504Y-116568796D01*
X147310000Y-116570000D01*
X146060000Y-116570000D01*
X146035496Y-116568796D01*
X146011227Y-116565196D01*
X145987429Y-116559235D01*
X145964329Y-116550970D01*
X145942151Y-116540480D01*
X145921107Y-116527867D01*
X145901402Y-116513253D01*
X145883223Y-116496777D01*
X145866747Y-116478598D01*
X145852133Y-116458893D01*
X145839520Y-116437849D01*
X145829030Y-116415671D01*
X145820765Y-116392571D01*
X145814804Y-116368773D01*
X145811204Y-116344504D01*
X145810000Y-116320000D01*
X145810000Y-115570000D01*
X145811204Y-115545496D01*
X145814804Y-115521227D01*
X145820765Y-115497429D01*
X145829030Y-115474329D01*
X145839520Y-115452151D01*
X145852133Y-115431107D01*
X145866747Y-115411402D01*
X145883223Y-115393223D01*
X145901402Y-115376747D01*
X145921107Y-115362133D01*
X145942151Y-115349520D01*
X145964329Y-115339030D01*
X145987429Y-115330765D01*
X146011227Y-115324804D01*
X146035496Y-115321204D01*
X146060000Y-115320000D01*
X147310000Y-115320000D01*
X147334504Y-115321204D01*
X147334504Y-115321204D01*
G37*
D11*
X146685000Y-115945000D03*
D10*
G36*
X147334504Y-118121204D02*
G01*
X147358773Y-118124804D01*
X147382571Y-118130765D01*
X147405671Y-118139030D01*
X147427849Y-118149520D01*
X147448893Y-118162133D01*
X147468598Y-118176747D01*
X147486777Y-118193223D01*
X147503253Y-118211402D01*
X147517867Y-118231107D01*
X147530480Y-118252151D01*
X147540970Y-118274329D01*
X147549235Y-118297429D01*
X147555196Y-118321227D01*
X147558796Y-118345496D01*
X147560000Y-118370000D01*
X147560000Y-119120000D01*
X147558796Y-119144504D01*
X147555196Y-119168773D01*
X147549235Y-119192571D01*
X147540970Y-119215671D01*
X147530480Y-119237849D01*
X147517867Y-119258893D01*
X147503253Y-119278598D01*
X147486777Y-119296777D01*
X147468598Y-119313253D01*
X147448893Y-119327867D01*
X147427849Y-119340480D01*
X147405671Y-119350970D01*
X147382571Y-119359235D01*
X147358773Y-119365196D01*
X147334504Y-119368796D01*
X147310000Y-119370000D01*
X146060000Y-119370000D01*
X146035496Y-119368796D01*
X146011227Y-119365196D01*
X145987429Y-119359235D01*
X145964329Y-119350970D01*
X145942151Y-119340480D01*
X145921107Y-119327867D01*
X145901402Y-119313253D01*
X145883223Y-119296777D01*
X145866747Y-119278598D01*
X145852133Y-119258893D01*
X145839520Y-119237849D01*
X145829030Y-119215671D01*
X145820765Y-119192571D01*
X145814804Y-119168773D01*
X145811204Y-119144504D01*
X145810000Y-119120000D01*
X145810000Y-118370000D01*
X145811204Y-118345496D01*
X145814804Y-118321227D01*
X145820765Y-118297429D01*
X145829030Y-118274329D01*
X145839520Y-118252151D01*
X145852133Y-118231107D01*
X145866747Y-118211402D01*
X145883223Y-118193223D01*
X145901402Y-118176747D01*
X145921107Y-118162133D01*
X145942151Y-118149520D01*
X145964329Y-118139030D01*
X145987429Y-118130765D01*
X146011227Y-118124804D01*
X146035496Y-118121204D01*
X146060000Y-118120000D01*
X147310000Y-118120000D01*
X147334504Y-118121204D01*
X147334504Y-118121204D01*
G37*
D11*
X146685000Y-118745000D03*
D10*
G36*
X117614504Y-75326204D02*
G01*
X117638773Y-75329804D01*
X117662571Y-75335765D01*
X117685671Y-75344030D01*
X117707849Y-75354520D01*
X117728893Y-75367133D01*
X117748598Y-75381747D01*
X117766777Y-75398223D01*
X117783253Y-75416402D01*
X117797867Y-75436107D01*
X117810480Y-75457151D01*
X117820970Y-75479329D01*
X117829235Y-75502429D01*
X117835196Y-75526227D01*
X117838796Y-75550496D01*
X117840000Y-75575000D01*
X117840000Y-76825000D01*
X117838796Y-76849504D01*
X117835196Y-76873773D01*
X117829235Y-76897571D01*
X117820970Y-76920671D01*
X117810480Y-76942849D01*
X117797867Y-76963893D01*
X117783253Y-76983598D01*
X117766777Y-77001777D01*
X117748598Y-77018253D01*
X117728893Y-77032867D01*
X117707849Y-77045480D01*
X117685671Y-77055970D01*
X117662571Y-77064235D01*
X117638773Y-77070196D01*
X117614504Y-77073796D01*
X117590000Y-77075000D01*
X116840000Y-77075000D01*
X116815496Y-77073796D01*
X116791227Y-77070196D01*
X116767429Y-77064235D01*
X116744329Y-77055970D01*
X116722151Y-77045480D01*
X116701107Y-77032867D01*
X116681402Y-77018253D01*
X116663223Y-77001777D01*
X116646747Y-76983598D01*
X116632133Y-76963893D01*
X116619520Y-76942849D01*
X116609030Y-76920671D01*
X116600765Y-76897571D01*
X116594804Y-76873773D01*
X116591204Y-76849504D01*
X116590000Y-76825000D01*
X116590000Y-75575000D01*
X116591204Y-75550496D01*
X116594804Y-75526227D01*
X116600765Y-75502429D01*
X116609030Y-75479329D01*
X116619520Y-75457151D01*
X116632133Y-75436107D01*
X116646747Y-75416402D01*
X116663223Y-75398223D01*
X116681402Y-75381747D01*
X116701107Y-75367133D01*
X116722151Y-75354520D01*
X116744329Y-75344030D01*
X116767429Y-75335765D01*
X116791227Y-75329804D01*
X116815496Y-75326204D01*
X116840000Y-75325000D01*
X117590000Y-75325000D01*
X117614504Y-75326204D01*
X117614504Y-75326204D01*
G37*
D11*
X117215000Y-76200000D03*
D10*
G36*
X120414504Y-75326204D02*
G01*
X120438773Y-75329804D01*
X120462571Y-75335765D01*
X120485671Y-75344030D01*
X120507849Y-75354520D01*
X120528893Y-75367133D01*
X120548598Y-75381747D01*
X120566777Y-75398223D01*
X120583253Y-75416402D01*
X120597867Y-75436107D01*
X120610480Y-75457151D01*
X120620970Y-75479329D01*
X120629235Y-75502429D01*
X120635196Y-75526227D01*
X120638796Y-75550496D01*
X120640000Y-75575000D01*
X120640000Y-76825000D01*
X120638796Y-76849504D01*
X120635196Y-76873773D01*
X120629235Y-76897571D01*
X120620970Y-76920671D01*
X120610480Y-76942849D01*
X120597867Y-76963893D01*
X120583253Y-76983598D01*
X120566777Y-77001777D01*
X120548598Y-77018253D01*
X120528893Y-77032867D01*
X120507849Y-77045480D01*
X120485671Y-77055970D01*
X120462571Y-77064235D01*
X120438773Y-77070196D01*
X120414504Y-77073796D01*
X120390000Y-77075000D01*
X119640000Y-77075000D01*
X119615496Y-77073796D01*
X119591227Y-77070196D01*
X119567429Y-77064235D01*
X119544329Y-77055970D01*
X119522151Y-77045480D01*
X119501107Y-77032867D01*
X119481402Y-77018253D01*
X119463223Y-77001777D01*
X119446747Y-76983598D01*
X119432133Y-76963893D01*
X119419520Y-76942849D01*
X119409030Y-76920671D01*
X119400765Y-76897571D01*
X119394804Y-76873773D01*
X119391204Y-76849504D01*
X119390000Y-76825000D01*
X119390000Y-75575000D01*
X119391204Y-75550496D01*
X119394804Y-75526227D01*
X119400765Y-75502429D01*
X119409030Y-75479329D01*
X119419520Y-75457151D01*
X119432133Y-75436107D01*
X119446747Y-75416402D01*
X119463223Y-75398223D01*
X119481402Y-75381747D01*
X119501107Y-75367133D01*
X119522151Y-75354520D01*
X119544329Y-75344030D01*
X119567429Y-75335765D01*
X119591227Y-75329804D01*
X119615496Y-75326204D01*
X119640000Y-75325000D01*
X120390000Y-75325000D01*
X120414504Y-75326204D01*
X120414504Y-75326204D01*
G37*
D11*
X120015000Y-76200000D03*
D10*
G36*
X147334504Y-108971204D02*
G01*
X147358773Y-108974804D01*
X147382571Y-108980765D01*
X147405671Y-108989030D01*
X147427849Y-108999520D01*
X147448893Y-109012133D01*
X147468598Y-109026747D01*
X147486777Y-109043223D01*
X147503253Y-109061402D01*
X147517867Y-109081107D01*
X147530480Y-109102151D01*
X147540970Y-109124329D01*
X147549235Y-109147429D01*
X147555196Y-109171227D01*
X147558796Y-109195496D01*
X147560000Y-109220000D01*
X147560000Y-109970000D01*
X147558796Y-109994504D01*
X147555196Y-110018773D01*
X147549235Y-110042571D01*
X147540970Y-110065671D01*
X147530480Y-110087849D01*
X147517867Y-110108893D01*
X147503253Y-110128598D01*
X147486777Y-110146777D01*
X147468598Y-110163253D01*
X147448893Y-110177867D01*
X147427849Y-110190480D01*
X147405671Y-110200970D01*
X147382571Y-110209235D01*
X147358773Y-110215196D01*
X147334504Y-110218796D01*
X147310000Y-110220000D01*
X146060000Y-110220000D01*
X146035496Y-110218796D01*
X146011227Y-110215196D01*
X145987429Y-110209235D01*
X145964329Y-110200970D01*
X145942151Y-110190480D01*
X145921107Y-110177867D01*
X145901402Y-110163253D01*
X145883223Y-110146777D01*
X145866747Y-110128598D01*
X145852133Y-110108893D01*
X145839520Y-110087849D01*
X145829030Y-110065671D01*
X145820765Y-110042571D01*
X145814804Y-110018773D01*
X145811204Y-109994504D01*
X145810000Y-109970000D01*
X145810000Y-109220000D01*
X145811204Y-109195496D01*
X145814804Y-109171227D01*
X145820765Y-109147429D01*
X145829030Y-109124329D01*
X145839520Y-109102151D01*
X145852133Y-109081107D01*
X145866747Y-109061402D01*
X145883223Y-109043223D01*
X145901402Y-109026747D01*
X145921107Y-109012133D01*
X145942151Y-108999520D01*
X145964329Y-108989030D01*
X145987429Y-108980765D01*
X146011227Y-108974804D01*
X146035496Y-108971204D01*
X146060000Y-108970000D01*
X147310000Y-108970000D01*
X147334504Y-108971204D01*
X147334504Y-108971204D01*
G37*
D11*
X146685000Y-109595000D03*
D10*
G36*
X147334504Y-111771204D02*
G01*
X147358773Y-111774804D01*
X147382571Y-111780765D01*
X147405671Y-111789030D01*
X147427849Y-111799520D01*
X147448893Y-111812133D01*
X147468598Y-111826747D01*
X147486777Y-111843223D01*
X147503253Y-111861402D01*
X147517867Y-111881107D01*
X147530480Y-111902151D01*
X147540970Y-111924329D01*
X147549235Y-111947429D01*
X147555196Y-111971227D01*
X147558796Y-111995496D01*
X147560000Y-112020000D01*
X147560000Y-112770000D01*
X147558796Y-112794504D01*
X147555196Y-112818773D01*
X147549235Y-112842571D01*
X147540970Y-112865671D01*
X147530480Y-112887849D01*
X147517867Y-112908893D01*
X147503253Y-112928598D01*
X147486777Y-112946777D01*
X147468598Y-112963253D01*
X147448893Y-112977867D01*
X147427849Y-112990480D01*
X147405671Y-113000970D01*
X147382571Y-113009235D01*
X147358773Y-113015196D01*
X147334504Y-113018796D01*
X147310000Y-113020000D01*
X146060000Y-113020000D01*
X146035496Y-113018796D01*
X146011227Y-113015196D01*
X145987429Y-113009235D01*
X145964329Y-113000970D01*
X145942151Y-112990480D01*
X145921107Y-112977867D01*
X145901402Y-112963253D01*
X145883223Y-112946777D01*
X145866747Y-112928598D01*
X145852133Y-112908893D01*
X145839520Y-112887849D01*
X145829030Y-112865671D01*
X145820765Y-112842571D01*
X145814804Y-112818773D01*
X145811204Y-112794504D01*
X145810000Y-112770000D01*
X145810000Y-112020000D01*
X145811204Y-111995496D01*
X145814804Y-111971227D01*
X145820765Y-111947429D01*
X145829030Y-111924329D01*
X145839520Y-111902151D01*
X145852133Y-111881107D01*
X145866747Y-111861402D01*
X145883223Y-111843223D01*
X145901402Y-111826747D01*
X145921107Y-111812133D01*
X145942151Y-111799520D01*
X145964329Y-111789030D01*
X145987429Y-111780765D01*
X146011227Y-111774804D01*
X146035496Y-111771204D01*
X146060000Y-111770000D01*
X147310000Y-111770000D01*
X147334504Y-111771204D01*
X147334504Y-111771204D01*
G37*
D11*
X146685000Y-112395000D03*
D10*
G36*
X117744504Y-94376204D02*
G01*
X117768773Y-94379804D01*
X117792571Y-94385765D01*
X117815671Y-94394030D01*
X117837849Y-94404520D01*
X117858893Y-94417133D01*
X117878598Y-94431747D01*
X117896777Y-94448223D01*
X117913253Y-94466402D01*
X117927867Y-94486107D01*
X117940480Y-94507151D01*
X117950970Y-94529329D01*
X117959235Y-94552429D01*
X117965196Y-94576227D01*
X117968796Y-94600496D01*
X117970000Y-94625000D01*
X117970000Y-95875000D01*
X117968796Y-95899504D01*
X117965196Y-95923773D01*
X117959235Y-95947571D01*
X117950970Y-95970671D01*
X117940480Y-95992849D01*
X117927867Y-96013893D01*
X117913253Y-96033598D01*
X117896777Y-96051777D01*
X117878598Y-96068253D01*
X117858893Y-96082867D01*
X117837849Y-96095480D01*
X117815671Y-96105970D01*
X117792571Y-96114235D01*
X117768773Y-96120196D01*
X117744504Y-96123796D01*
X117720000Y-96125000D01*
X116970000Y-96125000D01*
X116945496Y-96123796D01*
X116921227Y-96120196D01*
X116897429Y-96114235D01*
X116874329Y-96105970D01*
X116852151Y-96095480D01*
X116831107Y-96082867D01*
X116811402Y-96068253D01*
X116793223Y-96051777D01*
X116776747Y-96033598D01*
X116762133Y-96013893D01*
X116749520Y-95992849D01*
X116739030Y-95970671D01*
X116730765Y-95947571D01*
X116724804Y-95923773D01*
X116721204Y-95899504D01*
X116720000Y-95875000D01*
X116720000Y-94625000D01*
X116721204Y-94600496D01*
X116724804Y-94576227D01*
X116730765Y-94552429D01*
X116739030Y-94529329D01*
X116749520Y-94507151D01*
X116762133Y-94486107D01*
X116776747Y-94466402D01*
X116793223Y-94448223D01*
X116811402Y-94431747D01*
X116831107Y-94417133D01*
X116852151Y-94404520D01*
X116874329Y-94394030D01*
X116897429Y-94385765D01*
X116921227Y-94379804D01*
X116945496Y-94376204D01*
X116970000Y-94375000D01*
X117720000Y-94375000D01*
X117744504Y-94376204D01*
X117744504Y-94376204D01*
G37*
D11*
X117345000Y-95250000D03*
D10*
G36*
X120544504Y-94376204D02*
G01*
X120568773Y-94379804D01*
X120592571Y-94385765D01*
X120615671Y-94394030D01*
X120637849Y-94404520D01*
X120658893Y-94417133D01*
X120678598Y-94431747D01*
X120696777Y-94448223D01*
X120713253Y-94466402D01*
X120727867Y-94486107D01*
X120740480Y-94507151D01*
X120750970Y-94529329D01*
X120759235Y-94552429D01*
X120765196Y-94576227D01*
X120768796Y-94600496D01*
X120770000Y-94625000D01*
X120770000Y-95875000D01*
X120768796Y-95899504D01*
X120765196Y-95923773D01*
X120759235Y-95947571D01*
X120750970Y-95970671D01*
X120740480Y-95992849D01*
X120727867Y-96013893D01*
X120713253Y-96033598D01*
X120696777Y-96051777D01*
X120678598Y-96068253D01*
X120658893Y-96082867D01*
X120637849Y-96095480D01*
X120615671Y-96105970D01*
X120592571Y-96114235D01*
X120568773Y-96120196D01*
X120544504Y-96123796D01*
X120520000Y-96125000D01*
X119770000Y-96125000D01*
X119745496Y-96123796D01*
X119721227Y-96120196D01*
X119697429Y-96114235D01*
X119674329Y-96105970D01*
X119652151Y-96095480D01*
X119631107Y-96082867D01*
X119611402Y-96068253D01*
X119593223Y-96051777D01*
X119576747Y-96033598D01*
X119562133Y-96013893D01*
X119549520Y-95992849D01*
X119539030Y-95970671D01*
X119530765Y-95947571D01*
X119524804Y-95923773D01*
X119521204Y-95899504D01*
X119520000Y-95875000D01*
X119520000Y-94625000D01*
X119521204Y-94600496D01*
X119524804Y-94576227D01*
X119530765Y-94552429D01*
X119539030Y-94529329D01*
X119549520Y-94507151D01*
X119562133Y-94486107D01*
X119576747Y-94466402D01*
X119593223Y-94448223D01*
X119611402Y-94431747D01*
X119631107Y-94417133D01*
X119652151Y-94404520D01*
X119674329Y-94394030D01*
X119697429Y-94385765D01*
X119721227Y-94379804D01*
X119745496Y-94376204D01*
X119770000Y-94375000D01*
X120520000Y-94375000D01*
X120544504Y-94376204D01*
X120544504Y-94376204D01*
G37*
D11*
X120145000Y-95250000D03*
D10*
G36*
X120414504Y-99456204D02*
G01*
X120438773Y-99459804D01*
X120462571Y-99465765D01*
X120485671Y-99474030D01*
X120507849Y-99484520D01*
X120528893Y-99497133D01*
X120548598Y-99511747D01*
X120566777Y-99528223D01*
X120583253Y-99546402D01*
X120597867Y-99566107D01*
X120610480Y-99587151D01*
X120620970Y-99609329D01*
X120629235Y-99632429D01*
X120635196Y-99656227D01*
X120638796Y-99680496D01*
X120640000Y-99705000D01*
X120640000Y-100955000D01*
X120638796Y-100979504D01*
X120635196Y-101003773D01*
X120629235Y-101027571D01*
X120620970Y-101050671D01*
X120610480Y-101072849D01*
X120597867Y-101093893D01*
X120583253Y-101113598D01*
X120566777Y-101131777D01*
X120548598Y-101148253D01*
X120528893Y-101162867D01*
X120507849Y-101175480D01*
X120485671Y-101185970D01*
X120462571Y-101194235D01*
X120438773Y-101200196D01*
X120414504Y-101203796D01*
X120390000Y-101205000D01*
X119640000Y-101205000D01*
X119615496Y-101203796D01*
X119591227Y-101200196D01*
X119567429Y-101194235D01*
X119544329Y-101185970D01*
X119522151Y-101175480D01*
X119501107Y-101162867D01*
X119481402Y-101148253D01*
X119463223Y-101131777D01*
X119446747Y-101113598D01*
X119432133Y-101093893D01*
X119419520Y-101072849D01*
X119409030Y-101050671D01*
X119400765Y-101027571D01*
X119394804Y-101003773D01*
X119391204Y-100979504D01*
X119390000Y-100955000D01*
X119390000Y-99705000D01*
X119391204Y-99680496D01*
X119394804Y-99656227D01*
X119400765Y-99632429D01*
X119409030Y-99609329D01*
X119419520Y-99587151D01*
X119432133Y-99566107D01*
X119446747Y-99546402D01*
X119463223Y-99528223D01*
X119481402Y-99511747D01*
X119501107Y-99497133D01*
X119522151Y-99484520D01*
X119544329Y-99474030D01*
X119567429Y-99465765D01*
X119591227Y-99459804D01*
X119615496Y-99456204D01*
X119640000Y-99455000D01*
X120390000Y-99455000D01*
X120414504Y-99456204D01*
X120414504Y-99456204D01*
G37*
D11*
X120015000Y-100330000D03*
D10*
G36*
X117614504Y-99456204D02*
G01*
X117638773Y-99459804D01*
X117662571Y-99465765D01*
X117685671Y-99474030D01*
X117707849Y-99484520D01*
X117728893Y-99497133D01*
X117748598Y-99511747D01*
X117766777Y-99528223D01*
X117783253Y-99546402D01*
X117797867Y-99566107D01*
X117810480Y-99587151D01*
X117820970Y-99609329D01*
X117829235Y-99632429D01*
X117835196Y-99656227D01*
X117838796Y-99680496D01*
X117840000Y-99705000D01*
X117840000Y-100955000D01*
X117838796Y-100979504D01*
X117835196Y-101003773D01*
X117829235Y-101027571D01*
X117820970Y-101050671D01*
X117810480Y-101072849D01*
X117797867Y-101093893D01*
X117783253Y-101113598D01*
X117766777Y-101131777D01*
X117748598Y-101148253D01*
X117728893Y-101162867D01*
X117707849Y-101175480D01*
X117685671Y-101185970D01*
X117662571Y-101194235D01*
X117638773Y-101200196D01*
X117614504Y-101203796D01*
X117590000Y-101205000D01*
X116840000Y-101205000D01*
X116815496Y-101203796D01*
X116791227Y-101200196D01*
X116767429Y-101194235D01*
X116744329Y-101185970D01*
X116722151Y-101175480D01*
X116701107Y-101162867D01*
X116681402Y-101148253D01*
X116663223Y-101131777D01*
X116646747Y-101113598D01*
X116632133Y-101093893D01*
X116619520Y-101072849D01*
X116609030Y-101050671D01*
X116600765Y-101027571D01*
X116594804Y-101003773D01*
X116591204Y-100979504D01*
X116590000Y-100955000D01*
X116590000Y-99705000D01*
X116591204Y-99680496D01*
X116594804Y-99656227D01*
X116600765Y-99632429D01*
X116609030Y-99609329D01*
X116619520Y-99587151D01*
X116632133Y-99566107D01*
X116646747Y-99546402D01*
X116663223Y-99528223D01*
X116681402Y-99511747D01*
X116701107Y-99497133D01*
X116722151Y-99484520D01*
X116744329Y-99474030D01*
X116767429Y-99465765D01*
X116791227Y-99459804D01*
X116815496Y-99456204D01*
X116840000Y-99455000D01*
X117590000Y-99455000D01*
X117614504Y-99456204D01*
X117614504Y-99456204D01*
G37*
D11*
X117215000Y-100330000D03*
D10*
G36*
X120414504Y-104536204D02*
G01*
X120438773Y-104539804D01*
X120462571Y-104545765D01*
X120485671Y-104554030D01*
X120507849Y-104564520D01*
X120528893Y-104577133D01*
X120548598Y-104591747D01*
X120566777Y-104608223D01*
X120583253Y-104626402D01*
X120597867Y-104646107D01*
X120610480Y-104667151D01*
X120620970Y-104689329D01*
X120629235Y-104712429D01*
X120635196Y-104736227D01*
X120638796Y-104760496D01*
X120640000Y-104785000D01*
X120640000Y-106035000D01*
X120638796Y-106059504D01*
X120635196Y-106083773D01*
X120629235Y-106107571D01*
X120620970Y-106130671D01*
X120610480Y-106152849D01*
X120597867Y-106173893D01*
X120583253Y-106193598D01*
X120566777Y-106211777D01*
X120548598Y-106228253D01*
X120528893Y-106242867D01*
X120507849Y-106255480D01*
X120485671Y-106265970D01*
X120462571Y-106274235D01*
X120438773Y-106280196D01*
X120414504Y-106283796D01*
X120390000Y-106285000D01*
X119640000Y-106285000D01*
X119615496Y-106283796D01*
X119591227Y-106280196D01*
X119567429Y-106274235D01*
X119544329Y-106265970D01*
X119522151Y-106255480D01*
X119501107Y-106242867D01*
X119481402Y-106228253D01*
X119463223Y-106211777D01*
X119446747Y-106193598D01*
X119432133Y-106173893D01*
X119419520Y-106152849D01*
X119409030Y-106130671D01*
X119400765Y-106107571D01*
X119394804Y-106083773D01*
X119391204Y-106059504D01*
X119390000Y-106035000D01*
X119390000Y-104785000D01*
X119391204Y-104760496D01*
X119394804Y-104736227D01*
X119400765Y-104712429D01*
X119409030Y-104689329D01*
X119419520Y-104667151D01*
X119432133Y-104646107D01*
X119446747Y-104626402D01*
X119463223Y-104608223D01*
X119481402Y-104591747D01*
X119501107Y-104577133D01*
X119522151Y-104564520D01*
X119544329Y-104554030D01*
X119567429Y-104545765D01*
X119591227Y-104539804D01*
X119615496Y-104536204D01*
X119640000Y-104535000D01*
X120390000Y-104535000D01*
X120414504Y-104536204D01*
X120414504Y-104536204D01*
G37*
D11*
X120015000Y-105410000D03*
D10*
G36*
X117614504Y-104536204D02*
G01*
X117638773Y-104539804D01*
X117662571Y-104545765D01*
X117685671Y-104554030D01*
X117707849Y-104564520D01*
X117728893Y-104577133D01*
X117748598Y-104591747D01*
X117766777Y-104608223D01*
X117783253Y-104626402D01*
X117797867Y-104646107D01*
X117810480Y-104667151D01*
X117820970Y-104689329D01*
X117829235Y-104712429D01*
X117835196Y-104736227D01*
X117838796Y-104760496D01*
X117840000Y-104785000D01*
X117840000Y-106035000D01*
X117838796Y-106059504D01*
X117835196Y-106083773D01*
X117829235Y-106107571D01*
X117820970Y-106130671D01*
X117810480Y-106152849D01*
X117797867Y-106173893D01*
X117783253Y-106193598D01*
X117766777Y-106211777D01*
X117748598Y-106228253D01*
X117728893Y-106242867D01*
X117707849Y-106255480D01*
X117685671Y-106265970D01*
X117662571Y-106274235D01*
X117638773Y-106280196D01*
X117614504Y-106283796D01*
X117590000Y-106285000D01*
X116840000Y-106285000D01*
X116815496Y-106283796D01*
X116791227Y-106280196D01*
X116767429Y-106274235D01*
X116744329Y-106265970D01*
X116722151Y-106255480D01*
X116701107Y-106242867D01*
X116681402Y-106228253D01*
X116663223Y-106211777D01*
X116646747Y-106193598D01*
X116632133Y-106173893D01*
X116619520Y-106152849D01*
X116609030Y-106130671D01*
X116600765Y-106107571D01*
X116594804Y-106083773D01*
X116591204Y-106059504D01*
X116590000Y-106035000D01*
X116590000Y-104785000D01*
X116591204Y-104760496D01*
X116594804Y-104736227D01*
X116600765Y-104712429D01*
X116609030Y-104689329D01*
X116619520Y-104667151D01*
X116632133Y-104646107D01*
X116646747Y-104626402D01*
X116663223Y-104608223D01*
X116681402Y-104591747D01*
X116701107Y-104577133D01*
X116722151Y-104564520D01*
X116744329Y-104554030D01*
X116767429Y-104545765D01*
X116791227Y-104539804D01*
X116815496Y-104536204D01*
X116840000Y-104535000D01*
X117590000Y-104535000D01*
X117614504Y-104536204D01*
X117614504Y-104536204D01*
G37*
D11*
X117215000Y-105410000D03*
D12*
X136970000Y-123190000D03*
X125095000Y-123190000D03*
M02*
